<?xml version="1.0" encoding="UTF-8" standalone="no"?>
<!-- Created with Inkscape (http://www.inkscape.org/) -->
<svg xmlns:rdf="http://www.w3.org/1999/02/22-rdf-syntax-ns#" xmlns="http://www.w3.org/2000/svg" version="1.1" xmlns:cc="http://creativecommons.org/ns#" xmlns:dc="http://purl.org/dc/elements/1.1/" viewBox="0 0 634 256">
 <metadata>
  <rdf:RDF>
   <cc:Work rdf:about="">
    <dc:format>image/svg+xml</dc:format>
    <dc:type rdf:resource="http://purl.org/dc/dcmitype/StillImage"/>
    <dc:title/>
   </cc:Work>
  </rdf:RDF>
 </metadata>
 <path fill="#000" d="m128.4,21.42c0.8616-2.245,0.8264-2.288-1.393-1.708-2.05,0.5362-2.512,1.444-1.333,2.623,1.095,1.095,2.082,0.7638,2.726-0.9151zm-18.4,14.58c0-0.55-0.4766-1-1.059-1-0.5825,0-0.7809,0.45-0.441,1s0.8165,1,1.059,1,0.441-0.45,0.441-1zm-6,0c1.213-0.7839,1.069-0.9723-0.75-0.9847-1.238-0.008-2.25,0.4347-2.25,0.9847,0,1.253,1.061,1.253,3,0zm5.5,3c-0.3399-0.55-1.379-0.9684-2.309-0.9297-1.378,0.0573-1.321,0.2291,0.309,0.9297,2.676,1.15,2.711,1.15,2,0zm-1.615,4.214c0.7502-1.402,0.575-1.786-0.8152-1.786-1.208,0-1.622,0.5679-1.304,1.786,0.2568,0.9822,0.6237,1.786,0.8152,1.786s0.7782-0.8036,1.304-1.786zm-1.884,4.308c-2.558-1.391-3.61-1.315-2.678,0.193,0.2882,0.4664,1.571,0.9194,2.85,1.007l2.326,0.1587-2.498-1.358zm-4.833-1.754c-0.7421-0.7421-0.8722-0.3516-0.4372,1.312,0.3536,1.352,0.8069,1.805,1.057,1.057,0.2405-0.7214-0.0382-1.787-0.6193-2.368zm54.3,8.23c-0.3399-0.55-1.154-0.9931-1.809-0.9847-0.7156,0.009-0.5923,0.4022,0.309,0.9847,1.921,1.242,2.267,1.242,1.5,0zm-26.32-0.25c0.1758-1.238,1.332-2.694,2.57-3.237,2.819-1.237,3.018-4.513,0.2748-4.513-1.714,0-1.845-0.3436-0.986-2.602,0.8468-2.227,0.5518-3.1-2.049-6.062l-3.038-3.46,2.191-3.077c1.44-2.022,1.705-2.917,0.7739-2.609-0.7794,0.2574-1.885,1.397-2.456,2.532-0.5715,1.135-1.614,2.757-2.317,3.604-1.08,1.301-0.8413,1.776,1.539,3.067,3.243,1.758,2.651,2.065-1.175,0.61-1.743-0.6626-2.416-0.6626-2.006,0,0.3389,0.5483,1.254,0.997,2.034,0.997,2.713,0,4.579,4.411,3.86,9.123-0.3677,2.407-1.053,4.868-1.523,5.469-0.4702,0.6006-0.5587,1.388-0.1968,1.75,1.248,1.248,2.186,0.6514,2.505-1.592zm25.8,2.81c0-0.2426-0.45-0.7191-1-1.059s-1-0.1415-1,0.441,0.45,1.059,1,1.059,1-0.1984,1-0.441zm-7,0.441c0-0.55-0.4766-1-1.059-1-0.5825,0-0.7809,0.45-0.441,1s0.8165,1,1.059,1,0.441-0.45,0.441-1zm-26,1c0-0.55-0.4766-1-1.059-1-0.5825,0-0.7809,0.45-0.441,1s0.8165,1,1.059,1,0.441-0.45,0.441-1zm18.5,3c0.3399-0.55,1.604-1.052,2.809-1.116,1.764-0.0934,1.84-0.207,0.3929-0.5826-0.9889-0.2566-2.451,0.0757-3.25,0.7384-1.149,0.9537-1.455,0.9188-1.467-0.1674-0.0106-0.9485-0.2423-1.022-0.75-0.2381-0.4041,0.6239-1.635,1.359-2.735,1.634-1.348,0.3367-0.9594,0.5375,1.191,0.6157,1.755,0.0638,3.469-0.334,3.809-0.884zm10.62-0.2667c-0.9876-0.9803-1.102-0.8654-0.5598,0.5598,0.3755,0.9862,0.9347,1.541,1.243,1.233,0.3079-0.3079,0.00064-1.115-0.6828-1.793zm-18.86,1.611c-0.677-0.2739-2.027-0.2906-3-0.0371-0.973,0.2536-0.419,0.4777,1.231,0.498,1.65,0.0204,2.446-0.1871,1.769-0.461zm-14.7-1.09c1.316,0.2516,2.187,0.1236,1.935-0.2846-0.3965-0.6415-6.077-2.161-8.943-2.391-0.5294-0.0426-1.382-1.54-1.895-3.328-0.5126-1.788-1.505-3.25-2.206-3.25-0.7005,0-2.098-0.2804-3.105-0.623-1.367-0.465-1.261-0.197,0.4182,1.057,1.238,0.9239,2.25,2.277,2.25,3.008,0,0.7306,1.125,2.065,2.5,2.966,1.375,0.9009,2.5,2.078,2.5,2.615,0,0.5373,0.7875,1.773,1.75,2.746,1.672,1.69,1.765,1.663,2.076-0.602,0.262-1.904,0.7979-2.28,2.72-1.913zm34.5,4.75c-0.7931-0.4902-1.667-0.6663-1.942-0.3913s0.1489,0.9011,0.9421,1.391c0.7931,0.4902,1.667,0.6662,1.942,0.3912s-0.1489-0.9011-0.9421-1.391zm-35.19-0.5265c-0.3079-0.3079-0.867,0.2471-1.243,1.233-0.5427,1.425-0.4278,1.54,0.5598,0.5598,0.6834-0.6783,0.9907-1.485,0.6828-1.793zm29.64,1.304c0.8562-1.222,1.557-3.013,1.557-3.979,0-1.544-0.3322-1.609-2.75-0.5397-2.762,1.221-5.159,3.541-5.218,5.05-0.0175,0.445,0.3871,0.5501,0.8991,0.2337s1.214-0.118,1.559,0.441c0.9858,1.595,2.265,1.205,3.953-1.206zm-7.193,4.56c-0.6875-0.2774-1.812-0.2774-2.5,0-0.6875,0.2774-0.125,0.5044,1.25,0.5044s1.938-0.227,1.25-0.5044zm3.095,2.119c-0.3257-0.8487-0.8066-1.329-1.069-1.067-0.2621,0.2621-0.18,0.9565,0.1826,1.543,0.986,1.595,1.562,1.286,0.8862-0.4766zm-14.22,2.793c1.226-1.564,1.196-1.612-0.2803-0.4583-1.351,1.056-1.747,1.056-2.171,0-0.3296-0.8215-0.547-0.6546-0.5972,0.4583-0.0434,0.9625,0.316,1.75,0.7986,1.75s1.495-0.7875,2.25-1.75zm-2.398,5.146c-0.3323-0.3323-1.195-0.3678-1.917-0.0789-0.7977,0.3192-0.5608,0.5562,0.6042,0.6042,1.054,0.0434,1.645-0.1929,1.312-0.5252zm-6.362,7.818c0.2671-0.4321-0.3483-0.7857-1.368-0.7857-1.019,0-1.635,0.3536-1.368,0.7857,0.2671,0.4322,0.8825,0.7857,1.368,0.7857,0.4851,0,1.1-0.3536,1.368-0.7857zm-4.926,2.254c2.496-1.888,1.57-1.876-2.077,0.0256-1.575,0.8216-2.189,1.482-1.364,1.468,0.825-0.0141,2.374-0.6863,3.441-1.494zm-6.472,2.456c-1.411-3.405,0.2011-6.375,3.055-5.628,0.9148,0.2392,2.188-0.4045,2.828-1.43,0.6407-1.026,1.764-1.865,2.496-1.865s1.844-1.125,2.47-2.5c0.6265-1.375,1.599-2.5,2.161-2.5,0.5618,0,1.021-0.9296,1.021-2.066,0-2.775,1.776-5.934,3.335-5.934,0.6956,0,1.8-0.5354,2.455-1.19,1.553-1.553,4.21-1.924,4.21-0.5868,0,0.5755,0.9-0.0978,2-1.496,2.525-3.21,2.648-5.129,0.25-3.901-3.736,1.913-9.593,2.174-11.43,0.5084-1.89-1.711-1.837-1.765-3.381,3.416-0.5841,1.959-6.385,1.554-7.151-0.5-0.359-0.9625-1.47-2.338-2.469-3.057-0.9-0.72-1.7-1.96-1.7-2.77,0-0.8074-1.125-1.896-2.5-2.419-1.51-0.5743-2.5-1.738-2.5-2.94,0-1.094-0.9-2.471-2-3.06-1.28-0.685-2-2.094-2-3.913,0-1.563-0.675-3.403-1.5-4.087-1.696-1.408-2.016-5.563-0.5-6.5,0.55-0.3399,1-2.301,1-4.359s0.54-4.281,1.2-4.941c1.456-1.456,5.446-1.582,6.3-0.2,0.3399,0.55,1.851,1,3.359,1,5.404,0,6.51,3.79,3.141,10.76-1.1,2.277-2,5.082-2,6.233,0,3.307,4.381,7.003,8.3,7.003,4.041,0,6.442-2.323,6.716-6.5,0.336-5.124,0.0547-5.995-2.265-7.013-3.109-1.364-3.458-5.771-0.7322-9.237,1.81-2.3,2.052-3.54,1.521-7.79-0.854-6.835-0.0853-8.46,4.001-8.46,3.641,0,3.869,0.3798,4.93,8.203,0.4798,3.536,0.2223,5.337-1.038,7.26-1.626,2.481-1.595,2.622,1.035,4.69,1.952,1.535,2.585,2.791,2.262,4.483-0.2472,1.293,0.1627,2.859,0.9107,3.48,2.282,1.894,1.655,6.461-1.14,8.292-4.247,2.783-2.722,6.772,1.709,4.47,4.894-2.543,5.84-2.878,8.122-2.878,1.297,0,3.173-0.9,4.169-2,2.231-2.465,4.608-2.543,7.449-0.2426,2,1.62,2.08,2.109,1.019,6.25-0.6331,2.471-1.222,6.422-1.31,8.779-0.1559,4.217-1.584,6.165-4.544,6.198-0.7619,0.008-2.428,1.14-3.702,2.515-2.617,2.824-5.568,3.222-7.412,1-0.6847-0.825-2.035-1.5-3-1.5-0.9653,0-2.315,0.675-3,1.5-0.6847,0.825-1.795,1.5-2.467,1.5-1.89,0-4.533,3.411-4.533,5.85,0,1.364-0.9377,2.62-2.481,3.323-1.364,0.6217-2.744,1.961-3.067,2.976-0.3222,1.015-1.793,2.147-3.269,2.514-1.476,0.3674-3.133,1.274-3.683,2.014-0.55,0.7403-1.972,1.532-3.16,1.76-1.637,0.3135-2.453-0.2941-3.372-2.513zm-28.4,11.08c-0.3399-0.55-1.154-0.9931-1.809-0.9847-0.7156,0.009-0.5923,0.4022,0.309,0.9847,1.921,1.242,2.267,1.242,1.5,0zm20.5,1.655c0-0.1898-1.012-1.202-2.25-2.25l-2.25-1.9,1.905,2.25c1.8,2.1,2.6,2.7,2.6,1.9zm-15.5,0.3c-0.3399-0.55-1.379-0.9684-2.309-0.9297-1.378,0.0573-1.321,0.2291,0.309,0.9297,2.676,1.15,2.711,1.15,2,0zm28.25,3.311c-0.9625-0.2515-1.75-0.9493-1.75-1.551,0-0.6013-0.2701-0.8233-0.6001-0.4932-0.9987,0.9987,0.605,2.741,2.409,2.617,1.524-0.1046,1.519-0.161-0.059-0.5733zm-27.02,4.085c-0.3323-0.3323-1.195-0.3678-1.917-0.0789-0.7977,0.3192-0.5608,0.5562,0.6042,0.6042,1.054,0.0434,1.645-0.1929,1.312-0.5252zm-5.78,2.2c0-0.2162-0.6984-0.661-1.552-0.9886-0.8899-0.3415-1.291-0.1738-0.941,0.393,0.58,1,2.49,1.4,2.49,0.6zm-3.75,1.255c-1.315-1.328-1.693-5.087-0.6185-6.161,0.3473-0.3473,1.384-0.2287,2.304,0.2636,0.9915,0.5306,2.261,0.5219,3.119-0.0214,1.174-0.7439,0.8813-1.374-1.554-3.345l-3-2.428-1.503,3.165c-1.061,2.234-2.311,3.258-4.25,3.481-1.51,0-2.75,0.6-2.75,1.1,0,1.166-5.029,1.201-6.848,0.0484-0.7416-0.47-1.188-1.701-0.9917-2.735,0.2596-1.368,1.375-1.965,4.098-2.191,2.446-0.2029,3.742-0.809,3.742-1.75,0-1.649,1.581-1.927,2.5-0.4396,0.3399,0.55,1.379,0.9715,2.309,0.9366,1.234-0.0463,1.087-0.3061-0.5417-0.9614-1.886-0.7586-2.136-1.408-1.606-4.187,0.7772-4.081,0.9812-4.323,2.565-3.047,0.7008,0.5649,2.737,1.34,4.524,1.722,1.788,0.3822,3.295,1.222,3.35,1.865,0.05482,0.6438,0.4121,0.0479,0.7938-1.324,0.9307-3.345,4.066-3.96,4.222-0.8286,0.07419,1.486,0.2724,1.737,0.5498,0.6956,0.2942-1.104,2.05-1.842,5.456-2.294,4.583-0.608,5.196-0.4441,7.022,1.877,1.638,2.083,2.235,2.309,3.297,1.247,0.7128-0.7128,1.619-2.313,2.013-3.556,0.9104-2.868,3.93-2.444,4.366,0.6137,0.2259,1.583,0.9586,2.206,2.5,2.124,1.692-0.09,1.788-0.2186,0.4304-0.5733-2.185-0.5711-2.285-2.891-0.1598-3.707,2.603-0.9989,3.54,0.3512,2.926,4.216-0.4585,2.885-0.3227,3.387,0.6524,2.412,1.863-1.863,2.831-1.487,2.831,1.102,0,3.282-1.038,3.942-3.169,2.014-0.9-0.9-1.7-1.3-1.7-0.8,0,0.4371,0.7481,1.342,1.662,2.01,2.456,1.796,0.9707,4.505-2.471,4.505-2.122,0-3.18-0.6789-4.056-2.602-1.186-2.604-2.458-2.746-7.44-0.8347-0.847,0.325-2.505-0.4794-3.843-1.864-3.12-3.2-6.86-4.2-6.86-1.7,0,0.9812-0.675,2.344-1.5,3.029-2.084,1.73-1.872,3,0.5,3,1.313,0,2,0.6667,2,1.941,0,2.413-1.623,3.511-5.5,3.722-1.65,0.0895-4.125,0.455-5.5,0.8124-1.501,0.3901-3,0.1452-3.75-0.6127zm-18.75-1.9c-0.3399-0.55-1.154-0.9931-1.809-0.9847-0.7156,0.009-0.5923,0.4022,0.309,0.9847,1.921,1.242,2.267,1.242,1.5,0zm-26.4,10.2c-1.188-2.219,0.1697-4.762,1.953-3.66,0.9575,0.5918,1.077,0.308,0.4704-1.122-0.4463-1.053-1.024-3.152-1.283-4.664-0.4208-2.451-0.1612-2.762,2.391-2.864,1.575-0.0627,5.338-0.21,8.363-0.3275,3.025-0.1174,6.947-0.5484,8.715-0.9578,2.543-0.5886,3.68-0.311,5.439,1.328,1.223,1.139,3.072,2.072,4.109,2.072,2.353,0,1.983,2.831-0.5745,4.393-1.469,0.8973-2.163,0.6807-3.66-1.143-1.921-2.339-4.481-2.943-5.498-1.296-0.3241,0.5244-3.163,0.8295-6.309,0.6779-7.47-0.3-8.21,0-8.21,3.8,0,5.074-3.875,7.564-5.895,3.789zm-6.94,14.8c0-1.375,0.227-1.938,0.5044-1.25,0.2774,0.6875,0.2774,1.812,0,2.5-0.2774,0.6875-0.5044,0.125-0.5044-1.25zm489.6-19.7c-4.812-0.1833-12.69-0.1833-17.5,0-4.812,0.1833-0.875,0.3333,8.75,0.3333s13.56-0.15,8.75-0.3333zm-27.02,5.017c-0.2165-2.075-0.3972-0.6223-0.4017,3.228-0.004,3.85,0.1727,5.548,0.3936,3.772,0.2209-1.775,0.2245-4.925,0.008-7zm27.02,10.98c-4.812-0.1833-12.69-0.1833-17.5,0-4.812,0.1833-0.875,0.3333,8.75,0.3333s13.56-0.15,8.75-0.3333zm16.09-12.85c-3.883-5.151-4.79-7.115-2.683-5.814,0.721,0.4456,0.8828,0.2739,0.4309-0.4573-1.1-1.7-2.6-0.3-2.6,2.5v2.441h-18.5-18.5v6.5,6.5h18.5,18.5v2.698c0,2.432,0.4287,2.111,4.338-3.25l4.338-5.948-3.838-5.091zm-7.9,18.5v-4.073l-18.25,0.2433-18.25,0.2433-0.2862-9.67-0.2862-9.67,5.786-0.0524c3.182-0.0288,11.52-0.007,18.54,0.0492l12.75,0.1016v-4.049c0-3.216,0.36-4.035,1.75-3.98,2.025,0.0803,13.25,14.88,13.25,17.46,0,2.621-11.23,17.4-13.25,17.43-1.386,0.0261-1.75-0.8151-1.75-4.04zm-173.2-21.6c-4.812-0.1833-12.69-0.1833-17.5,0-4.812,0.1833-0.875,0.3333,8.75,0.3333s13.56-0.15,8.75-0.3333zm-27.07,2.557c-0.3192-0.7977-0.5562-0.5608-0.6042,0.6042-0.0434,1.054,0.1929,1.645,0.5252,1.312,0.3323-0.3323,0.3678-1.195,0.0789-1.917zm0.0345,5.451c-0.2298-1.52-0.4241-0.5138-0.4316,2.236-0.007,2.75,0.1806,3.994,0.4179,2.764,0.2374-1.23,0.2435-3.48,0.0136-5zm27.03,7.992c-4.812-0.1833-12.69-0.1833-17.5,0-4.812,0.1833-0.875,0.3333,8.75,0.3333s13.56-0.15,8.75-0.3333zm16.14-12.79c-3.928-5.202-4.848-7.179-2.733-5.872,0.721,0.4456,0.8828,0.2739,0.4309-0.4573-1-1.8-2.5-0.4-2.5,2.4v2.441h-18.5-18.5v6.5,6.5h18.5,18.5v2.674c0,2.414,0.4268,2.104,4.388-3.191l4.388-5.866-3.888-5.15zm-7.8,18.6v-3.822l-17.75-0.1542c-9.762-0.0848-18.09-0.1647-18.5-0.1775-0.4125-0.0128-0.75-4.242-0.75-9.398v-9.375l2.75-0.522c1.512-0.2871,9.838-0.3778,18.5-0.2014l15.75,0.3206v-3.924c0-3.094,0.3701-3.91,1.75-3.861,1.969,0.07,13.25,15.04,13.25,17.58,0,2.544-11.28,17.29-13.25,17.33-1.367,0.0258-1.75-0.8032-1.75-3.79zm-189.2-21.9c-4.812-0.1833-12.69-0.1833-17.5,0-4.812,0.1833-0.875,0.3333,8.75,0.3333s13.56-0.15,8.75-0.3333zm0,16c-4.812-0.1833-12.69-0.1833-17.5,0-4.812,0.1833-0.875,0.3333,8.75,0.3333s13.56-0.15,8.75-0.3333zm14.42,1.26c0.3667-0.008,1.042-0.425,1.5-0.9256,0.4842-0.5289,0.3096-0.6089-0.4167-0.191-1.968,1.132-1.472-0.419,1.292-4.042,2.823-3.701,2.694-4.286-2.332-10.6-2.651-3.33-3.037-3.523-3.501-1.75-0.6,1.7-1.5,1.8-18.7,1.8h-18.1v6.5,6.5h18.09c17.22,0,18.12,0.0962,18.61,1.989,0.3092,1.182,0.9809,1.695,1.656,1.265,0.625-0.3979,1.436-0.7303,1.803-0.7388zm-6.5,7.818c-0.4-0.4-0.7-2.3-0.7-4.1v-3.392l-17.25,0.1211c-9.488,0.0666-17.83,0.0929-18.54,0.0584-0.9746-0.0475-1.218-2.311-1-9.313l0.2875-9.25,18-0.5,18-0.5,0.5-3.5c0.3473-2.431,1.019-3.5,2.2-3.5,1.68,0,13.79,14.98,13.8,17.07,0.008,1.732-12.09,17.43-13.43,17.43-0.6759,0-1.529-0.3-1.896-0.6667zm408.1-68.94c-0.3323-0.3323-1.195-0.3678-1.917-0.0789-0.7977,0.3192-0.5608,0.5562,0.6042,0.6042,1.054,0.0434,1.645-0.1929,1.312-0.5252zm-1.236,2.616c0.3503-0.5669-0.0511-0.7345-0.941-0.393-1.732,0.6648-2.049,1.382-0.611,1.382,0.5175,0,1.216-0.4448,1.552-0.9886zm-7.151,8.539c0.3709-0.9666,0.0755-1.265-0.8873-0.8952-0.7938,0.3046-1.194,0.9567-0.8901,1.449,0.7664,1.24,1.133,1.126,1.777-0.5538zm9.731,0.4491c0.5097,0,0.9267,0.375,0.9267,0.8333s0.7345,0.8333,1.632,0.8333c1.414,0,1.389-0.1782-0.1911-1.333-1.003-0.7333-2.187-1.333-2.632-1.333-0.4449,0-0.8089-0.675-0.8089-1.5,0-0.9097-0.8854-1.472-2.25-1.43-1.624,0.0507-1.832,0.2595-0.75,0.75,0.825,0.3738,1.545,1.242,1.6,1.93,0.055,0.6875,0.2197,2.038,0.366,3,0.2533,1.667,0.2878,1.667,0.7233,0,0.2515-0.9625,0.8743-1.75,1.384-1.75zm-5.171,0.5693c-0.2631-0.2631-1.074,0.5137-1.802,1.726-1.265,2.106-1.244,2.128,0.4783,0.4783,0.9912-0.9494,1.587-1.941,1.324-2.205zm-5.591,2.482c-0.9177-1.072-2.038-1.72-2.49-1.441-1.384,0.8556-0.9159,2.218,0.9284,2.7,3.128,0.8173,3.253,0.716,1.562-1.259zm12.7,1.88c0-0.55-0.4766-1-1.059-1-0.5825,0-0.7809,0.45-0.441,1s0.8165,1,1.059,1,0.441-0.45,0.441-1zm-11.08,2.359c1.003-0.8654-3.566-0.2274-4.917,0.6864-1.095,0.7413-0.6909,0.8341,1.5,0.344,1.65-0.3691,3.188-0.8328,3.417-1.03zm8.478,1.811c0.6075-0.9829-3.044-0.8542-4.041,0.1424-0.3779,0.3779,0.2614,0.687,1.421,0.687,1.159,0,2.338-0.3733,2.62-0.8295zm10.6,0.33c2.654-1.517,1.957-1.863-1.75-0.8697-1.238,0.3316-2.25,1-2.25,1.486,0,1.222,1.074,1.056,4-0.6166zm-16.4-1.229c-1.017-1.017-1.855,0.5139-1.021,1.863,0.63,1.019,0.8656,1.02,1.204,0.004,0.2316-0.6948,0.1492-1.535-0.1831-1.867zm-9.6,4.33c0-0.2425-0.45-0.7191-1-1.059s-1-0.1415-1,0.441,0.45,1.059,1,1.059,1-0.1984,1-0.441zm18,0.4c0-0.55-0.4766-1-1.059-1-0.5825,0-0.7809,0.45-0.441,1s0.8165,1,1.059,1,0.441-0.45,0.441-1zm4.75,1.206c-0.997-0.201-1.75-1.254-1.75-2.446,0-1.151-0.279-1.814-0.6201-1.473-0.341,0.341-0.3365,1.75,0.0102,3.131,0.4731,1.885,1.064,2.34,2.37,1.826,1.649-0.6494,1.649-0.7036-0.0102-1.038zm-14.8,0.7c0-0.5-0.9-0.9-2-0.9s-2-0.4242-2-0.9426,0.9-0.7693,2-0.5574c1.1,0.2118,2-0.039,2-0.5574,0-0.5-0.7-0.9-1.6-0.9-0.9182,0-1.299-0.5138-0.9258-1.25,0.3482-0.6875-0.007-0.4695-0.7899,0.4844-0.7827,0.954-1.788,1.404-2.234,1-1.391-1.259,0.7507,2.177,2.423,3.888,1.602,1.638,3.086,1.551,3.086-0.1811zm-6-0.2262c0-0.1182-1.125-0.2148-2.5-0.2148-2.479,0-3.084,0.5824-1.869,1.798,0.5207,0.5207,4.369-0.8739,4.369-1.583zm9.196,2.543c-2.059-1.068-2.695-1.076-3.353-0.0381-1.387,2.185-0.9241,3.091,0.8443,1.653,1.463-1.19,1.607-1.158,1.082,0.2446-0.5124,1.37-0.2557,1.452,1.681,0.5381l2.286-1.079-2.541-1.318zm-11.2,3c0-0.433-0.9097-0.8557-2.022-0.9395s-1.76,0.2705-1.441,0.7872c0.7025,1.137,3.463,1.258,3.463,0.1523zm6.817,5.384c-0.2-0.1-1.6-1-3.3-2l-3-1.842,2.395,2.613c1.317,1.437,2.81,2.357,3.317,2.044,0.5066-0.3131,0.7787-0.6604,0.6046-0.7718zm-5.133,1.215c-0.3192-0.7977-0.5562-0.5608-0.6042,0.6042-0.0434,1.054,0.1929,1.645,0.5252,1.312,0.3323-0.3323,0.3678-1.195,0.0789-1.917zm-5.2,2.2c0.3399-0.55,0.1415-1-0.441-1s-1.059,0.45-1.059,1,0.1984,1,0.441,1c0.2425,0,0.7191-0.45,1.059-1zm26.4-0.6153c-1.16-1.398-1.086-1.566,0.5447-1.25,1.037,0.2009,2.073,0.9278,2.302,1.615,0.594,1.784-1.26,1.546-2.846-0.3653zm-2.4,1.6c0.3399-0.55-0.057-1-0.882-1s-1.778,0.45-2.118,1c-0.3399,0.55,0.057,1,0.882,1s1.778-0.45,2.118-1zm-5.833,3.333c-1.236-1.236-0.6788-4.115,0.9151-4.726,4.927-1.891,8.04,0.6418,4.312,3.508-2.529,1.945-4.128,2.317-5.227,1.218zm17.73,2.063c0.3-0.8-0.1-1.4-0.8-1.4-0.7619,0-1.644-0.5625-1.959-1.25-0.3158-0.6875-0.3229-0.2375-0.0159,1s0.1266,2.25-0.4008,2.25c-1.82,0-2.356-5.143-0.7244-6.946,1.807-1.997,1.977-3.054,0.4896-3.054-0.5825,0-0.7809,0.45-0.441,1s0.1415,1-0.441,1-1.059-0.3881-1.059-0.8625c0-0.9982,5.682-8.323,7.169-9.242,1.282-0.7926,0.8711-1.765-1.934-4.57-1.84-1.84-2.731-2.088-4.75-1.32-3.095,1.177-3.302,2.388-0.2428,1.417,1.833-0.5819,2.037-0.4574,1.115,0.6826-1.313,1.624-0.0572,5.894,1.733,5.894,0.8286,0,0.8002,0.4271-0.1004,1.512-0.9085,1.095-1.608,1.219-2.533,0.4514-0.8897-0.7384-1.475-0.7421-1.926-0.0123-1.3,1.8-3.7,1.1-3.7-1,0-1.1-0.4696-2-1.044-2-0.574,0-2.231-1.101-3.682-2.446-1.451-1.346-3.014-2.214-3.473-1.931-1.145,0.7076,0.0141,2.377,1.65,2.377,0.7337,0,1.632,0.7756,1.995,1.724,0.6243,1.627-1.008,3.583-3.839,4.603-0.6095,0.2195-0.7897,0.7418-0.4004,1.16,0.3893,0.4187,2.172-0.4709,3.962-1.977,2.082-1.752,3.398-2.307,3.654-1.54,0.5304,1.591-5.798,6.937-8.273,6.989-1.517,0.0316-1.683,0.3073-0.75,1.241,1.946,1.946,1.441,5.589-0.8754,6.324-1.141,0.3623-1.855,0.8791-1.586,1.148,0.2694,0.2693,1.464-0.0316,2.654-0.6687s4.829-1.255,8.084-1.372c4.744-0.1714,6.024,0.1136,6.443,1.435,0.6284,1.98,5.057,1.476,5.881-0.6695zm-28.12,2.932c4.553-4.219,7.075-7.286,4.871-5.924-0.635,0.3924-1.155,0.2745-1.155-0.2622,0-0.5366,0.5625-1.177,1.25-1.422,2.117-0.756,0.0339-1.945-2.178-1.243-1.849,0.587-1.913,0.8253-0.5754,2.163,2.151,2.151,1.906,2.388-1.747,1.683-3.181-0.6143-3.212-0.5851-1.492,1.363,1.679,1.901,1.676,2.065-0.0788,3.653-2.631,2.381-5.828,2.115-6.523-0.544-0.7764-2.969-0.047-3.457,2.169-1.452,2.31,2.09,2.949,1.477,2.395-2.299-0.3825-2.606-0.6147-2.79-1.899-1.506-0.8048,0.8048-1.994,1.449-2.642,1.432-0.6482-0.0175-0.3051-0.6925,0.7626-1.5,1.902-1.439,1.899-1.468-0.1885-1.468-1.916,0-2.092,0.4575-1.757,4.568,0.36,4.418,2.021,7.799,3.546,7.216,0.4074-0.1558,2.766-2.16,5.242-4.455zm32.18,2.737c1.126-2.178,1.256-3.532,0.5043-5.25-0.9581-2.189-0.9916-2.161-0.6144,0.5193,0.3376,2.399,0.1008,2.757-1.54,2.328-1.134-0.2966-2.164,0.0809-2.482,0.9097-0.299,0.7792-0.9154,1.187-1.37,0.9061-0.4544-0.2808-1.077-0.1044-1.384,0.3921-0.8538,1.382,3.084,2.053,4.482,0.7643,0.948-0.8732,1.09-0.7314,0.6157,0.6157-0.9726,2.764,0.1202,2.04,1.788-1.185zm-34.02,3.061c-0.7732-0.8112-3.53,0.9222-2.953,1.857,0.3915,0.6335,1.107,0.545,1.963-0.2429,0.7405-0.682,1.186-1.408,0.9903-1.614zm-5.259,0.6569c-0.7176-0.7176-1.183-0.7766-1.183-0.15,0,1.335,1.183,2.517,1.85,1.85,0.2842-0.2842-0.0158-1.049-0.6667-1.7zm31.66,0.5294c-2.264-2.728-4.469-3.315-6.456-1.719-1.802,1.447-1.79,1.469,0.2568,0.4823,1.604-0.7732,2.433-0.6875,3.285,0.3396,0.627,0.7556,1.071,1.759,0.9866,2.229-0.3671,2.045,0.1881,2.513,1.596,1.345,1.181-0.9801,1.254-1.567,0.3322-2.677zm-28.9,3.7c0-0.5327-0.617-0.7318-1.371-0.4425-0.7541,0.2894-2.104-0.2069-3-1.103-1.3-1.3-1.6-1.4-1.6-0.2,0,0.7726,0.3,1.705,0.6667,2.071,1.031,1.031,5.333,0.7872,5.333-0.302zm15,1c0-0.55-0.4766-1-1.059-1-0.5825,0-0.7809,0.45-0.441,1s0.8165,1,1.059,1,0.441-0.45,0.441-1zm-8.764-0.229c-0.7945-1.593-1.155-3.185-0.8005-3.54,0.3542-0.3542,0.9036,0.3488,1.221,1.562,0.6459,2.47,0.585,2.435,2.762,1.599,0.87-0.3338,1.582-1.148,1.582-1.809s0.6319-2.066,1.404-3.122c1.366-1.868,1.46-1.853,3.467,0.5589,1.664,1.999,2.069,2.147,2.096,0.7643,0.0183-0.9432,0.9459-2.203,2.061-2.8s1.762-1.516,1.436-2.043c-0.3407-0.5513-1.24-0.3097-2.119,0.5696-1.369,1.369-1.731,1.267-3.507-0.9898-1.578-2.006-2.358-2.314-3.843-1.519-1.1,0.3-2.9,0.7-4,0.7-1.5,0-2.1,0.6-2.1,2.2,0,1.194-0.6711,2.913-1.491,3.819-1.21,1.337-1.267,2.122-0.3048,4.162,0.6526,1.383,1.702,2.514,2.331,2.514,0.791,0,0.6984-0.8952-0.2996-2.896zm17.95,1.317c0.783,1.102,0.8729,1.009,0.4092-0.4197-0.3-1-0.6-2.5-0.6-3.3,0-0.8125-0.4304-1.211-0.9563-0.8862-0.526,0.3251-0.6745,1.325-0.3301,2.223,0.4186,1.091,0.2384,1.392-0.5437,0.909-0.6435-0.3977-1.177-1.484-1.185-2.414-0.0131-1.443-0.1531-1.473-0.9546-0.2054-0.6499,1.028-0.4912,1.736,0.5153,2.3,0.8,0.4477,1.516,1.804,1.591,3.014,0.1267,2.048,0.1677,2.033,0.5908-0.2118,0.3629-1.925,0.6571-2.127,1.458-1zm3.498,1.725c-0.3192-0.7977-0.5562-0.5608-0.6042,0.6042-0.0434,1.054,0.1929,1.645,0.5252,1.312,0.3323-0.3323,0.3678-1.195,0.0789-1.917zm-17.53-2.056c-0.876-0.876-1.132-0.0762-1.055,3.293l0.1021,4.45,1.055-3.293c0.7702-2.404,0.7426-3.605-0.1021-4.45zm-3.2,6.4c0-0.4858-0.9257-1.125-2.057-1.421-1.688-0.4414-1.845-0.2829-0.8776,0.8834,1.32,1.591,2.935,1.887,2.935,0.538zm14.35,1.34c-0.3257-0.8487-0.8066-1.329-1.069-1.067-0.2621,0.2621-0.18,0.9565,0.1826,1.543,0.986,1.595,1.562,1.286,0.8862-0.4766zm-2.6-0.2c-0.0429-1.512,0.2661-3.814,0.6866-5.113,0.7112-2.199,0.6091-2.28-1.467-1.169-1.228,0.657-1.972,1.454-1.655,1.771,0.3173,0.3173,0.0758,1.181-0.5368,1.919-0.8249,0.9939-0.8073,1.342,0.0677,1.342,0.6498,0,0.9034,0.45,0.5634,1-0.3399,0.55-0.1149,1,0.5,1s0.8399,0.45,0.5,1-0.1596,1,0.4007,1,0.9837-1.238,0.9409-2.75zm-12.96,1.677c-1.517-0.9374-3.154-0.1771-2.366,1.099,0.3016,0.488,1.247,0.6193,2.1,0.2917,1.212-0.4652,1.27-0.7695,0.2657-1.39zm16.93,2.547c-0.3079-0.3079-0.867,0.2471-1.243,1.233-0.5427,1.425-0.4278,1.54,0.5598,0.5598,0.6834-0.6783,0.9907-1.485,0.6828-1.793zm-4.2,1.6c0.3399-0.55,0.1415-1-0.441-1s-1.059,0.45-1.059,1,0.1984,1,0.441,1c0.2425,0,0.7191-0.45,1.059-1zm-15.36,0c0.5375,0,0.6946-0.4573,0.3491-1.016-0.3455-0.559-1.009-0.7812-1.474-0.4938s-1.035,0.1822-1.267-0.2337c-0.2318-0.4159-0.2823-0.1882-0.112,0.5061,0.2142,0.874-0.5284,1.1-2.414,0.7346-2.268-0.4394-2.389-0.3695-0.7234,0.4177,1.1,0.52,2.599,0.7519,3.332,0.5154,0.9-0.2,1.9-0.4,2.4-0.4zm24.39,2.05c-0.3681-0.5956-1.088-0.824-1.6-0.5075-1.597,0.9869-1.021-0.5297,1.042-2.744,1.855-1.991,1.87-2.196,0.25-3.426-0.9476-0.7198-2.398-1.287-3.223-1.262-1.017,0.032-1.098,0.2095-0.25,0.5515,1.544,0.6231,1.617,3.784,0.1502,6.524-0.6049,1.13-0.6959,1.805-0.2022,1.5,0.4936-0.3051,1.538-0.1588,2.321,0.325,1.688,1.043,2.451,0.5579,1.512-0.9614zm-13.3,1.785c-0.8869-0.8869-0.7667-1.457,0.5035-2.385,1.552-1.135,1.539-1.509-0.1913-5.345-1.023-2.269-2.09-3.895-2.372-3.613-0.2814,0.2814,0.0949,1.645,0.8363,3.03,1.12,2.092,1.123,2.727,0.021,3.748-1.073,0.9946-1.209,0.8951-0.7112-0.5202,0.3387-0.9625,0.1799-1.75-0.3528-1.75s-1.003,0.3375-1.045,0.75c-0.0421,0.4125-0.2276,1.54-0.4122,2.505-0.191,0.9984,0.1037,1.483,0.6836,1.125,0.6411-0.3962,0.769,0.1587,0.3448,1.495-0.5524,1.74-0.264,2.125,1.593,2.125,1.726,0,1.989-0.2783,1.102-1.165zm6.427-1.085c-0.2774-0.6875-0.5044-0.125-0.5044,1.25s0.227,1.938,0.5044,1.25c0.2774-0.6875,0.2774-1.812,0-2.5zm6.4,3.3c0-0.5327-0.675-0.7096-1.5-0.393-0.8495,0.326-1.5,0.0232-1.5-0.698,0-0.7005-0.2701-1.004-0.6001-0.6735-0.9108,0.9108,0.5288,2.733,2.159,2.733,0.7925,0,1.441-0.4359,1.441-0.9686zm-8.371-1.38c-0.3892-2.55-1.782-2.538-2.715,0.0248-0.8532,2.344-0.234,3.384,1.596,2.682,0.8091-0.3105,1.302-1.503,1.118-2.706zm10.9,4.4c0.3399-0.55,0.1415-1-0.441-1s-1.059,0.45-1.059,1,0.1984,1,0.441,1c0.2425,0,0.7191-0.45,1.059-1zm-11.11,1.181c0.2784-0.4505-0.82-0.6244-2.441-0.3865s-2.947,0.6065-2.947,0.8191c0,0.762,4.893,0.3692,5.388-0.4326zm-6.455-1.722c0.5866,0.3625,1.067,0.2098,1.067-0.3395s-1.688-1.138-3.75-1.309c-3.327-0.2754-3.723-0.5924-3.513-2.81,0.2038-2.147,0.0909-2.253-0.7997-0.75-0.5703,0.9625-1.641,1.75-2.38,1.75-0.7388,0-1.574,0.6001-1.855,1.334-0.3642,0.9491,0.3512,1.282,2.482,1.155,1.975-0.1175,3.388,0.4551,4.155,1.683,1.057,1.695,1.267,1.716,2.345,0.2444,0.6509-0.8894,1.663-1.32,2.25-0.9579zm-17.4-0.5c-0.3399-0.55-0.1415-1,0.441-1s1.059,0.45,1.059,1-0.1984,1-0.441,1c-0.2425,0-0.7191-0.45-1.059-1zm4.092,2.225c0.1418-0.7012,0.0291-0.8138-0.2505-0.25s-1.258,1.018-2.175,1.01c-0.9712-0.009-1.241-0.3219-0.6463-0.75,1.522-1.096,3.59-6.248,2.933-7.31-1.128-1.825-3.334-0.8716-4.804,2.075-0.8231,1.65-1.134,3-0.6899,3,0.4437,0,1.052,0.9391,1.352,2.087,0.5909,2.26,3.829,2.364,4.28,0.138zm28.06,1.31c-1.018-0.7709-1.554-1.882-1.191-2.468,0.3-0.5,0.1-1-0.4-1-0.6,0-1.1,0.6-1.1,1.3,0,1.578,2.007,3.712,3.45,3.668,0.5775-0.0175,0.2174-0.6626-0.8001-1.433zm-4.7,1.3c0-0.5447-0.7118-0.7173-1.582-0.3834-0.87,0.3338-1.995,0.607-2.5,0.607s-0.9182,0.3876-0.9182,0.8613,1.125,0.6463,2.5,0.3834c1.375-0.2628,2.5-0.9236,2.5-1.468zm-9.756,1.73c0.2919-1.527-0.1232-2.981-1.071-3.75-1.309-1.063-1.443-0.9791-0.8716,0.5456,0.406,1.082,0.2811,1.558-0.3128,1.191-1.339-0.8274-1.243,0.1261,0.252,2.521,1.536,2.459,1.431,2.486,2.003-0.5072zm14.8,1.2c0-0.437-0.9-0.313-2,0.2757s-2,1.508-2,2.044c0,0.5391,0.8921,0.4162,2-0.2757,1.1-0.687,2-1.607,2-2.044zm-5.2,2.8c-0.1138-1.375-0.6069-2.5-1.096-2.5-0.4889,0-0.6157,0.7118-0.2819,1.582,0.3338,0.87,0.607,1.995,0.607,2.5s0.22,0.9182,0.4888,0.9182,0.3957-1.125,0.2819-2.5zm-16.09,0.3125c-0.3192-0.7977-0.5562-0.5608-0.6042,0.6042-0.0434,1.054,0.1929,1.645,0.5252,1.312,0.3323-0.3323,0.3678-1.195,0.0789-1.917zm10.3,2.1c0-0.55-0.45-0.7219-1-0.382s-1,1.068-1,1.618,0.45,0.7219,1,0.382,1-1.068,1-1.618zm-1.507,9.129c0.3503-0.5669-0.0511-0.7345-0.941-0.393-1.732,0.6648-2.049,1.382-0.611,1.382,0.5175,0,1.216-0.4448,1.552-0.9886zm-9,3c0.3399-0.55,0.1415-1-0.441-1s-1.059,0.45-1.059,1,0.1984,1,0.441,1c0.2425,0,0.7191-0.45,1.059-1zm7.993,1.011c0.3503-0.5669-0.0511-0.7345-0.941-0.393-1.732,0.6648-2.049,1.382-0.611,1.382,0.5175,0,1.216-0.4448,1.552-0.9886zm-4.074-1.363c-0.6006-1.565,1.075-3.671,6.426-8.073,2.39-1.966,3.74-3.582,3-3.59-1.022-0.0117-0.9851-0.2477,0.1554-0.9847,1.09-0.7044,1.142-0.9736,0.191-0.9847-0.7433-0.009-0.9965-0.5209-0.586-1.185,0.4816-0.7792,0.1844-0.9632-0.8898-0.551-1.064,0.4085-1.823-0.0437-2.231-1.33-0.4-0.9-1.1-1.8-1.6-1.8-1.248,0-1.19,1.723,0.0837,2.51,0.559,0.3455,0.7574,1.047,0.441,1.559s0.0781,0.9309,0.8767,0.9309c2.261,0,2.722,2.64,0.7698,4.406-0.9687,0.8767-2.236,1.594-2.816,1.594-1.371,0-2.374-3.829-1.194-4.558,0.4984-0.308,0.8825-1.096,0.8537-1.751-0.0289-0.655-0.7587-0.1785-1.622,1.059-0.8632,1.238-2.19,2.25-2.948,2.25-0.7579,0-1.378,0.7301-1.378,1.622,0,1.323,0.2746,1.395,1.488,0.3874,1.205-1,1.606-0.9284,2.107,0.3776,0.3404,0.8869,0.3598,2.288,0.0432,3.113-0.7822,2.038-3.638,1.908-3.638-0.1667,0-0.9167-0.3007-1.366-0.6682-0.9985s-0.0823,1.763,0.6338,3.101,1.052,3.388,0.7468,4.556c-0.446,1.706-0.2874,1.901,0.8067,0.9926,0.749-0.6216,1.154-1.673,0.8993-2.336zm3.265,4.164c-0.3192-0.7977-0.5562-0.5608-0.6042,0.6042-0.0434,1.054,0.1929,1.645,0.5252,1.312,0.3323-0.3323,0.3678-1.195,0.0789-1.917zm-2.142,1.121c1.026-1.66,0.1051-1.89-1.331-0.3326-0.7092,0.7695-0.8482,1.399-0.309,1.399s1.277-0.4799,1.64-1.067zm-4.079,2.005c-0.3609-0.5839-1.725-1.468-3.031-1.965-3.38-1.285-4.215-5.503-1.64-8.279,2.438-2.628,2.794-4.268,1.743-8.025-0.6069-2.17-0.2975-3.499,1.327-5.695,1.165-1.576,1.85-3.565,1.522-4.42-0.8683-2.263-5.112-1.928-6.415,0.5061-1.516,2.832-5.117,2.134-6.763-1.311-0.7233-1.514-2.133-2.75-3.137-2.75-1.003,0-2.437-0.7399-3.188-1.644-1.222-1.473-1.105-1.562,1.12-0.8558,2.314,0.7346,2.382,0.6629,0.9922-1.048-0.8812-1.084-0.9775-1.527-0.2351-1.081,1.671,1.004,2.863-2.151,1.376-3.639-1.4-1.4-1.6-5.8-0.3-5.8,0.5175,0,1.202,0.4223,1.521,0.9385s1.471,0.767,2.559,0.5574,1.979-0.0349,1.979,0.3883,1.35,0.5713,3,0.3291,3-0.8478,3-1.346c0-0.4981-1.046-0.643-2.324-0.3222-1.547,0.3882-2.801-0.004-3.75-1.173-0.7842-0.9659-0.9234-1.455-0.3094-1.088,0.614,0.3676,1.944-0.2467,2.957-1.365,1.812-2.003,1.798-2.026-0.9224-1.532-5.145,0.9329-8.989-6.201-5.087-9.439,1.418-1.176,1.418-1.379,0-2.172-1.782-0.9972-2.1-5.839-0.4891-7.45,0.5908-0.5908,1.091-4.06,1.112-7.71,0.0211-3.65,0.4377-6.883,0.9259-7.185,0.4882-0.3017,0.8876-2.267,0.8876-4.367,0-2.174,0.6459-4.355,1.5-5.063,0.825-0.6847,1.5-2.029,1.5-2.988,0-0.9585,0.9-2.887,2-4.285s2-3.259,2-4.135c0-0.898,0.829-1.592,1.901-1.592,2.27,0,6.099-6.02,6.099-9.589,0-2.585,3.074-4.689,3.775-2.585,0.2175,0.6524,0.8361,0.9137,1.375,0.5808,0.5387-0.3329,2.525-0.3154,4.415,0.0391,4.097,0.7686,4.638,3.644,1.345,7.149l-2.09,2.225,2.09,2.09c2.513,2.513,2.657,4.806,0.4538,7.24-1.468,1.622-1.476,1.869-0.0781,2.406,0.8569,0.3288,2.484,0.1023,3.616-0.5034,2.728-1.46,6.875-0.3342,7.639,2.073,0.3364,1.06,1.703,2.642,3.036,3.516,3.18,2.084,3.148,5.959-0.0758,8.946-1.375,1.274-2.5,2.962-2.5,3.75,0,1.755,4.684,4.976,6.028,4.145,0.5345-0.3303,0.9362,0.4385,0.8928,1.708s-0.3059,1.747-0.5833,1.059c-1.115-2.762-2.083-1.035-1.011,1.804,0.8379,2.22,1.649,2.924,2.971,2.579,1.517-0.3966,1.767,0.0502,1.51,2.696-0.2363,2.437-0.8415,3.247-2.614,3.498-1.269,0.1798-2.799,1.409-3.402,2.731-0.6024,1.322-1.868,2.649-2.812,2.949-0.944,0.2996-2.522,1.435-3.507,2.523-1.609,1.778-1.654,2.393-0.444,6.059,1.042,3.157,1.082,4.505,0.1756,5.955-1.218,1.95-0.607,7.59,0.9244,8.536,1.614,0.9974,0.8871,6.095-1.129,7.92-1.1,0.9955-2,3.074-2,4.62,0,3.029-2.304,4.88-6.074,4.88-2.894,0-4.855,2.709-4.894,6.764-0.0175,1.795-0.449,4.045-0.9588,5s-1.171,2.524-1.469,3.486c-0.6117,1.976-7.012,2.518-8.142,0.6883zm-128.3-134.6c-0.6875-0.2774-1.812-0.2774-2.5,0-0.6875,0.2774-0.125,0.5044,1.25,0.5044s1.938-0.227,1.25-0.5044zm9.75,1.269c0-0.2162-0.6984-0.661-1.552-0.9886-0.8899-0.3415-1.291-0.1738-0.941,0.393,0.5873,0.9502,2.493,1.405,2.493,0.5955zm-17.8,1.245c-0.385-0.3562-2.5-0.867-4.7-1.135-2.2-0.2682-5.34-0.7916-6.977-1.163-3.332-0.756-3.177-0.2937,0.5494,1.64,2.509,1.302,12.46,1.891,11.13,0.6589zm3.928,0.3976c1.244-1.586,1.208-1.621-0.3776-0.3776-1.666,1.306-2.195,2.128-1.372,2.128,0.2076,0,0.9952-0.7875,1.75-1.75zm-18.37,1c0.2581-0.7837-0.5521-1.25-2.172-1.25-1.68,0-2.583,0.5485-2.583,1.57,0,1.881,4.122,1.604,4.755-0.3196zm3.3,1.62c0-0.55-0.45-0.7219-1-0.382s-1,1.068-1,1.618,0.45,0.7219,1,0.382,1-1.068,1-1.618zm30,1.464c0-1.916-2.126-2.756-3.096-1.224-1.348,2.128-1.079,2.767,1.096,2.603,1.1-0.0829,2-0.7033,2-1.379zm-52.62,4.102c0.3415-0.8899,0.1738-1.291-0.393-0.941-0.5437,0.336-0.9886,1.034-0.9886,1.552,0,1.438,0.7168,1.121,1.382-0.611zm44.36-1.417c1.234-1.559,2.359-3.891,2.5-5.183,0.2156-1.98-0.1364-2.295-2.244-2.009-1.375,0.1867-3.429,1.199-4.564,2.25-2.354,2.178-5.588,2.457-8.368,0.7207-2.429-1.517-5.068,0.4037-5.068,3.69,0,3.033,1.744,4.286,6.513,4.682,5.333,0.4428,8.529-0.7382,11.23-4.151zm-40.42,3.105c-0.3182-1.217,0.4552-2.605,2.228-4,2.776-2.184,6.06-2.938,4.946-1.136-0.3399,0.55-0.1415,1,0.441,1,1.298,0,1.304-0.2246,0.0956-3.404-0.8004-2.105-0.5935-2.793,1.223-4.065,1.202-0.8421,3.098-1.538,4.213-1.546,1.577-0.0119,1.714-0.2137,0.6182-0.9075-0.7751-0.4907-2.086-0.6323-2.914-0.3148-0.9798,0.376-1.252,0.1693-0.7817-0.5925,0.434-0.7022,0.0997-1.17-0.836-1.17-0.9407,0-1.572,0.8923-1.591,2.25-0.0414,2.949-4.59,8.109-6.502,7.376-0.944-0.3623-1.467,0.0595-1.467,1.183,0,0.9604-0.6771,2.713-1.505,3.894-1.364,1.947-1.34,2.191,0.25,2.607,0.9651,0.252,1.825,0.5104,1.911,0.5742s-0.0629-0.7227-0.331-1.748zm4.6,0.99c0-0.4259-0.675-0.7743-1.5-0.7743-1.567,0-1.952,0.8814-0.8605,1.973,0.747,0.747,2.361-0.0722,2.361-1.198zm0.6384,3.392c0.3166-0.825,1.247-1.5,2.067-1.5,0.8205,0,2.753-1.35,4.294-3,3.165-3.389,3.036-3.725-0.5352-1.385-2.249,1.474-2.465,1.475-2.465,0.019,0-1.714-4.2-3.247-5.943-2.169-1.892,1.17-1.115,2.535,1.443,2.535,3.036,0,3.214,1.857,0.461,4.811-1.121,1.204-1.557,2.189-0.9686,2.189,0.5887,0,1.329-0.675,1.646-1.5zm29.28,0.8593c1.003-0.8654-3.566-0.2274-4.917,0.6864-1.095,0.7413-0.6909,0.8341,1.5,0.344,1.65-0.3691,3.188-0.8328,3.417-1.03zm-15.9,1.23c0-0.8052-0.7516-1.268-1.75-1.077-0.9625,0.1842-1.975,0.3763-2.25,0.4268-0.6929,0.1272,2.325,2.027,3.25,2.046,0.4125,0.008,0.75-0.6199,0.75-1.396zm-5.347-1.588c1.388-1.65,3.497-3.007,4.685-3.015,1.762-0.0125,1.884-0.1944,0.6611-0.9847-2.473-1.598-3.996-1.141-5,1.5-0.5228,1.375-1.637,2.5-2.475,2.5-0.8386,0-1.525,0.675-1.525,1.5,0,2.198,0.8277,1.858,3.653-1.5zm-5.153,2c0.3399-0.55,0.1415-1-0.441-1s-1.059,0.45-1.059,1,0.1984,1,0.441,1c0.2425,0,0.7191-0.45,1.059-1zm13.5,2c1.848-1.65,4.029-3,4.847-3,0.8176,0,1.258-0.2281,0.9796-0.507-0.9642-0.9642-6.826,0.7615-6.826,2.01,0,2.165-2.911,3.987-4.242,2.655-0.6367-0.6367-1.63-1.143-2.208-1.126-1.084,0.0328,2.339,2.968,3.461,2.968,0.3458,0,2.141-1.35,3.989-3zm-3.5,5c0.3399-0.55-0.0835-1-0.941-1s-1.559,0.45-1.559,1,0.4234,1,0.941,1c0.5175,0,1.219-0.45,1.559-1zm-7.771,3.396c-0.3323-0.3323-1.195-0.3678-1.917-0.0789-0.7977,0.3192-0.5608,0.5562,0.6042,0.6042,1.054,0.0434,1.645-0.1929,1.312-0.5252zm5.3,1.22c0-0.2076-0.7875-0.9952-1.75-1.75-1.586-1.244-1.621-1.208-0.3776,0.3776,1.306,1.666,2.128,2.195,2.128,1.372zm7,16.38c0-0.55,0.7875-1.032,1.75-1.07,1.484-0.0596,1.445-0.1911-0.25-0.8635-1.217-0.4827-2.288-0.3573-2.735,0.3203-1.2,1.7-1.1,2.7,0.1,2.7,0.55,0,1-0.45,1-1zm-5.655,5.457c-0.3257-0.8487-0.8066-1.329-1.069-1.067-0.2621,0.2621-0.18,0.9565,0.1826,1.543,0.986,1.595,1.562,1.286,0.8862-0.4766zm0.626,6.504c-2.371-1.5-3.652-1.035-1.544,0.5605,1.06,0.8018,2.172,1.213,2.471,0.9138,0.2992-0.2992-0.1179-0.9627-0.927-1.474zm5.588,6.507c-1.068-0.8075-2.418-1.452-3-1.433-0.5824,0.0195,0.0661,0.6785,1.441,1.465,3.239,1.852,4.028,1.836,1.559-0.0318zm-6.5,2.1c0-0.2425-0.45-0.7191-1-1.059s-1-0.1415-1,0.441,0.45,1.059,1,1.059,1-0.1984,1-0.441zm3.5-0.7821c0.5707-0.4259,0.2487-0.7529-0.75-0.7616-0.9728-0.009-1.75,0.7249-1.75,1.651,0,0.9167,0.3375,1.259,0.75,0.7616,0.4125-0.4978,1.2-1.241,1.75-1.651zm2,3.223c0.3399-0.55,0.1415-1-0.441-1s-1.059,0.45-1.059,1,0.1984,1,0.441,1c0.2425,0,0.7191-0.45,1.059-1zm15.03,2.193c-0.3079-0.3079-1.115-0.00064-1.793,0.6828-0.9803,0.9876-0.8654,1.102,0.5598,0.5598,0.9862-0.3755,1.541-0.9347,1.233-1.243zm-15.5,1.4c0-0.2162-0.6984-0.661-1.552-0.9886-0.8899-0.3415-1.291-0.1738-0.941,0.393,0.5873,0.9502,2.493,1.405,2.493,0.5955zm9.483-0.3022c-0.7594-1.464-1.124-3.076-0.8112-3.583,0.3132-0.5068-0.3861-0.4101-1.554,0.215l-2.123,1.136,2.162,2.924c2.608,3.527,4.261,3.035,2.327-0.6927zm1,5.4c0.593-0.5076,0.3086-0.6348-0.6988-0.3127-1.122,0.3589-1.917-0.1437-2.341-1.481-0.3534-1.113-0.8433-1.824-1.089-1.578-0.2454,0.2454,0.0938,1.631,0.7538,3.08,0.6599,1.448,1.464,2.299,1.787,1.891,0.3232-0.4084,1.038-1.128,1.588-1.599zm-9.5-0.7c0.5854,0,1.412,0.9396,1.837,2.088,0.7195,1.945,0.8691,1.971,2.185,0.3854,1.246-1.501,1.125-1.936-1.024-3.676-2.436-1.972-2.438-1.972-4.218,0.2254-0.9793,1.209-1.752,2.936-1.717,3.838,0.0435,1.124,0.3476,0.9322,0.9678-0.6108,0.4-1.2,1.3-2.2,1.9-2.2zm10.73,6.396c-0.3323-0.3323-1.195-0.3678-1.917-0.0789-0.7977,0.3192-0.5608,0.5562,0.6042,0.6042,1.054,0.0434,1.645-0.1929,1.312-0.5252zm2.395,1.338c-0.9876-0.9803-1.102-0.8654-0.5598,0.5598,0.3755,0.9862,0.9347,1.541,1.243,1.233,0.3079-0.3079,0.00064-1.115-0.6828-1.793zm-12.4-0.9026c-1.567-0.9682-1.909-0.4715-1.111,1.61,0.5144,1.34,0.8435,1.434,1.471,0.4195,0.4675-0.7565,0.3158-1.612-0.3602-2.029zm-4.081,2.207c-0.0677-1.657-0.5006-2.583-0.9825-2.101-0.4738,0.4738-0.5615,1.807-0.1948,2.962,0.9248,2.914,1.32,2.625,1.177-0.8615zm1.482,4.212c1.193-1.521,1.176-1.604-0.1276-0.6343-0.825,0.6136-2.175,1.366-3,1.671-1.255,0.4645-1.234,0.5682,0.1276,0.6343,0.8952,0.0434,2.245-0.7086,3-1.671zm26.73-0.3371c-1.784-1.103-2.391-0.259-1.01,1.405,0.6236,0.7514,0.8677,1.632,0.5424,1.958-0.3253,0.3253-0.2089,1.184,0.2587,1.908,0.5937,0.9194,0.9497,0.4444,1.18-1.575,0.1851-1.622-0.2413-3.245-0.971-3.696zm-14.2,4.544c0.3257-0.8487,0.3224-1.813-0.007-2.142-0.8647-0.8647-3.731,1.742-3.078,2.799,0.8535,1.381,2.432,1.045,3.085-0.6564zm-7.017,0.0431c-0.3172-0.8267-0.0286-1.502,0.643-1.505,1.984-0.008,7.097-4.574,6.395-5.71-0.9164-1.483-5.6-2.217-6.354-0.9963-0.3611,0.5844-0.1373,0.7155,0.5239,0.3069,0.7592-0.4692,1.155,0.1735,1.155,1.877,0,2.941-2.342,4.319-4.415,2.598-1.852-1.537-2.699,0.7336-1.186,3.18,1.332,2.154,4.051,2.363,3.24,0.25zm25.82,4.569c0.3164-0.512,0.118-1.214-0.441-1.559-0.559-0.3455-1.016,0.0734-1.016,0.9309,0,1.757,0.6001,2.015,1.457,0.6281zm-24.4-0.5c1.187-1.674,1.19-1.796,0.017-0.75-1.96,1.748-5.002,1.56-5.002-0.309,0-0.8575-0.4799-1.262-1.067-0.8999-0.5866,0.3625-1.697-0.1734-2.468-1.191-0.7709-1.018-1.416-1.366-1.433-0.7744-0.0453,1.533,4.101,5.148,6.468,5.64,1.1,0.2287,2.015,0.3861,2.033,0.3498,0.0181-0.0363,0.6714-0.9659,1.452-2.066zm12,2.5c0-0.55-0.4766-1-1.059-1-0.5825,0-0.7809,0.45-0.441,1s0.8165,1,1.059,1,0.441-0.45,0.441-1zm-8.166,0.1238c1.087-0.6892,1.059-0.951-0.1522-1.416-1.546-0.5931-2.682,0.0248-2.682,1.459,0,1.058,1.124,1.041,2.834-0.0428zm12.2,0.9c0-0.55-0.7875-0.9931-1.75-0.9847-1.496,0.0131-1.532,0.1563-0.25,0.9847,1.887,1.22,2,1.22,2,0zm-22.19-0.9353c-0.6647-1.064-1.549-1.725-1.965-1.468-1.182,0.7306,0.2095,3.403,1.772,3.403,1.136,0,1.172-0.3672,0.1929-1.935zm17.2,3.5c0-0.2162-0.6984-0.661-1.552-0.9886-0.8899-0.3415-1.291-0.1738-0.941,0.393,0.5873,0.9502,2.493,1.405,2.493,0.5955zm20.46,0.3239c-0.4-0.5-1.3-0.9-2.2-0.9-1.271,0-1.332,0.2783-0.3277,1.489,1.291,1.556,3.468,1.063,2.466-0.5581zm-13.5,3.3c0-1.035-2.165-3.2-3.2-3.2-0.44,0-0.8,0.9-0.8,2,0,1.333,0.6667,2,2,2,1.1,0,2-0.36,2-0.8zm-5-0.2c0-0.55-0.7875-0.9931-1.75-0.9847-1.496,0.0131-1.532,0.1563-0.25,0.9847,1.887,1.22,2,1.22,2,0zm-0.25,2.311c-0.9625-0.2515-2.538-0.2515-3.5,0-0.9625,0.2515-0.175,0.4573,1.75,0.4573s2.712-0.2058,1.75-0.4573zm-23.52-1.532c-0.6357-2.431-2.16-3.25-3.519-1.891-0.8172,0.8172-0.5947,1.121,0.8371,1.145,1.933,0.0315,1.933,0.045,0.002,1.505-1.874,1.417-1.851,1.465,0.6025,1.262,1.923-0.1592,2.434-0.6563,2.078-2.021zm33.9-0.2c2.501-1.899,2.163-2.899-0.5-1.479-2.04,1.087-2.122,1.044-0.8776-0.4648,0.7548-0.915,1.781-1.664,2.281-1.664,1.608,0,2.184,3.172,0.7419,4.086-2.206,1.397-3.587,0.9957-1.646-0.4777zm-0.951,7.642c-0.6062-1.662-0.5389-1.663,1.345-0.0137,1.53,1.339,2.254,1.465,3.17,0.55,1.837-1.837,1.409-3.497-1.064-4.12-2.165-0.5454-2.177-0.5122-0.323,0.873,2.167,1.619,1.519,3.038-0.954,2.089-0.983-0.3772-1.488-1.5-1.292-2.874,0.2471-1.735,0.9214-2.216,2.926-2.086l2.604,0.1685-2.1-4.261c-1.524-3.093-2.578-4.136-3.845-3.804-1.16,0.3034-2.036-0.3289-2.612-1.885-0.5734-1.55-1.675-2.349-3.26-2.364-1.795-0.0171-2.339-0.5234-2.173-2.023,0.1215-1.1-0.0285-1.438-0.3333-0.75-0.7915,1.785-3.388,1.548-3.388-0.309,0-0.8575,0.375-1.327,0.8333-1.044,0.4583,0.2833,0.8333-0.1427,0.8333-0.9465,0-0.8039-0.6962-1.347-1.547-1.206-0.8509,0.1406-1.709-0.5319-1.907-1.494-0.498-2.424,3.466-2.338,4.237,0.0918,0.3215,1.013,1.727,2.915,3.123,4.226,1.715,1.611,2.333,1.85,1.905,0.7355-0.3481-0.907-1.209-1.87-1.913-2.141-0.7043-0.2703-1.551-1.846-1.883-3.502-0.5477-2.739-0.8538-2.941-3.392-2.239-2.37,0.6548-2.753,1.238-2.544,3.868,0.1354,1.703-0.2021,3.374-0.75,3.712-1.969,1.217-0.938,2.362,2.05,2.277,1.676-0.0476,3.566,0.4325,4.2,1.067,0.6344,0.6344,2.012,1.154,3.06,1.154,1.35,0,1.725,0.4749,1.283,1.627-0.3433,0.8947-0.167,2.178,0.3919,2.851,0.5589,0.6734,1.112,2.384,1.229,3.801,0.1173,1.417,0.5678,2.358,1.001,2.09,0.6-0.6,1-0.1,1,0.8,0,0.9807-0.4608,1.333-1.17,0.895-0.7976-0.493-0.9568-0.1675-0.5,1.023,0.3685,0.9602,0.6699,2.384,0.6699,3.164s0.4359,1.418,0.9686,1.418,0.6814-0.7875,0.3304-1.75zm13.1,1.586c-0.2545-0.4118-1.123-0.4952-1.931-0.1854-2.036,0.7812-1.834,1.253,0.4628,1.08,1.062-0.08,1.722-0.4824,1.468-0.8942zm-8.716,1.976c-0.3192-0.7977-0.5562-0.5608-0.6042,0.6042-0.0434,1.054,0.1929,1.645,0.5252,1.312,0.3323-0.3323,0.3678-1.195,0.0789-1.917zm-46.95,0.4982c0.1951-0.5854-0.3392-1.331-1.188-1.656-1.081-0.4148-1.542,0.022-1.542,1.46,0,2.057,2.06,2.205,2.73,0.196zm53.91,1.189c1.333-1.333,1.276-1.5-0.5124-1.5-2.147,0-3.493,1.304-2.437,2.361,0.9192,0.9192,1.272,0.8162,2.949-0.8605zm6.5,2.5c0-0.55-0.45-1-1-1s-1,0.45-1,1,0.45,1,1,1,1-0.45,1-1zm-3.964,1.544c-0.6647-0.8009-0.8788-2.038-0.4757-2.75,0.5767-1.018,0.455-1.037-0.5715-0.0862-1.061,0.9823-1.066,1.495-0.0243,2.75,0.704,0.8483,1.505,1.542,1.78,1.542s-0.0438-0.6553-0.7085-1.456zm-22,1.1c0-1.055-1.919-1.499-2.49-0.5753-0.3455,0.559,0.0734,1.016,0.9309,1.016,0.9,0,1.6-0.2,1.6-0.4zm-22.5-6.6c-0.3399-0.55-0.1415-1,0.441-1s1.059,0.45,1.059,1-0.1984,1-0.441,1c-0.2425,0-0.7191-0.45-1.059-1zm4.786,6.984c-0.2899-1.109-0.8648-2.224-1.278-2.479-0.4128-0.2551-0.5922-1.823-0.3988-3.484s-0.037-3.021-0.5122-3.021c-1.284,0-1.959-3.495-1.004-5.202,0.6721-1.201,0.2152-1.428-2.381-1.181-4.317,0.4097-5.976,0.7922-7.463,1.721-2.124,1.327-1.407,2.845,1,2.118,1.532-0.4628,1.931-0.3518,1.25,0.3479-0.55,0.5652-2.125,1.258-3.5,1.54-1.375,0.2819-0.6422,0.4258,1.628,0.3198,2.974-0.1388,3.993,0.161,3.643,1.072-0.267,0.6957,0.0128,1.265,0.6216,1.265s1.136-0.7875,1.17-1.75c0.0506-1.396,0.2386-1.316,0.9299,0.3977,0.4766,1.181,1.348,2.445,1.937,2.809,0.5886,0.3637,1.07,1.561,1.07,2.661,0,1.272,0.4256,1.737,1.17,1.277,0.7772-0.4803,0.9639-0.1861,0.5562,0.8764-0.3376,0.8797-0.0765,1.818,0.5801,2.085,0.6566,0.2671,1.264,0.5212,1.35,0.5646s-0.0808-0.8281-0.3707-1.937zm-17.3-1.6c0-0.7252-0.5265-1.644-1.17-2.042-0.7866-0.4862-0.9607-0.1779-0.5314,0.941,0.3512,0.9152,0.2777,1.664-0.1634,1.664s-0.802,0.6679-0.802,1.484c0,1.123,0.3241,1.215,1.333,0.3776,0.8-0.6,1.4-1.7,1.4-2.5zm50.71,0.3708c-0.1916-2.544-3.36-2.257-4.046,0.3662-0.3126,1.195-0.3442,2.536-0.0703,2.98,0.8395,1.358,4.261-1.423,4.116-3.346zm-12.7,5.2c0-0.55-0.45-1-1-1s-1,0.45-1,1,0.45,1,1,1,1-0.45,1-1zm-12.78,0.2373c0.7035-0.8477,1.73-2.935,2.281-4.639,0.8033-2.485,1.628-3.159,4.169-3.405,2.605-0.2526,3.405,0.1754,4.5,2.408,2.947,6.007,6.896,5.422,8.284-1.229,0.5714-2.737,0.3474-3.205-1.789-3.741-1.454-0.3648-2.684-1.577-3.04-2.995-0.6331-2.522-4.089-4.358-9.123-4.845-2.671-0.2586-3.034-0.6941-3.306-3.968-0.2965-3.563-0.4099-3.661-3.623-3.14-1.88,0.305-3.605,0.0714-3.983-0.5392-0.3817-0.6176-1.948-0.8211-3.669-0.4768-2.255,0.451-3.346,0.1318-4.379-1.281-0.7568-1.035-1.682-1.576-2.056-1.202-0.9688,0.9688,2.5,5.271,5.758,7.14,2.171,1.246,2.8,2.393,2.954,5.38,0.3739,7.287,0.5414,8.815,1.256,11.45,0.3957,1.461,0.247,3.54-0.3304,4.619s-0.8301,2.181-0.5615,2.45c0.9018,0.9018,5.367-0.4314,6.659-1.988zm17.6,3.6c-0.151-0.755,0.641-1.156,2-1.012,1.238,0.131,2.25-0.2065,2.25-0.75s-0.7875-0.9951-1.75-1.004c-1.496-0.0131-1.532-0.1563-0.25-0.9847,0.825-0.5332,1.019-0.9763,0.4303-0.9847-0.5883-0.008-2.023,1.081-3.189,2.422-1.922,2.21-1.844,2.741,0.5084,3.484,0.1375,0.0434,0.1375-0.4836,0-1.171zm-21.8,2.8c0-0.7935,0.847-1.374,1.89-1.295,1.104,0.0832,1.683,0.681,1.393,1.438-0.7,1.8-3.3,1.7-3.3-0.1zm4.352,0.0229c1.058-1.615,2.219-2.249,3.502-1.913,1.056,0.2761,2.213,0.0276,2.571-0.5523,0.3584-0.5799,1.872-0.9048,3.363-0.722s1.945,0.1395,1.009-0.0961c-0.9365-0.2356-1.966-1.258-2.288-2.273-0.3219-1.014-1.243-2.097-2.047-2.405-1.736-0.666-1.923,0.5148-0.3347,2.103,1.129,1.129-1.124,1.987-9.918,3.779-3.905,0.7957-6.536-0.8992-5.664-3.647,0.8734-2.752-0.8605-2.241-2.201,0.649-0.6358,1.371-0.7483,2.492-0.25,2.492,0.4982,0,0.9059,0.4766,0.9059,1.059,0,0.5825-0.5195,0.7379-1.155,0.3455-0.7484-0.4625-0.8816-0.272-0.3787,0.5417,0.4742,0.7673,1.861,1.038,3.567,0.697,1.8-0.3599,3.221-0.0404,4.001,0.8992,1.753,2.112,3.514,1.795,5.317-0.9574zm-20.22,5.723c0.9326-1.15,0.9718-1.451,0.1224-0.941-1.32,0.7932-1.742-0.5414-0.5486-1.735,0.3858-0.3857,0.7904-2.435,0.8993-4.553,0.1642-3.194-0.288-4.211-2.648-5.956-1.991-1.472-3.059-1.76-3.554-0.9591-0.4298,0.6955-0.2659,0.872,0.4175,0.4497,0.6804-0.4205,1.377,0.3064,1.761,1.839,0.3498,1.394,1.038,2.286,1.529,1.982,1.142-0.706,1.124-0.1714-0.1036,3.058-0.7248,1.906-0.6894,2.432,0.1297,1.926,0.6886-0.4256,0.9304-0.1562,0.622,0.6928-0.2776,0.7641-1.011,1.277-1.63,1.139-0.6188-0.1375-1.125,0.6359-1.125,1.719,0,1.425,0.4593,1.792,1.664,1.33,1.119-0.4294,1.427-0.2553,0.941,0.5314-1.09,1.764-0.0395,1.404,1.523-0.522zm-5.66,1.656c-1.59-1.757-1.68-2.486-0.655-5.321,1.75-4.839,1.468-6.586-1.227-7.61-2.65-1.007-4.175-4.296-2.909-6.274,0.4431-0.6924,0.8097-3.044,0.8146-5.226,0.007-3.228,0.4745-4.198,2.509-5.211,3.371-1.678,6-5.067,6-7.733,0-1.204,0.54-2.729,1.2-3.389,0.9333-0.9333,0.9333-1.467,0-2.4-0.66-0.66-1.2-1.92-1.2-2.799,0-1.252,0.7943-1.506,3.661-1.172l3.661,0.4274-2.161-3.496c-2.337-3.781-2.795-7.25-1.096-8.3,0.7024-0.4341,0.5102-1.272-0.5641-2.459-1.202-1.328-1.461-2.81-0.9872-5.651,1.053-6.316,1.298-6.752,2.998-5.341,1.068,0.8866,1.488,0.9114,1.488,0.0879,0-0.631-1.074-1.556-2.387-2.055-2.175-0.827-2.391-1.49-2.425-7.463-0.0208-3.605,0.3672-6.805,0.8622-7.111,0.495-0.3059,0.6251-2.562,0.2892-5.013-0.6-3.6-0.4-4.4,1-4.4,0.8951,0,2.19,0.9,2.876,2,0.687,1.1,2.153,1.948,3.258,1.884,1.702-0.0983,1.74-0.1863,0.2472-0.5757-0.9692-0.2528-1.503-0.8788-1.187-1.391,0.3166-0.5123-0.125-1.2-0.9814-1.529-1.371-0.5262-1.334-0.9132,0.3122-3.243,2.881-4.077,1.005-7.819-3.621-7.223-1.886,0.2432-5.261-1.835-5.261-3.239,0-0.6851-1.35-1.755-3-2.378-2.244-0.8468-3-1.77-3-3.66,0-1.39-0.45-2.806-1-3.146-0.55-0.3399-1-1.488-1-2.55,0-2.142-5.176-7.553-8.116-8.487-2.65-0.8411-2.446-5.76,0.3665-8.822,1.238-1.348,2.83-3.168,3.539-4.045,0.7092-0.8774,2.397-1.595,3.75-1.595,1.924,0,2.461-0.5183,2.461-2.378,0-3.54,2.326-4.971,6.739-4.146,2.069,0.3866,4.318,1.163,4.998,1.725,0.6804,0.5622,2.348,0.7434,3.706,0.4026s4.501-0.076,6.986,0.5884c4.171,1.115,4.696,1.039,6.859-0.992,2.276-2.139,6.643-2.936,8.1-1.48,0.3962,0.3962,2.193,0.5934,3.993,0.4383,4.319-0.3721,6.382,1.961,5.013,5.672-0.6105,1.654-0.6385,3.632-0.0737,5.199,0.7472,2.073,0.337,3.38-2.275,7.25-1.752,2.597-3.76,4.721-4.46,4.721-0.7008,0-2.067,0.8763-3.036,1.947-1.361,1.504-3.061,1.941-7.465,1.92-4.294-0.0205-6.604,0.5482-9.35,2.303-2.006,1.281-3.666,2.907-3.69,3.612-0.0233,0.7052-1.055,1.689-2.292,2.187-1.724,0.6929-1.841,0.9192-0.5,0.9678,0.9625,0.0349,1.75,0.4993,1.75,1.032s0.6405,0.7228,1.423,0.4224c0.836-0.3208,1.956,0.4142,2.715,1.781,1.21,2.182,1.394,2.661,1.752,4.578,0.0772,0.4125,0.5834,0.075,1.125-0.75,0.8753-1.333,1.097-1.333,1.998,0,0.5572,0.825,0.7311,2.4,0.3865,3.5s-0.8486,3.697-1.12,5.772c-0.3027,2.313-1.226,4.164-2.386,4.785-1.041,0.5572-1.893,2.022-1.893,3.255s-0.6685,3.197-1.486,4.363c-1.322,1.888-1.313,2.187,0.0818,2.723,0.8621,0.3308,2.891,0.6015,4.509,0.6015,2.85,0,2.894,0.0721,1.415,2.33-1.672,2.552-1.161,3.854,1.162,2.962,1.183-0.4539,1.221-0.7342,0.1861-1.374-0.9267-0.5727-0.4733-1.118,1.579-1.898,3.884-1.477,5.37-0.0225,3.915,3.832l-1.066,2.825,4.102-0.7633c2.256-0.4198,4.496-0.3808,4.978,0.0866,0.4966,0.4821-0.1034,2.872-1.387,5.522-2.014,4.159-2.554,4.614-4.922,4.14-1.463-0.2927-3.314-0.1185-4.114,0.387-1.085,0.6863-1.121,0.923-0.1439,0.9344,0.72,0.008,1.031,0.4653,0.691,1.015-0.3399,0.55-0.0933,1,0.548,1,0.653,0,0.8986-0.6968,0.5583-1.584-0.4008-1.044-0.1819-1.385,0.643-1.001,0.6879,0.3206,2.064,0.8673,3.057,1.215,0.9992,0.3496,1.572,1.244,1.281,2.001-0.2888,0.7527-0.0893,1.369,0.4434,1.369s0.9686-0.45,0.9686-1c0-1.816,2.177-1.039,2.701,0.9646,0.2826,1.081,2.04,2.865,3.906,3.966,2.176,1.284,3.393,2.769,3.393,4.141,0,2.555,4.096,7.801,7.824,10.02,2.253,1.342,2.676,2.286,2.676,5.989,0,4.096,0.2048,4.434,3,4.946,2.973,0.5441,2.978,0.555,0.5172,1.228-1.366,0.3734-2.918,0.2436-3.45-0.2884-1.594-1.594-2.568-1.104-2.552,1.283,0.0106,1.553,0.2687,1.851,0.833,0.9612,0.6226-0.9813,1.486-1.035,3.617-0.2245,1.54,0.5853,3.556,0.8239,4.482,0.5302,1.459-0.4629,1.655,0.2326,1.478,5.225-0.1123,3.167-0.2539,6.157-0.3146,6.644-0.0607,0.4873-2.073,0.6169-4.472,0.2881-3.693-0.5062-4.689-0.2491-6.5,1.679-1.176,1.252-2.139,2.965-2.139,3.807,0,3.27-5.957,6.337-7.49,3.856-0.3475-0.5622-3.265-0.7778-6.803-0.5026-4.805,0.3736-6.556,0.9612-7.807,2.619-1.322,1.753-2.223,2.012-5.006,1.441-1.867-0.3828-4.833-0.6705-6.591-0.6394-4.113,0.0727-6.493-2.972-5.301-6.783,1.886-6.032,1.961-10.23,0.1935-10.86-0.9326-0.3298-2.497-1.289-3.477-2.131-1.597-1.373-1.939-1.374-3.308-0.004-2.059,2.059-0.8468,6.683,2.106,8.029,1.894,0.863,2.339,2.022,2.753,7.17,0.5,7.3-1,10.8-4.7,10.8-1.277,0-3.151-0.9163-4.165-2.036zm-160-170c1.594-3.083,1.131-3.7-1.5-2-0.9487,0.6131-1.052,0.975-0.2814,0.9847,0.6702,0.008,0.9606,0.6877,0.6452,1.51-0.3154,0.8218-0.9762,1.245-1.469,0.941-0.4924-0.3043-0.8952-0.0767-0.8952,0.5057,0,2.096,1.98,0.9984,3.5-1.941zm0,6c0.3399-0.55,1.068-1,1.618-1s0.7219,0.45,0.382,1-1.068,1-1.618,1-0.7219-0.45-0.382-1zm3.25,7.453c2.11-0.6596,1.392-2.235-1.5-3.291-2.23-0.8146-2.363-1.019-0.7-1.083,1.128-0.0434,2.515,0.3858,3.083,0.9538,1.531,1.53,4.244,0.1059,5.901-3.098,0.8028-1.552,2.693-3.414,4.201-4.136,1.508-0.7226,2.902-2.151,3.1-3.175,0.2301-1.195-0.0497-1.609-0.7816-1.156-0.627,0.3875-1.769,0.1825-2.538-0.4555-1.138-0.9448-1.59-0.4449-2.436,2.695-0.5709,2.12-1.61,4.637-2.309,5.593-1.18,1.614-1.437,1.622-3.592,0.1121-1.277-0.8943-2.711-2.59-3.186-3.769-0.6543-1.621-0.8802-1.732-0.9282-0.4534-0.0456,1.216-1.114,1.777-3.813,2-3.321,0.2749-3.719,0.5911-3.475,2.767,0.1511,1.351,0.8261,2.807,1.5,3.235,0.8538,0.5424,0.6947,0.783-0.5248,0.7937-1.732,0.0152-2.381,2.051-1.072,3.36,0.6137,0.6137,5.926,0.0915,9.072-0.8917zm-8.75,5.547c1.213-0.7839,1.069-0.9723-0.75-0.9847-1.238-0.008-2.25,0.4347-2.25,0.9847,0,1.253,1.061,1.253,3,0zm-6,9.941c0-3.512,0.2659-3.941,2.441-3.941,3.518,0,4.056-1.682,0.5703-1.781-2.019-0.0574-3.103,0.4931-3.513,1.785-0.326,1.027-1.169,2.009-1.873,2.182-0.9415,0.2312-1.051,1.183-0.4152,3.6,1.127,4.282,2.789,3.183,2.789-1.845zm-1,8.666c0-0.2162,0.675-0.652,1.5-0.9686s1.5-0.1397,1.5,0.393-0.675,0.9686-1.5,0.9686-1.5-0.1769-1.5-0.393zm1.5,1.2c2.728-0.4561,2.537-3.231-0.25-3.627-1.238-0.1758-2.25,0.1617-2.25,0.75,0,2.166-0.174,2.604-1.705,4.296-0.8593,0.9495-1.952,1.485-2.429,1.191-1.028-0.6356-1.17,0.9453-0.1742,1.941,0.3807,0.3807,1.618-0.4125,2.75-1.763s2.958-2.605,4.058-2.789zm-6.396,7.897c-1.283-1.283-2.585-0.2915-1.635,1.246,0.3681,0.5956,1.127,0.7997,1.687,0.4537,0.683-0.4221,0.6658-0.9815-0.0524-1.7zm0.9,3.8c0-0.152-0.8663-0.5029-1.925-0.7798-1.314-0.3437-1.764-0.0834-1.417,0.8202,0.4058,1.058,3.342,1.022,3.342-0.0404zm-7.618,5.938c0.3415-0.8899,0.1738-1.291-0.393-0.941-0.5437,0.336-0.9886,1.034-0.9886,1.552,0,1.438,0.7168,1.121,1.382-0.611zm-1.744,10.25c0.3-0.4,0-0.7-0.7-0.7-0.8507,0-0.4778-0.9188,1.02-2.513,1.779-1.894,2.078-2.797,1.211-3.663-0.8661-0.8661-1.399-0.493-2.162,1.513-0.6363,1.674-1.765,2.663-3.037,2.663-2.245,0-2.598,1.027-0.9275,2.697,1.161,1.161,3.379,1.16,4.54-0.002zm-2.251,4.023c-1.038-0.5579-2.733-1.892-3.767-2.965-1.04-1.078-2.157-1.526-2.5-1.002-0.3408,0.5215-1.295,1.205-2.12,1.519-1.212,0.4614-1.171,0.5862,0.2148,0.6499,0.9432,0.0434,2.157,0.9045,2.697,1.914,0.7348,1.373,1.784,1.717,4.172,1.366,2.815-0.4132,2.969-0.5874,1.303-1.483zm-14.4,4.5c0-0.4125-1.125-0.75-2.5-0.75s-2.5,0.3375-2.5,0.75,1.125,0.75,2.5,0.75,2.5-0.3375,2.5-0.75zm18.49,1.761c0.3503-0.5669-0.0511-0.7345-0.941-0.393-1.732,0.6648-2.049,1.382-0.611,1.382,0.5175,0,1.216-0.4448,1.552-0.9886zm-12.3-0.2c-0.9333-0.9333-1.467-0.9333-2.4,0-0.9333,0.9333-0.6667,1.2,1.2,1.2s2.133-0.2667,1.2-1.2zm12.8,4.2c0-0.55-0.45-1-1-1s-1,0.45-1,1,0.45,1,1,1,1-0.45,1-1zm-10,4.617c0-0.2108-0.9006-0.6189-2.001-0.9067-1.101-0.2878-1.749-0.1153-1.441,0.3834,0.5382,0.8709,3.442,1.312,3.442,0.5234zm5.493,6.395c0.3503-0.5669-0.0511-0.7345-0.941-0.393-1.732,0.6648-2.049,1.382-0.611,1.382,0.5175,0,1.216-0.4448,1.552-0.9886zm8.946,2.088c0.3025-0.4894-0.1726-1.167-1.056-1.506-1.147-0.4402-1.44-0.1846-1.026,0.8952,0.3552,0.9257,0.0108,1.511-0.8886,1.511-0.8077,0-1.469,0.4658-1.469,1.035,0,1.147,3.468-0.3659,4.439-1.936zm-0.6508,3.764c-0.2496-0.749-0.7029-0.2956-1.057,1.057-0.435,1.663-0.3048,2.054,0.4372,1.312,0.5811-0.5811,0.8598-1.647,0.6193-2.368zm-22.1,1.949c-0.3192-0.7977-0.5562-0.5608-0.6042,0.6042-0.0434,1.054,0.1929,1.645,0.5252,1.312,0.3323-0.3323,0.3678-1.195,0.0789-1.917zm6.858,6.121c1.076-1.741-0.1495-2.11-1.521-0.4576-0.7888,0.9504-0.8646,1.524-0.2015,1.524,0.5849,0,1.36-0.4799,1.723-1.067zm44.43,3.106c0.8091-0.5117,1.166-1.235,0.7931-1.608-0.9151-0.9151-3.764,0.2488-3.764,1.538,0,1.27,1.035,1.295,2.971,0.0704zm-0.3273,2.167c-1.021-0.2164-2.293,0.0429-2.826,0.5762-0.6261,0.6261,0.0314,0.7655,1.856,0.3935,2.093-0.4267,2.344-0.6782,0.9696-0.9696zm6.9,2.8c0.3399-0.55,0.1415-1-0.441-1s-1.059,0.45-1.059,1,0.1984,1,0.441,1c0.2425,0,0.7191-0.45,1.059-1zm-35.5,1.617c0-0.2109-1.111-0.5959-2.47-0.8556-1.358-0.2597-2.232-0.0871-1.941,0.3834,0.5121,0.8286,4.411,1.246,4.411,0.4721zm3.729,0.7793c-0.3323-0.3323-1.195-0.3678-1.917-0.0789-0.7977,0.3192-0.5608,0.5562,0.6042,0.6042,1.054,0.0434,1.645-0.1929,1.312-0.5252zm29.62,0.061c-0.3257-0.8487-0.8066-1.329-1.069-1.067-0.2621,0.2621-0.18,0.9565,0.1826,1.543,0.986,1.595,1.562,1.286,0.8862-0.4766zm-46.14-0.2206c-0.8586-0.2862-0.905-0.9353-0.1656-2.317,0.565-1.056,0.8022-1.919,0.5272-1.919s-0.9866,0.9093-1.581,2.021c-1.227,2.292-0.4246,4.367,1.281,3.313,0.8285-0.512,0.8121-0.8059-0.0611-1.097zm27.19,2.505c2.042-2.042,0.7798-3.907-1.306-1.929-0.9784,0.9281-1.599,2.025-1.378,2.438,0.5674,1.063,1.24,0.9354,2.684-0.5089zm-5.407-2.453c-1.09-1.699-1.118-1.697-0.5708,0.0441,0.3165,1.007,0.611,2.357,0.6545,3,0.057,0.8432,0.2158,0.8309,0.5708-0.0441,0.2705-0.6668-0.024-2.017-0.6544-3zm16.73,4.108c-0.3323-0.3323-1.195-0.3678-1.917-0.0789-0.7977,0.3192-0.5608,0.5562,0.6042,0.6042,1.054,0.0434,1.645-0.1929,1.312-0.5252zm-38.33,0.4375c-0.3-0.4-0.1-0.8,0.5-0.8,0.55,0,1.278,0.45,1.618,1,0.3399,0.55,1.379,0.9715,2.309,0.9366,1.194-0.0447,1.011-0.3362-0.6233-0.9915-1.273-0.5105-2.038-1.376-1.699-1.923,0.3931-0.6361-0.1964-0.6948-1.634-0.163-2.637,0.9756-3.566,2.808-1.424,2.808,0.8161,0,1.252-0.375,0.9688-0.8333zm42.56,2.978c2.386-2.561,2.455-3.094,0.789-6.075-1.832-3.277-3.009-3.812-4.808-2.184-0.8822,0.7984-1.905,1.151-2.273,0.7828-0.3679-0.3679-0.6688-0.1173-0.6688,0.5568s-0.399,0.9791-0.8867,0.6777c-1.278-0.7896-3.246,1.92-2.607,3.587,0.2977,0.7758,1.768,1.474,3.267,1.552l2.726,0.1419-2.75-1.009c-3.776-1.386-3.454-2.241,1.326-3.517,3.832-1.023,4.141-0.9436,5.173,1.321,0.8125,1.783,0.7929,2.713-0.0756,3.581-0.8972,0.8972-1.173,0.8769-1.173-0.0861,0-0.6925-0.45-0.9809-1-0.641-1.278,0.7896-1.308,3.5-0.039,3.5,0.5286,0,1.879-0.9848,3-2.189zm-15.46,1.549c1.209-0.4641,1.334-0.8443,0.4537-1.388-0.6666-0.412-0.8731-1.297-0.4588-1.968,0.5801-0.9386,0.9758-0.9069,1.722,0.1382,0.7591,1.062,0.8574,1.004,0.4532-0.2714-0.2839-0.8955,0.0111-2.239,0.6557-2.985,0.6445-0.7463,0.0179-0.3511-1.393,0.8782-1.41,1.229-3.058,2.235-3.662,2.235-0.876,0-1.022,1.557-0.3505,3.75,0.1217,0.3975,0.7921,0.2964,2.579-0.3892zm-23.16,3.096c-0.3257-0.8487-0.8066-1.329-1.069-1.067-0.2621,0.2621-0.18,0.9565,0.1826,1.543,0.986,1.595,1.562,1.286,0.8862-0.4766zm40.06-2.382c-0.7277-0.7277-3.265,3.348-2.677,4.3,0.3046,0.4929,1.128-0.1765,1.83-1.487,0.7016-1.311,1.083-2.576,0.8472-2.812zm-34.45-0.6296c-1.9-2.1-5-1.8-5,0.6,0,1.467,0.6667,2,2.5,2,1.662,0,2.546,0.5863,2.636,1.75,0.0869,1.116,0.2957,0.9152,0.5768-0.555,0.2423-1.268-0.0991-2.955-0.7586-3.75zm39,5.1c0-0.825-0.675-1.5-1.5-1.5-2.602,0-1.759,1.971,1.25,2.921,0.1375,0.0434,0.25-0.596,0.25-1.421zm-15.68,0.8489c0.3581-0.3581-0.1294-1.295-1.083-2.082-1.492-1.23-1.507-1.36-0.1063-0.927,0.8955,0.2769,2.133-0.001,2.75-0.6184,0.8292-0.8292,1.435-0.8088,2.322,0.0781,0.66,0.66,1.646,1.2,2.191,1.2,0.5451,0,0.1176-0.6402-0.95-1.423-1.182-0.8663-3.115-1.206-4.941-0.8678-4.04,0.7474-5.096,1.867-3.535,3.748,1.382,1.665,2.328,1.917,3.353,0.8913zm-21.3,2.3c0-0.2108-0.9006-0.6189-2.001-0.9067-1.101-0.2878-1.749-0.1153-1.441,0.3834,0.5382,0.8709,3.442,1.312,3.442,0.5234zm32.35-0.1598c-0.3257-0.8487-0.8066-1.329-1.069-1.067-0.2621,0.2621-0.18,0.9565,0.1826,1.543,0.986,1.595,1.562,1.286,0.8862-0.4766zm-2.958,2.948c-0.6297-2.509-0.792-2.608-1.425-0.868-0.3929,1.08-0.2559,2.537,0.3045,3.238,1.478,1.848,1.936,0.8789,1.121-2.37zm19.58,3.191c0.0173-0.4977-0.7847-0.1664-1.782,0.7364-1.138,1.03-2.165,1.29-2.758,0.6966-0.592-0.592-1.502-0.5926-2.436-0.002-1.186,0.75-1.019,0.9462,0.8174,0.9584,1.507,0.01,2.058,0.422,1.585,1.186-0.398,0.644,0.4613,0.3065,1.91-0.75,1.448-1.056,2.647-2.328,2.665-2.826zm-12,4.1c0-0.2425-0.45-0.7191-1-1.059s-1-0.1415-1,0.441,0.45,1.059,1,1.059,1-0.1984,1-0.441zm-4.015,0.191c-0.012-1.757-0.2167-1.932-0.934-0.7978-0.5053,0.7987-0.6968,1.811-0.4257,2.25,0.8674,1.403,1.375,0.8608,1.36-1.452zm-13,2.2c0-0.55-0.45-1-1-1s-1,0.45-1,1,0.45,1,1,1,1-0.45,1-1zm39.18-1.632c0.8786-3.391-0.2457-8.555-1.989-9.136-0.6886-0.2295-1.225,0.5908-1.266,1.935-0.0661,2.196-0.121,2.215-0.9297,0.3333-0.7022-1.634-0.8695-1.36-0.9144,1.5-0.0398,2.532,0.2022,3.093,0.8753,2.029,1.076-1.702,1.526-1.39,2.482,1.721,0.7118,2.316-0.9266,3.279-1.702,1-0.2339-0.6875-0.6367,0.1667-0.8952,1.898-0.4209,2.819-0.2586,3.07,1.554,2.399,1.113-0.4119,2.366-2.068,2.784-3.68zm-25.84,5.183c0.3733-0.9727,0.0755-1.265-0.9057-0.8881-2.13,0.8172-4.664-1.682-4.058-4.002,0.2846-1.088-0.2777-2.989-1.249-4.225-1.674-2.128-1.826-2.151-2.901-0.4304-0.8896,1.425-0.8209,1.936,0.319,2.373,0.7991,0.3066,1.453,0.0317,1.453-0.6111,0-0.8581,0.2957-0.8729,1.113-0.0557,1.706,1.706-0.0168,3.528-2.7,2.855-1.945-0.4881-2.485-0.1301-3.02,2.002-0.4805,1.914-1.143,2.468-2.524,2.107-1.03-0.2693-1.62-0.0815-1.312,0.4172,0.9832,1.591,3.919,0.9748,5.21-1.093,1.592-2.549,4.268-2.579,4.928-0.0562,0.2796,1.069,1.475,2.133,2.656,2.364s2.212,0.4813,2.291,0.5562c0.0787,0.0749,0.3932-0.5159,0.6991-1.313zm34.6,1.5c0-1.676-1.774-2.092-2.364-0.5533-0.3483,0.9077,0.003,1.494,0.8952,1.494,0.8077,0,1.469-0.4234,1.469-0.941zm-4.4-0.1c0-2.786-5.734-3.138-8.439-0.5186-1.142,1.106-0.7608,1.296,2.313,1.151,2.024-0.0952,4.214,0.1667,4.867,0.5819s1.203,0.7619,1.223,0.7703c0.0197,0.008,0.0357-0.8847,0.0357-1.985zm6.4,4.6c0-0.2162-0.6984-0.661-1.552-0.9886-0.8899-0.3415-1.291-0.1738-0.941,0.393,0.5873,0.9502,2.493,1.405,2.493,0.5955zm-39.32-1.794c-0.3192-0.7977-0.5562-0.5608-0.6042,0.6042-0.0434,1.054,0.1929,1.645,0.5252,1.312,0.3323-0.3323,0.3678-1.195,0.0789-1.917zm-4.075-2.239c-0.3-1.4-1.1-2.6-1.6-2.6-0.5907,0-0.5635,1.033,0.0711,2.702l1.027,2.702-2.207-1.952-2.207-1.952,1.803,2.801c2.127,3.304,4.102,2.208,3.114-1.728zm47.4,6c0-1.055-1.919-1.499-2.49-0.5753-0.3455,0.559,0.0734,1.016,0.9309,1.016s1.559-0.1984,1.559-0.441zm-1,3.382c0-1.132-0.4223-1.798-0.9385-1.479s-1.403-0.2169-1.97-1.191c-0.5671-0.9741-1.045-1.406-1.061-0.9591-0.0281,0.7492,3.152,5.585,3.72,5.657,0.1375,0.0173,0.25-0.8951,0.25-2.028zm-39.86,0.2713c-0.7214-0.2405-1.787,0.0382-2.368,0.6193-0.7421,0.7421-0.3516,0.8722,1.312,0.4372,1.352-0.3536,1.806-0.8069,1.057-1.057zm-10.34,0.144c-0.2914-1.375-0.5429-1.123-0.9696,0.9696-0.372,1.825-0.2327,2.482,0.3935,1.856,0.5333-0.5333,0.7926-1.805,0.5762-2.826zm53.2,3.6c0-0.55-0.1984-1-0.441-1-0.2425,0-0.7191,0.45-1.059,1s-0.1415,1,0.441,1,1.059-0.45,1.059-1zm-46.55,0.884c1.769-0.1001,1.802-0.1803,0.2415-0.5846-2.808-0.7276-1.781-4.729,1.308-5.098,1.375-0.164,3.616-1.144,4.979-2.177,2.151-1.63,2.222-1.856,0.5383-1.702-1.259,0.1149-2.036-0.5252-2.211-1.823-0.1489-1.1-0.0161-1.438,0.295-0.75,0.6403,1.415,3.399,1.717,3.399,0.3724,0-1.445-2.834-3.343-3.956-2.65-0.4,0.2-0.9,1.4-0.9,2.4,0,3.2-1.1,5-3.1,5-1,0-1.9-0.6-1.9-1.4,0-0.915-0.8245-1.204-2.515-0.8806-2.527,0.4831-4.523,2.242-2.544,2.242,0.5825,0,1.111,1.238,1.175,2.75,0.0877,2.078,0.2335,2.262,0.5971,0.75,0.5313-2.209,2.302-4.518,2.263-2.95-0.0131,0.5225-0.4281,2.693-0.9223,4.822-0.6642,2.863-0.6058,3.58,0.2239,2.75,0.6172-0.6172,2.045-1.174,3.172-1.238zm-5.105,4.366c0.2549-0.4125-0.5755-0.75-1.845-0.75s-2.1,0.3375-1.845,0.75c0.2549,0.4125,1.085,0.75,1.845,0.75,0.7601,0,1.591-0.3375,1.845-0.75zm58.7,3.6c0-1.132-0.4304-1.793-0.9563-1.468-0.526,0.3251-0.7028,1.252-0.393,2.059,0.7932,2.067,1.349,1.824,1.349-0.591zm-6.118,9.309c-0.3402-2.155,0.2764-2.423,1.587-0.6911,1.532,2.026,1.686,1.739,1.907-3.559,0.0688-1.65-0.2014-3-0.6002-3-0.3989,0-0.2975-1.125,0.2252-2.5,0.7635-2.008,0.6419-2.5-0.6184-2.5-0.8629,0-1.796-0.8689-2.074-1.931-0.291-1.113-1.079-1.71-1.861-1.41-1.007,0.3863-0.7426,1.089,1.025,2.727,2.276,2.109,2.313,2.348,0.8367,5.396-0.8496,1.754-1.942,2.944-2.427,2.644-1.334-0.8247-1.056,2.999,0.3181,4.373,1.385,1.385,1.849,1.509,1.682,0.45zm-3.9,1.8c-1.109-1.109-2-3.333-2-4.992,0-1.909,0.724-3.444,2-4.241,2.624-1.639,2.533-3.417-0.25-4.882-2.834-1.492-3.715-2.809-3.735-5.578-0.0223-3.196-3.637-8.814-6.515-10.13-1.369-0.6237-3.84-0.8638-5.492-0.5335-1.784,0.3569-3.613,0.0946-4.505-0.6464-1.699-1.41-2.032-6.557-0.4862-7.512,0.559-0.3455,0.7574-1.047,0.441-1.559-0.9017-1.459-4.44-1.091-6.172,0.6414-0.9612,0.9612-2.457,1.35-3.849,1.001-2.581-0.6478-5.436,0.179-5.436,1.574,0,0.5134,0.9466,2.214,2.104,3.779,2.409,3.258,1.898,6.621-1.152,7.589-1.071,0.3398-2.235,1.825-2.587,3.301-0.8413,3.526-2.22,5.183-4.313,5.183-0.9368,0-2.76,1.125-4.052,2.5s-3.37,2.5-4.618,2.5c-4.176,0-6.172-5.813-3.28-9.552,0.4476-0.5786,0.5726-1.974,0.2779-3.101-0.2956-1.13,0.1225-2.707,0.9327-3.517,1.85-1.85,0.4142-4.83-2.328-4.83-4.343,0-4.921-7.254-0.6843-8.592,2.603-0.8224,5.002-3.915,5.701-7.351,0.3238-1.592,1.389-2.677,3-3.058,2.28-0.5391,2.329-0.6556,0.5604-1.335-1.303-0.5006-2.22-0.2398-2.8,0.796-1.271,2.272-6.466,1.964-7.763-0.4594-0.6195-1.158-2.094-2-3.5-2-2.709,0-4.121-2.024-5.27-7.557-0.722-3.475-1.005-3.698-5.16-4.072-2.418-0.2178-4.885-0.7951-5.483-1.283-0.6638-0.5416-1.589-0.342-2.377,0.5128-1.053,1.143-1.053,1.401,0,1.406,0.7092,0.003,2.567,0.6726,4.129,1.487,2.015,1.051,3.375,1.194,4.684,0.4938,1.015-0.543,2.099-0.9872,2.41-0.9872,1.189,0,0.495,4.656-1.015,6.812-1.533,2.188-1.501,2.242,1.062,1.777,2.233-0.4049,2.595-0.1543,2.331,1.614-0.1718,1.151-0.9874,2.406-1.812,2.79-0.825,0.3832-2.506,1.217-3.736,1.852-3.207,1.657-5.044,1.435-6.996-0.8446-0.9418-1.1-2.299-2-3.015-2-0.7164,0-1.725-1.112-2.242-2.472-0.5772-1.518-2.015-2.708-3.725-3.084-4.9-1-5.3-1.3-5.3-3.3,0-1.319,0.4846-1.814,1.423-1.454,0.7985,0.3064,1.879-0.3052,2.461-1.393,0.8341-1.558,0.5681-2.381-1.354-4.187-1.316-1.236-2.682-3.963-3.036-6.06-0.3543-2.097-1.286-4.059-2.069-4.36-0.8-0.2-1.4-1.5-1.4-2.7,0-2.478-2.719-5.316-6.455-6.737-1.559-0.5928-2.495-1.957-2.88-4.198-0.3135-1.826-0.878-4.854-1.254-6.729-0.5991-2.985-0.4647-3.325,1.079-2.733,0.97,0.3722,2.376,0.1687,3.124-0.4524,0.7483-0.621,2.047-0.8659,2.885-0.5441,1.634,0.627,6.501-1.191,6.501-2.428,0-0.4102-0.8928-0.5124-1.984-0.227-2.767,0.7235-6.688-0.4097-7.346-2.123-0.8-2.5,1.3-8.8,2.9-8.8,0.7992,0,1.453,0.675,1.453,1.5,0,0.9034,0.9251,1.5,2.326,1.5,1.279,0,3.36,1.101,4.624,2.447s3.255,2.584,4.424,2.751c1.667,0.2386,2.081,0.928,1.918,3.195-0.2337,3.253,1.478,6.108,3.663,6.108,0.8002,0,1.713,1.092,2.028,2.426s1.123,2.609,1.795,2.833c1.949,0.6495,1.415-2.275-0.7776-4.259-1.1-0.9955-2-2.589-2-3.54,0-2.307-2.488-8.138-3.178-7.448-0.8,0.9-5.7-1.4-5.7-2.7,0-0.7063-0.9278-1.864-2.062-2.572-1.425-0.8898-1.966-2.118-1.75-3.974,0.2783-2.397,0.9048-2.801,5.812-3.747,5.471-1.055,5.499-1.079,5.266-4.516-0.3598-5.322,0.529-7.956,2.685-7.956,2.871,0,5.974-4.941,5.304-8.446-0.4463-2.335-0.0194-3.331,2.179-5.083,2.597-2.071,2.675-2.377,1.553-6.119-1.573-5.251-0.999-8.74,1.513-9.189,1.1-0.1966,3.238-1.523,4.75-2.947,2.43-2.288,2.75-3.317,2.75-8.831,0-3.659,0.522-6.788,1.262-7.563,0.6939-0.7268,1.822-2.586,2.506-4.131,1.089-2.46,1.71-2.771,4.988-2.5,3.216,0.2663,3.89,0.7603,4.776,3.504,1.169,3.617,2.466,3.278,4.57-1.194,1.143-2.43,2.122-3.059,5.148-3.31,3.162-0.2623,3.911,0.0724,4.87,2.176,1.701,3.734,0.3927,7.259-3.154,8.495-1.997,0.696-3.404,2.093-4.09,4.059-0.5748,1.649-2.02,3.306-3.211,3.682-1.192,0.3764-2.735,1.492-3.429,2.478-0.6946,0.9868-2.72,1.935-4.5,2.107-2.95,0.2846-3.264,0.644-3.546,4.047-0.3039,3.668-3.479,7.323-5.354,6.164-1.501-0.9276-0.8796,4.32,0.663,5.601,2.993,2.484,1.216,8-2.578,8-2.622,0-4.343,2.844-4.384,7.244-0.0265,2.815-0.5652,4.289-1.788,4.892-0.9625,0.4749-2.538,1.26-3.5,1.746-1.383,0.697-1.686,1.921-1.445,5.832,0.2186,3.545-0.1361,5.316-1.25,6.24-1.741,1.445-2.093,5.596-0.5552,6.546,0.55,0.3399,1,1.739,1,3.109,0,3.218,2.469,7.974,4.556,8.775,1.334,0.5117,1.509,1.51,0.9618,5.485-0.5389,3.918-0.3633,4.977,0.9068,5.464,0.8663,0.3324,1.575,1.453,1.575,2.491,0,1.962-5.501,7.176-7.57,7.176-1.684,0-3.181-2.088-3.584-5-0.2315-1.674-1.425-2.996-3.61-4-2.019-0.9277-3.481-2.454-3.834-4-1.041-4.568-1.326-5-3.3-5-1.078,0-2.622-0.6624-3.432-1.472-1.296-1.296-1.618-1.296-2.694,0-1,0.8-2.3,1.5-3.2,1.5-1.8,0-4.1,1.8-4.1,3.2,0,0.4594,0.8408,0.3852,1.869-0.1648,2.18-1.167,3.229-0.487,2.436,1.578-0.4349,1.133,0.0204,1.308,2.069,0.7938,2.522-0.6331,2.626-0.4931,2.626,3.533,0,2.909,0.3826,4.064,1.25,3.776,0.6875-0.2289,1.389-1.279,1.559-2.333,0.6927-4.304,1.094-4.586,3.429-2.41,1.244,1.159,2.318,2.532,2.387,3.05,0.2974,2.243,0.4525,2.369,1.289,1.047,1.104-1.744,4.086-0.715,4.086,1.41,0,0.8673-1.149,2.726-2.554,4.131-3.102,3.102-2.857,5.966,0.4784,5.593,1.288-0.144,3.02,0.3005,3.848,0.9878,0.8282,0.6873,2.568,1.11,3.867,0.9403,1.299-0.1702,2.361,0.1587,2.361,0.7308s0.675,0.7812,1.5,0.4646,1.5-1.202,1.5-1.969c0-2.063,3.704-1.689,6,0.607,1.1,1.1,2,1.55,2,1,0-1.721,2.827-1.09,3.362,0.75,0.361,1.242,0.4548,1.129,0.3233-0.3922-0.2066-2.391,2.894-6.358,4.97-6.358,0.7398,0,1.352,0.7875,1.36,1.75,0.0108,1.281,0.3536,1.08,1.28-0.75,1.821-3.6,6.704-3.49,8.469,0.191,0.7094,1.48,2.229,2.989,3.378,3.354,1.704,0.5408,1.991,1.241,1.559,3.809-0.2909,1.731-0.8765,4.046-1.301,5.146-0.6581,1.704-0.5462,1.816,0.7569,0.7587,0.8411-0.6827,1.825-0.9452,2.187-0.5833,1.148,1.148,0.7113,4.036-0.7996,5.289-0.9559,0.7934-1.26,2.2-0.8822,4.087,0.5017,2.508,0.112,3.15-3.042,5.012-1.99,1.174-3.618,2.54-3.618,3.036,0,1.197,1.726,1.154,2.477-0.0616,0.3273-0.5295,2.57-0.9231,4.984-0.8747,4.167,0.0836,12.78-3.124,14.09-5.249,0.8554-1.384,5.053-1.093,6.324,0.4389,0.6173,0.7438,1.409,4.095,1.759,7.447,0.6195,5.927,0.7223,6.103,3.743,6.398,2.242,0.2188,3.471,1.068,4.418,3.053,0.7213,1.512,1.705,2.75,2.186,2.75,1.821,0,4.017,3.252,4.017,5.949,0,1.543,0.675,3.366,1.5,4.051,0.825,0.6847,1.5,1.72,1.5,2.301,0,0.5811,1.575,2.499,3.5,4.262,3.809,3.489,4.319,5.475,2,7.793-0.825,0.825-1.5,2.587-1.5,3.916,0,5.133-6.261,7.466-10,3.726zm-260.5-82c0.3503-0.5669-0.05106-0.7345-0.941-0.393-1.73,0.7-2.05,1.4-0.61,1.4,0.5175,0,1.216-0.4448,1.552-0.9886zm-14.81,1.801c-0.3192-0.7977-0.5562-0.5608-0.6042,0.6042-0.04342,1.054,0.1929,1.645,0.5252,1.312,0.3323-0.3323,0.3678-1.195,0.07895-1.917zm7.317,0.6875c1.864-1.375,3.096-2.5,2.739-2.5-0.3574,0-2.308,1.125-4.334,2.5s-3.259,2.5-2.739,2.5c0.5199,0,2.47-1.125,4.334-2.5zm5,6.941c0-0.8575-0.4573-1.276-1.016-0.9309-0.559,0.3455-0.7574,1.047-0.441,1.559,0.8572,1.387,1.457,1.128,1.457-0.6281zm-10.27,0.9548c-0.3323-0.3323-1.195-0.3678-1.917-0.0789-0.7977,0.3192-0.5608,0.5562,0.6042,0.6042,1.054,0.0434,1.645-0.1929,1.312-0.5252zm11.05,4.509c0.4338-2.253-2.535-1.949-3.128,0.3197-0.3568,1.365-0.03212,1.802,1.165,1.572,0.9131-0.1758,1.796-1.027,1.963-1.892zm-5.78,3.1c0-0.55-0.45-1-1-1s-1,0.45-1,1,0.45,1,1,1,1-0.45,1-1zm0.05996,18.76c-1.105-1.026-1.25-0.9573-0.7853,0.371,0.313,0.8955,0.1558,2.135-0.3492,2.754-0.5051,0.619-0.1517,0.452,0.7853-0.371,1.426-1.253,1.483-1.701,0.3492-2.754zm41.14,8c-0.9333-0.9333-1.467-0.9333-2.4,0-0.9333,0.9333-0.6667,1.2,1.2,1.2s2.133-0.2667,1.2-1.2zm-43.96-0.1517c0.6372,0.3938,0.7768,0.1878,0.3455-0.5101-0.8509-1.377-2.621-0.5501-2.506,1.171,0.05651,0.8524,0.2229,0.8339,0.5854-0.0652,0.2786-0.6909,0.9876-0.9589,1.576-0.5955zm38.76,1.4c0-0.4672-0.662-0.7522-1.471-0.6335-2.331,0.3421-2.633,1.174-0.486,1.335,1.08,0.1,1.96-0.2,1.96-0.7zm-37.11,0.8565c0.7298-1.649,1.053-3.272,0.7177-3.607-0.34-0.4-0.61,0.1-0.61,1.1,0,1.003-1.224,2.146-2.939,2.743-1.781,0.621-2.741,1.542-2.435,2.337,0.8177,2.131,3.835,0.6508,5.266-2.583zm6.11,3c0-0.55-0.45-0.7219-1-0.382s-1,1.068-1,1.618,0.45,0.7219,1,0.382,1-1.068,1-1.618zm-8,3.072c1.113-0.7531,0.7903-0.8502-1.25-0.3763-1.73,0.4-2.75,0.2-2.75-0.5,0-0.6-0.51-1.1-1.12-1.1-0.7755,0-0.7377,0.4636,0.1224,1.5,1.447,1.744,2.9,1.876,5,0.4543zm8.493,1.057c0.3615-0.585-0.08164-0.7228-1.086-0.3375-1.065,0.4086-2.197-0.0338-3.042-1.188-0.7398-1.012-1.62-1.564-1.956-1.228-0.9281,0.9281,1.862,3.662,3.782,3.705,0.93,0.0209,1.966-0.4068,2.302-0.9505zm38.51,1.5c0-0.2425-0.45-0.7191-1-1.059s-1-0.1415-1,0.441,0.45,1.059,1,1.059,1-0.1984,1-0.441zm-47.27,2.4c-0.17-2.2-1.73-2.8-1.73-0.7,0,1.2,0.89,2.7,1.6,2.7,0.1492,0,0.2034-0.9,0.1205-2zm-3.001,4.02c0.08204-1.089-0.2736-2.242-0.7902-2.561-0.7281-0.45-0.7322,1.853-0.0077,4.291,0.2551,0.8583,0.6708-0.0432,0.7979-1.73zm47.99-1.237c0.1838-2.292,0.1668-3.968-0.03778-3.725-1.139,1.355-3.395,6.885-2.612,6.4,0.51-0.4,0.93,0.2,0.93,1.1,0,3.369,1.389,0.2758,1.718-3.825zm-35.72,0.7c0-1.375,0.3876-2.5,0.8613-2.5s0.6463,1.125,0.3834,2.5c-0.2628,1.375-0.6504,2.5-0.8613,2.5-0.21,0-0.38-1.1-0.38-2.5zm4.012,2.055c-0.4286-1.9-0.527-3.708-0.2187-4.016,0.3083-0.3083-0.3954-1.451-1.564-2.54-1.24-1.155-2.379-1.567-2.736-0.9894-0.3365,0.5444-0.04519,0.9898,0.6473,0.9898,0.9792,0,0.9924,0.2667,0.05902,1.2-1.86,1.86-1.424,4.873,1.05,7.262,2.951,2.849,3.716,2.321,2.762-1.906zm31.42,4.558c0.3013-0.4875-0.3729-1.127-1.498-1.421-1.678-0.4388-1.834-0.2794-0.8663,0.8863,1.381,1.664,1.632,1.721,2.364,0.535zm-17.8,0.8c0.07406-0.825,0.1866-2.27,0.25-3.211,0.06344-0.9411,1.07-2.601,2.238-3.688l2.122-1.977-2.122,0.555c-1.618,0.4232-2.104,0.1116-2.043-1.312,0.04758-1.125,0.2849-1.353,0.5972-0.5749,0.4236,1.056,0.8028,1.056,2.075,0,0.856-0.7105,1.712-1.179,1.903-1.042,0.1905,0.1375,1.584,0.2051,3.096,0.1503l2.74-0.2-2.5-0.8c-1.745-0.5588-1.958-0.8308-0.7062-0.9003,0.9866-0.0548,1.665-0.6622,1.507-1.35-0.1579-0.6875,0.1599-1.25,0.7062-1.25s0.9403,0.5048,0.8757,1.122c-0.06705,0.64,0.7284,0.9005,1.852,0.6066,1.095-0.2864,2.362,0.1036,2.852,0.8783,0.6961,1.099,0.8856,1.114,0.8976,0.072,0.0084-0.7268-0.6856-2.022-1.542-2.879-0.8566-0.8566-1.351-2.096-1.098-2.754,0.2791-0.7274-0.3846-1.128-1.692-1.023-1.183,0.0958-2.519-0.3202-2.967-0.9244-0.4727-0.6367-0.595-0.2577-0.2909,0.9015,0.5335,2.034-3.92,8.307-5.076,7.151-1.18-1.3-4.32,1.3-4.32,3.5,0,1.246-0.5339,2.799-1.186,3.451-1.89,1.89-2.134,5.551-0.3242,4.856,0.83-0.4,1.51-0.2,1.51,0.3,0,0.4945-1.012,1.117-2.25,1.382-1.983,0.4259-1.953,0.4639,0.25,0.3196,1.412-0.0925,2.559-0.8168,2.635-1.664zm-10.63,3.6c0-0.2162-0.6984-0.661-1.552-0.9886-0.8899-0.3415-1.291-0.1738-0.941,0.393,0.58,1,2.49,1.4,2.49,0.6zm56.03,22.55c1.178-0.3894,1.234-0.1975,0.2796,0.9594-1.3,1.577-0.6017,3.21,1.571,3.672,1.009,0.2143,1.185-0.3207,0.6565-2-0.3967-1.261-0.9561-3.536-1.243-5.055-0.6404-3.39-1.918-4.293-3.829-2.706-0.7978,0.6621-2.562,0.9912-3.921,0.7314s-2.625-0.0103-2.813,0.5545c-0.1882,0.5647-0.9201-0.3683-1.626-2.073-0.7063-1.705-1.821-3.306-2.478-3.558-1.394-0.535-6.975,4.184-7.949,6.721-0.9213,2.401-4.102,1.575-4.494-1.167-0.34-1.2-0.92-2.2-1.47-2.2-0.54,0-0.71-0.4-0.37-1,0.3399-0.55-0.07495-1-0.9219-1s-1.798-1.03-2.114-2.289c-0.7986-3.182,1.112-7.708,3.262-7.726,1.354-0.0117,1.458-0.2159,0.4409-0.8608-1.083-0.6862-1.048-0.9554,0.1854-1.429,0.8356-0.3206,1.738-0.0458,2.005,0.6108,0.2956,0.7266,0.5166,0.5872,0.5646-0.3562,0.1-1.8-1.82-3.9-3.62-3.9-0.7711,0-1.3,1.193-1.3,2.933,0,1.999-0.6026,3.124-1.892,3.533-2.105,0.668-3.601,4.525-1.764,4.55,0.7399,0.01,0.676,0.3198-0.1775,0.8608-1.074,0.6808-1.025,0.964,0.25,1.453,0.87,0.3,1.58,1.5,1.58,2.6,0,2.2,5.55,8,7.6,8,0.6351,0,1.715-0.675,2.4-1.5,0.6847-0.825,2.626-1.5,4.314-1.5,2.9,0,2.962-0.0787,1.128-1.433-1.498-1.105-1.671-1.707-0.7583-2.633,1.387-1.407,4.657-0.4535,4.106,1.198-0.2074,0.6223,0.7328,2.396,2.089,3.942,1.911,2.178,2.863,2.599,4.228,1.868,3.055-1.635,3.863-1.084,3.382,2.307-0.3611,2.543-0.2953,2.722,0.3026,0.8241,0.4202-1.334,1.427-2.645,2.236-2.913zm1.702,6.234c-0.3323-0.3323-1.195-0.3678-1.917-0.0789-0.7977,0.3192-0.5608,0.5562,0.6042,0.6042,1.054,0.0434,1.645-0.1929,1.312-0.5252zm-6.074,0.7754c-0.9-1-1.6-2.4-1.6-3,0-0.7-0.7-1.2-1.5-1.2-0.825,0-2.4-0.9-3.5-2s-3.064-2-4.365-2-3.509,0.9-4.908,2c-3.298,2.594-3.573,2.559-8.53-1.087-2.82-2.1-4.2-3.8-4.2-5.4,0-1.348-1.034-2.976-2.5-3.937-3.92-2.569-3.221-7.629,1.248-9.024,3.081-0.9615,3.964-5.093,1.853-8.668-1.528-2.586-1.541-3.115-0.144-5.816,1.645-3.182,0.5848-5.044-1.465-2.574-0.69,0.8-2.06,1.5-3.05,1.5-2.28,0-5.95,4.6-5.95,7.4,0,3.1-1.88,4.6-5.77,4.6-1.851,0-4.278,0.4883-5.393,1.085-3.33,1.782-6.502,0.3625-7.221-3.233-0.3491-1.746-1.532-3.802-2.628-4.57-1.09-0.8-1.99-2.5-1.99-3.8,0-2.901-2.269-2.423-5.702,1.201-2.575,2.717-4.542,2.938-6.726,0.7531-1.96-1.96-1.981-3.399-0.0858-6.105,1.314-1.876,1.314-2.187,0-2.691-2.422-0.9294-1.831-6.216,0.9379-8.394,3.098-2.437,4.541-8.931,2.186-9.835-0.94-0.5-1.61-1.9-1.61-3.4,0-3.569,0.9914-4.45,2.583-2.294,1.145,1.551,1.292,1.417,1.384-1.266,0.1901-5.554,0.1173-6.988-0.5102-10.05-0.5343-2.608-0.2499-3.222,1.959-4.229,1.95-0.9,2.59-1.9,2.59-4.2,0-2.095,0.7534-3.492,2.5-4.636,2.68-1.7,3.37-4.4,1.15-4.4-2.13,0-4.65,3.4-4.65,6.3,0,2-0.6192,2.808-2.516,3.284-1.384,0.3473-3.414,0.3968-4.511,0.1099s-3.304-0.0274-4.904,0.5765c-2.236,0.8439-3.275,0.7945-4.489-0.2133-1.77-1.5-2.17-7.1-0.51-7.1,0.5967,0,0.7992,0.8449,0.4593,1.916-0.3344,1.054-0.1449,2.202,0.4212,2.552,0.5758,0.3559,0.804,0.0493,0.5181-0.6959-0.521-1.358,2.161-2.068,7.788-2.062,2.184,0.002,2.524-0.2734,1.645-1.333-0.788-0.9495-1.637-1.053-2.938-0.3567-2.78,1.5-3.46,1.2-3.46-1.4,0-1.322,0.3857-2.166,0.8571-1.875,0.4714,0.2914,0.5737-0.3632,0.2273-1.455-0.9422-2.969,0.3717-5.511,2.553-4.94,1.259,0.3294,1.867-0.0491,1.877-1.169,0.01-1.4,0.14-1.4,0.98-0.1,0.5332,0.825,1.033,1.162,1.11,0.75,0.07717-0.4125,0.2528-1.2,0.3903-1.75s0.3062-1.45,0.375-2c0.1661-1.328,2.832-1.283,3.664,0.063,0.3613,0.5847-0.0621,1.858-0.941,2.829-1.78,2-2.15,5.1-0.6,5.1,0.55,0,1-0.4981,1-1.107,0-0.6088,0.675-0.848,1.5-0.5314,1.011,0.3878,1.5-0.0474,1.5-1.334,0-2.629,2.057-3.671,3.459-1.752,0.7864,1.075,1.617,1.289,2.598,0.6681,0.7933-0.502,1.729-0.9195,2.079-0.928,1.214-0.0292,1.624,6.492,0.4964,7.901-0.9417,1.177-0.6688,1.3,1.617,0.731,2.549-0.6348,2.75-0.4616,2.75,2.366,0,1.993-0.6069,3.274-1.75,3.696-2.387,0.8806-3.217,2.297-3.235,5.523-0.01156,2.062-0.6189,2.882-2.479,3.349-2.767,0.6945-4.311,4.045-2.635,5.72,1.685,1.685,1.319,3.836-1.087,6.398-1.687,1.796-1.916,2.599-1,3.514,1.263,1.263,1.607,5.033,0.5555,6.085-0.3472,0.3472-0.7265,2.199-0.8428,4.115-0.1943,3.2,0.03509,3.508,2.815,3.785,2.377,0.2369,3.191,0.9192,3.79,3.178,0.4198,1.582,1.723,3.771,2.896,4.863,1.477,1.376,1.954,2.698,1.552,4.301-0.6572,2.618,1.879,5.875,3.752,4.816,3.07-1.8,4.67-3.9,4.67-6.4,0-3.1,1.65-5,4.34-5,2.451,0,4.583-2.755,4.644-6,0.07221-3.831,1.088-4.65,6.673-5.375,4.034-0.5237,5.504-0.3224,6.75,0.924,2.089,2.089,2.014,4.03-0.2408,6.285-1.779,1.779-1.771,1.862,0.25,2.75,2.275,0.9998,3.295,4.82,1.794,6.721-1.293,1.637-0.7739,10.31,0.7252,12.12,1.924,2.318,0.8565,5.921-2.185,7.374-3.675,1.756-3.48,4.546,0.4925,7.061l3.242,2.053,2.562-2.455c3.281-3.143,6.39-3.118,9.166,0.0755,1.934,2.224,2.721,2.452,6.502,1.885,2.712-0.4066,4.819-0.2162,5.7,0.515,1.963,1.629,3.147,12.69,1.563,14.6-1.696,2.043-6.333,1.846-8.324-0.3544z"/>
</svg>
