<?xml version="1.0" encoding="UTF-8" standalone="no"?>
<!-- Created with Inkscape (http://www.inkscape.org/) -->
<svg xmlns:rdf="http://www.w3.org/1999/02/22-rdf-syntax-ns#" xmlns="http://www.w3.org/2000/svg" version="1.1" xmlns:cc="http://creativecommons.org/ns#" xmlns:dc="http://purl.org/dc/elements/1.1/" viewBox="0 0 473.3 241.2">
 <metadata>
  <rdf:RDF>
   <cc:Work rdf:about="">
    <dc:format>image/svg+xml</dc:format>
    <dc:type rdf:resource="http://purl.org/dc/dcmitype/StillImage"/>
    <dc:title/>
   </cc:Work>
  </rdf:RDF>
 </metadata>
 <path fill="#000" d="m0.6563,240.5c-0.981-0.981-0.8134-27.12,0.1779-27.74,0.4645-0.2871,9.164-0.5745,19.33-0.6387,26.92-0.1699,30.52-0.6055,31.71-3.843,0.6869-1.872,0.9817-2.094,1.038-0.7812,0.04718,1.096,0.5819,1.599,1.329,1.251,0.6875-0.3205,1.99-0.8481,2.895-1.172,3.122-1.119-0.2904-9.352-3.895-9.396-2.154-0.0264-1.364,1.976,1.25,3.167,1.531,0.6975,2.486,1.949,2.465,3.229-0.03513,2.072-0.04586,2.071-1.25-0.0912-0.9858-1.77-1.57-1.982-3.102-1.124-1.38,0.7731-1.699,0.7526-1.187-0.0764,0.3984-0.6446-0.08156-1.378-1.113-1.699-0.9974-0.3113-2.541-0.9493-3.43-1.418-0.8889-0.4685-3.24-0.4856-5.225-0.038s-9.583,0.9297-16.88,1.071c-7.301,0.1416-15.75,0.304-18.78,0.361l-5.5,0.1036v-17.5c0-9.625,0.2988-18.62,0.664-20,0.3652-1.375,0.7027,1.612,0.75,6.639l0.08595,9.139,3.544,0.6648c1.949,0.3656,4.424,0.3854,5.5,0.0439s1.956-0.1931,1.956,0.3299c0,1.366-3.821,2.17-7.149,1.504l-2.851-0.5703v8.616,8.616l10.5-0.0641,10.5-0.0641,0.07028-4.177c0.09433-5.606,1.393-8.969,2.455-6.36,0.4175,1.025,0.2463,2.311-0.3927,2.95-2.015,2.015-1.429,6.623,0.768,6.048,2.103-0.5499,3.272-4.449,1.95-6.501-0.466-0.7231-0.6059-2.467-0.3111-3.875,0.6836-3.265-2.062-5.891-6.662-6.371-9.113-0.9507-11.46-2.957-4.777-4.086l4.101-0.6928-3.601-2.968c-3.202-2.639-5.17-5.91-2.601-4.322,0.5672,0.3505,1-0.4896,1-1.941,0-1.407-0.5271-2.559-1.171-2.559-0.6442,0-2.07-0.7875-3.17-1.75-1.909-1.672-1.969-1.669-1.328,0.0836,0.4505,1.232,0.2603,1.697-0.5804,1.417-2.103-0.701-1.445-3.281,0.7493-2.937,1.1,0.1725,2.879,0.3061,3.954,0.2968,3.396-0.0294,4.282,1.543,3.557,6.315-0.6194,4.081-0.4849,4.49,1.657,5.027,3.88,0.9737,3.195,5.313-0.9186,5.824-2.808,0.3484-2.669,0.4251,1.014,0.5634,4.667,0.1752,10.85,3.579,11.58,6.376,0.2471,0.9437,0.09041,1.619-0.3482,1.5-0.4386-0.1187-0.7974,0.2342-0.7974,0.7842s0.405,0.8875,0.9,0.75,0.9,1.55,0.9,3.75c0,3.333,0.3333,4,2,4,2.126,0,3.097-8.204,1.115-9.429-0.4866-0.3007-1.08-1.879-1.319-3.506-0.2389-1.628-0.05757-2.727,0.4029-2.442,0.4605,0.2846,2.475-0.4949,4.477-1.732,2.937-1.815,5.396-2.308,12.73-2.552,34.66-1.152,37.61-1.43,36.54-3.442-0.7019-1.312-0.6861-1.897,0.05131-1.897,0.5866,0,1.347,0.7315,1.69,1.626,0.5422,1.413,1.865,1.534,10.12,0.9289,7.374-0.5413,9.679-0.402,10.33,0.6244,1.18,1.86,1.073,8.577-0.148,9.331-2.136,1.32,0.1946,2.324,3.07,1.321,1.655-0.577,4.458-0.83,6.228-0.5621,1.794,0.2714,4.466-0.15,6.036-0.9519,1.55-0.7914,3.35-1.222,4-0.9571,0.6726,0.2741,0.4807,0.5158-0.4454,0.5607-0.8952,0.0434-2.188,0.754-2.872,1.579-0.6999,0.8434-3.052,1.552-5.372,1.618-2.27,0.0651-5.478,0.4762-7.128,0.9137-1.754,0.4649,0.3237,0.5584,5,0.225,9.097-0.6487,8.099-0.6227,15.92-0.4145,6.057,0.1613,7.041,1.49,1.281,1.729-20.39,0.8483-25.7,1.634-25.58,3.788,0.1026,1.894,0.1719,1.922,0.6013,0.2456,0.3881-1.516,0.6578-1.616,1.347-0.5014,0.8453,1.368,25.05,1.596,30.44,0.2869,1.542-0.3746,1.656-0.2762,0.5,0.4294-1.452,0.8862-18.6,2.388-28.23,2.472-4.378,0.0384-4.686,0.2056-4.169,2.266,0.307,1.223,0.0717,2.525-0.5228,2.892-0.5946,0.3675-1.081,1.441-1.081,2.386,0,1.397-0.7935,1.666-4.25,1.444-3.242-0.2088-3.776-0.0538-2.25,0.6533,2.524,1.17-3.871,1.558-25.74,1.564-17.14,0.004-20.55-0.8293-7.507-1.835,4.538-0.3498,10.28-0.8248,12.75-1.056,2.475-0.2309,8.55-0.5406,13.5-0.6881,11.97-0.3568,11.5-0.0579,11.5-7.381v-6.249l-10.34-0.5277c-6.948-0.3546-11.29-1.07-13.25-2.18l-2.91-1.653,4,0.5075c2.2,0.2791,7.407,0.8045,11.57,1.168,12.97,1.13,16.23-3.418,3.919-5.458l-5.491-0.9095,6.5-0.2799,6.5-0.2799-5.5-0.674-5.5-0.674,4.5-0.3001c2.475-0.165,5.25-0.3001,6.166-0.3002,1.059-0.00009,1.459-0.5386,1.099-1.478-0.4399-1.146-1.599-1.332-5.166-0.8288-2.529,0.3571-13.37,1.075-24.1,1.596-22.01,1.068-33.68,1.916-36.25,2.632-2.623,0.7318-2.107,2.353,0.75,2.353,1.375,0,2.5,0.3407,2.5,0.7572s-2.082,0.5916-4.628,0.3892c-3.214-0.2556-4.418-0.0287-3.941,0.7428,0.3776,0.611,3.022,1.184,5.878,1.274l5.191,0.163-5.5,0.7435c-3.59,0.4852-0.5502,0.6438,8.75,0.4566,7.838-0.1578,14.25,0.1093,14.25,0.5935,0,0.9381-1.801,1.068-17.5,1.259l-10,0.1217-0.2975,4-0.2975,4,9.487-0.3172,9.487-0.3172,1.56,3.018c0.8582,1.66,1.56,4.185,1.56,5.613,0,2.859-5.071,8.792-5.756,6.735-0.296-0.888-0.8034-0.8134-1.895,0.2784-0.9655,0.9655-3.669,1.535-7.67,1.616-32.37,0.6538-42.18,1.382-42.1,3.125,0.04583,0.9625,0.1583,6.549,0.25,12.42l0.1667,10.67,132.8-0.6796c73.01-0.3738,178.2-0.7856,233.8-0.9152l101-0.2356v-15.75c0-21.03,1.826-20.43,2.52,0.8317,0.2859,8.756,0.3503,16.48,0.143,17.17-0.4088,1.356-471.1,1.937-472.5,0.5833zm155.2-43.5c0.5504-1.448,0.692-2.976,0.3146-3.395-0.3774-0.4197-0.1663-0.4658,0.469-0.1024,0.7936,0.4539,1.482-1.609,2.2-6.59l1.044-7.25-0.4119,6.75c-0.4119,6.75-0.4119,6.75,2.301,6.765,1.492,0.008,3.387,0.4515,4.212,0.9847,1.109,0.7166,0.4737,0.9734-2.436,0.9847-2.682,0.0104-4.693,0.7272-6.315,2.25l-2.379,2.235,1.001-2.632zm29.13,0.6097c-0.825-0.1762-3.638-0.6016-6.25-0.9453-2.612-0.3436-4.75-0.9866-4.75-1.429,0-0.8966,6.46-0.5109,15.4,0.9192,3.243,0.519,6.281,0.7065,6.75,0.4165,0.4691-0.2899,0.8529-0.0506,0.8529,0.5319,0,0.9708-8.205,1.317-12,0.5066zm269.5-3.094c-10.22-1.218-12.25-1.756-13.68-3.627-0.9249-1.208-1.451-2.428-1.168-2.71,0.2824-0.2824,1.074,0.2538,1.76,1.191,1.55,2.12,8.489,3.783,15.09,3.617l5-0.1258-4.5-0.7193c-3.25-0.5195-1.723-0.6861,5.5-0.5998,9.567,0.1143,10.01,0.2168,10.32,2.369,0.384,2.704-0.464,2.732-18.32,0.6038zm-438.5-1c0-0.8765,0.9-1.829,2-2.117,1.1-0.2877,2-1.109,2-1.825,0-0.7159,0.3147-2.126,0.6992-3.133,0.5328-1.396-0.08051-1.177-2.577,0.9182-3.517,2.952-5.194,3.317-8.098,1.763-2.134-1.142-1.688-4.545,0.7172-5.467,2.326-0.8924,3.003,0.4367,0.9774,1.918-1.628,1.19-1.638,1.354-0.1217,1.936,1.654,0.6345,4.18-0.7671,5.714-3.17,0.4463-0.6991,1.203-1.029,1.681-0.7337,0.4782,0.2955,1.152,0.08,1.498-0.479,1.866-3.019,3.176,2.871,1.384,6.22-0.6194,1.157-0.5881,1.764,0.0911,1.764,0.5694,0,1.035,0.9,1.035,2,0,1.619-0.6667,2-3.5,2-2.536,0-3.5-0.439-3.5-1.594zm179-3.656c0.001-0.4125,2.14-0.755,4.752-0.761,8.176-0.0189,12.25-1.037,12.25-3.062,0-1.643-0.6718-1.749-7.25-1.14-10.3,0.9534-15.01,0.8652-15.4-0.2877-0.2079-0.6174,4.236-1.132,11.62-1.345l11.95-0.3449,0.6697,2.668c0.3683,1.467,0.2751,3.054-0.2071,3.525-1.095,1.07-18.38,1.773-18.38,0.7472zm272.1-3.138c-1.616-3.02-0.7911-5.612,1.786-5.612,2.563,0,4.381,2.372,3.981,5.195-0.4686,3.305-4.081,3.566-5.767,0.4168zm-398.6-0.5c0.6378-1.032-2.175-1.466-7.668-1.184-1.481,0.0761-2.97-0.3104-3.309-0.8589-0.3966-0.6417,3.059-0.9466,9.693-0.8553,7.55,0.1039,9.239,0.3336,6.309,0.8581-2.501,0.4478-3.094,0.7694-1.583,0.8581,2.914,0.1711,2.541,0.6304-1.25,1.541-1.859,0.4465-2.613,0.3229-2.191-0.3593zm67.5-2.088c-0.7888-1.474-1.675-1.864-3.16-1.393-1.463,0.4643-1.848,0.3052-1.322-0.5461,0.4083-0.6607,1.841-0.9913,3.183-0.7347,1.873,0.358,2.306,0.1143,1.86-1.047-0.4877-1.271-0.329-1.305,0.9893-0.2107,1.255,1.041,1.31,1.475,0.2729,2.16-1.01,0.6677-0.8681,1.185,0.6438,2.338,1.656,1.264,1.698,1.481,0.2852,1.481-0.9108,0-2.149-0.9216-2.752-2.048zm-70.97-3.968c11.16-1.074,23-1.109,23-0.0666,0,0.5186-6.624,0.8891-15.25,0.8528-12.78-0.0538-14.04-0.181-7.75-0.7862zm366.6,0.2589c-0.2575-0.4167-0.76-2.554-1.117-4.75-0.3566-2.196-0.856-5.005-1.11-6.242-0.2538-1.238-0.0662-2.25,0.4169-2.25s1.305,3.15,1.826,7c0.9289,6.862,0.9265,7.768-0.0163,6.242zm-408.6-6.2c-1.626-2.283-1.846-3.586-1.216-7.176l0.7709-4.386,5.45,0.1775c4.051,0.132,4.808-0.035,2.95-0.6503-2.346-0.7768-2.284-0.8421,1-1.059l3.5-0.2313-3.5-0.7558c-2.282-0.4928,0.1539-0.7079,7-0.6184,10.46,0.1369,10.5,0.146,10.23,2.542-0.146,1.322,0.3732,3.122,1.154,4,1.454,1.634,1.414,6.707-0.06403,8.155-0.4533,0.4441-5.099,0.9146-10.32,1.046-5.225,0.131-10.73,0.5776-12.23,0.9926-2.297,0.6337-3.053,0.3078-4.721-2.035zm5.64-3.912c1.201-0.6323,3.312-1.15,4.691-1.15s2.785-0.45,3.125-1c0.3399-0.55,1.604-1.06,2.809-1.134,2.703-0.1648-6.581-1.658-11.06-1.779-3.173-0.0855-3.25,0.0132-3.235,4.162,0.0084,2.338,0.3459,3.755,0.75,3.15,0.4041-0.6052,1.718-1.618,2.919-2.25zm13.61,0.8238c2.56-2.99-0.1218-3.655-6.469-1.605-2.778,0.8973-5.648,1.631-6.377,1.631-0.7294,0-1.604,0.45-1.944,1-1.337,2.163,12.91,1.174,14.79-1.026zm4.916-7.738c-0.6016-0.2005-0.8888-0.898-0.6383-1.55,0.3286-0.8551-1.011-1.058-4.806-0.7284-4.067,0.3532-4.581,0.5609-2.262,0.9146l3,0.4576-3,0.6464-3,0.6464,3.68,0.48c2.024,0.264,3.46,0.124,3.191-0.311-0.2689-0.4351,0.2268-0.791,1.102-0.791,0.8747,0,1.884,0.7648,2.243,1.699,0.5079,1.323,0.7553,1.39,1.119,0.3,0.2566-0.7697-0.02574-1.564-0.6273-1.764zm93.28,11.9c-0.5429-1.026-2.286-4.282-3.873-7.235-1.737-3.231-2.241-4.834-1.265-4.024,0.8914,0.7398,2.599,3.303,3.794,5.696,1.606,3.215,2.708,4.296,4.224,4.14,1.26-0.1292,2.192,0.4649,2.416,1.54,0.5093,2.446-3.992,2.348-5.295-0.1162zm60.09,0.9852c-0.5603-0.9066-0.78-7.879-0.3739-11.87,0.2294-2.255,1.8-3.238,1.8-1.128,0,0.7755,0.4636,0.7377,1.5-0.1224,1.829-1.518,1.948-3,0.2406-3-1.821,0-3.982-3.733-2.641-4.561,1.587-0.9806,10.1,1.586,12.54,3.784,1.643,1.476,2.265,1.616,2.671,0.6008,0.367-0.9184,0.5529-0.9516,0.6077-0.1083,0.0434,0.6682-0.856,1.715-1.999,2.327-1.143,0.6115-1.859,1.682-1.591,2.379,0.3355,0.8744-0.2603,1.124-1.922,0.8067-1.325-0.2532-2.409-0.8439-2.409-1.312,0-0.4686,0.7875-0.6101,1.75-0.3144s0.625-0.1524-0.75-0.9959c-2.477-1.519-2.479-1.534-0.25-1.569,1.238-0.0195,2.25-0.4854,2.25-1.035,0-0.55-0.675-1-1.5-1-2.092,0-2.659-0.1172-5.5-1.136l-2.5-0.8968,2.453,1.924c2.725,2.137,1.724,7.109-1.431,7.109-2.1,0-1.939,3.954,0.2286,5.642,1.379,1.074,1.414,1.247,0.1667,0.8172-0.996-0.3432-1.583,0.0269-1.583,0.9976,0,1.968,2.049,1.992,3.667,0.043,0.6847-0.825,0.895-1.5,0.4675-1.5-0.4276,0,0.0467-0.9106,1.054-2.024,1.404-1.551,1.557-2.298,0.655-3.2-0.647-0.647-1.176-1.862-1.176-2.699,0-1.249,1.478,0.302,3.462,3.633,0.5928,0.9954,4.508-1.361,5.072-3.053,0.7194-2.158,0.7194-2.158,1.161,0.0837,0.2428,1.233,1.308,2.848,2.367,3.59,1.059,0.7417,1.628,1.646,1.265,2.009-1.026,1.026-2.053,0.7914-3.686-0.8414-2.326-2.326-7.127-0.2748-5.681,2.427,2.211,4.131,1.392,5.075-4.401,5.075-2.993,0-5.686-0.3965-5.986-0.8811zm-70.63-4.22c-1.246-2.328-1.293-5.995-0.0517-4.036,0.7291,1.151,0.939,1.151,1.348,0,0.675-1.901,1.628-0.7626,2.339,2.793,0.6932,3.466-1.96,4.373-3.635,1.243zm12.8-1.007c-2.498-1.416-2.3-4.27,0.25-3.603,1.627,0.4255,2.003,0.0277,2.015-2.133,0.012-2.082,0.2248-2.332,0.9847-1.156,0.6131,0.9487,0.975,1.052,0.9847,0.2814,0.008-0.6702,0.6903-0.9596,1.515-0.643,1.119,0.4296,1.496-0.1493,1.485-2.281-0.0119-2.212-0.2341-2.518-0.9847-1.357-0.7861,1.216-0.9723,1.081-0.9847-0.7186-0.0108-1.564,0.427-2.049,1.485-1.643,0.975,0.3742,1.5,1.927,1.5,4.437,0,2.808-0.3639,3.722-1.334,3.35-0.8694-0.3336-1.305,0.2365-1.25,1.637,0.1115,2.85-3.312,5.164-5.666,3.83zm86.91-2.718c-0.4627-1.279-0.6135-2.553-0.3351-2.832,0.2784-0.2784-0.1305-2.03-0.9087-3.893-1.928-4.614-1.78-5.22,0.6392-2.623,1.594,1.711,1.986,3.265,1.75,6.939-0.2519,3.92-0.4487,4.334-1.145,2.408zm66.46-2.7c-3.962-15.94-5.068-17.91-6.973-12.45-1.028,2.948-1.192,3.014-6.348,2.552-13.26-1.189-29.15-4.681-36.41-8.002-5.146-2.356-5.146-2.356-5.016-6.96,0.0939-3.322,0.5477-4.63,1.63-4.696,0.825-0.0506,0.1726-0.4885-1.45-0.973-1.622-0.4845-3.16-0.6709-3.417-0.414-0.2568,0.2568,0.0581,0.4669,0.6997,0.4669,3.073,0,0.6935,1.688-2.583,1.832-7.093,0.3132-25.72,0.0263-26.15-0.4027-0.2362-0.2362,3.54-0.4295,8.392-0.4295,8.822,0,8.822,0,6.94-2.08-1.36-1.503-2.64-1.928-4.616-1.533-2.797,0.5594-4.836-0.809-2.568-1.723,0.8521-0.3435,0.7643-0.5319-0.273-0.5854-0.8411-0.0434-2.113,0.7304-2.825,1.719-1.111,1.542-2.57,1.757-10.22,1.508-7.373-0.2396-8.925-0.0308-8.925,1.202,0,0.8204-0.4981,1.492-1.107,1.492-0.6088,0-0.848-0.675-0.5314-1.5,0.42-1.095-0.1591-1.528-2.143-1.602-2.719-0.1024-2.719-0.1024,0.2814-0.8218,1.65-0.3957,5.588-0.6164,8.75-0.4905,5.263,0.2096,5.76,0.0463,5.866-1.928,0.0909-1.691,0.2149-1.779,0.5733-0.4072,0.3312,1.267,1.471,1.749,4.134,1.746l3.677-0.004-3.274-1.996c-1.801-1.098-4.051-2.003-5-2.012-0.9492-0.008-2.386-0.4327-3.192-0.9428-0.9251-0.5851-1.929-0.5433-2.72,0.1132-3.121,2.59-12.72-0.5297-12.79-4.155-0.0172-0.9731-0.9924-1.486-2.776-1.461-1.512,0.0217-2.75-0.3158-2.75-0.75s-1.238-0.8507-2.75-0.9256c-2.38-0.1179-2.445-0.1948-0.4852-0.5715,1.246-0.2394,2.006-0.8548,1.689-1.367-0.3169-0.5127-1.635-0.6665-2.928-0.3418-1.62,0.4067-3.001-0.0589-4.439-1.496-1.148-1.147-3.368-2.086-4.934-2.086s-3.91-0.9216-5.208-2.048c-4.042-3.506-9.287-2.376-9.502,2.048-0.2759,5.676-0.3765,6-1.859,6-0.7792,0-1.644-0.5625-1.921-1.25-0.3968-0.9834-0.5212-0.9781-0.5833,0.0248-0.0434,0.7011,0.9847,1.679,2.285,2.173,2.628,0.9991,4.036,3.614,2.905,5.392-0.7272,1.143-0.8968,1.686-1.144,3.66-0.0687,0.55-1.362,0.9994-2.875,0.9987-2.624-0.001-7.166-7.067-7.282-11.33-0.0981-3.614-2.244-4.178-14.72-3.863-6.771,0.1707-12.25,0.7298-12.25,1.25,0,0.5177-0.7875,0.9861-1.75,1.041-4.829,0.2751,4.192,1.713,11.3,1.801,4.428,0.0548,8.478,0.5116,9,1.015,0.5225,0.5034,1.85,1.124,2.95,1.379s0.2,0.2357-2-0.0428-7.687-0.5615-12.19-0.6289c-12.65-0.1891-8.244,1.778,5.491,2.452,6.436,0.3161,11.48,0.6832,11.2,0.8158-2.32,1.119-25,1.04-25-0.0863,0.00002-1.041-4.991-1.274-24.75-1.154-30.24,0.184-28.25,0.0625-28.25,1.727,0,0.7576-0.7593,1.995-1.687,2.75-1.796,1.461-1.803,1.598,0.1687-3.3,0.9939-2.469-1.494-1.769-5.544,1.561-1.89,1.554-2.586,2.542-1.546,2.196,1.602-0.5331,1.698-0.3964,0.6276,0.8935-1.393,1.679-3.504,2.117-2.519,0.5229,0.9592-1.552-1.179-1.178-2.857,0.5-1.591,1.591-7.643,2.096-7.643,0.6387,0-0.4737,1.071-0.6566,2.38-0.4064,2.866,0.5479,10.19-4.424,12.96-8.797,1.858-2.935,1.858-2.935,13.51-3.015,26.71-0.1844,44.66-2.489,21.31-2.736-14.77-0.1561-16.62-0.3718-19.25-2.246-1.602-1.141-2.912-1.593-2.912-1.006,0,0.5874-0.6375,1.068-1.417,1.068-0.7792,0-1.644,0.5625-1.921,1.25-0.4035,1-0.5202,1-0.5833,0-0.04342-0.6875-0.7539-1.25-1.579-1.25-0.825,0-1.411-0.3375-1.302-0.75,0.5109-1.934-1.743-5.748-5.294-8.955-3.67-3.315-5.519-6.625-2.607-4.667,0.7134,0.4798,0.4386,0.0849-0.6108-0.8776s-2.519-1.75-3.266-1.75c-0.8484,0-1.139,0.6566-0.7753,1.75,0.3204,0.9625-0.551,0.4001-1.936-1.25-1.577-1.879-2.123-3.244-1.461-3.654,0.582-0.3597-0.1354-0.5848-1.594-0.5003-2.873,0.1666-3.904,3.96-1.343,4.943,2.201,0.8446,0.9044,7.711-1.456,7.711-1.596,0-1.748,0.3323-0.8879,1.939,0.7237,1.352,0.7147,2.139-0.0297,2.599-1.465,0.9052-7.709-0.3595-8.558-1.733-0.4799-0.7765,0.2549-0.9283,2.409-0.4974,2.515,0.5031,3.217,0.2498,3.723-1.344,0.3428-1.08,1.38-2.023,2.306-2.095,0.9254-0.0724,0.1076-0.4099-1.817-0.75-2.17-0.3833-3.5-1.189-3.5-2.118,0-0.825-0.4443-1.818-0.9874-2.206-0.5431-0.3882-0.03001-0.6336,1.14-0.5455s1.948,0.6307,1.729,1.206c-0.2194,0.575,0.9551,1.14,2.61,1.255,1.966,0.137,3.009-0.2593,3.009-1.143,0-1.575-2.156-2.567-5.582-2.567-1.56,0-2.418-0.5735-2.418-1.617,0-1.178,0.6107-1.463,2.25-1.05,2.047,0.5156,2.092,0.4484,0.5-0.7436-1.778-1.332-2.525-4.187-0.8191-3.133,0.512,0.3164,1.227,0.0961,1.589-0.4895,0.3847-0.6225,1.14-0.7077,1.819-0.205,1.276,0.9449,5.763,0.8474,9.661-0.21l2.5-0.6782-2.311,1.38c-2.162,1.292-1.809,1.457,5.5,2.569,7.285,1.109,21.95,1.502,18.05,0.484-0.9692-0.2528-1.505-0.8756-1.191-1.384,0.3142-0.5084-0.0178-0.9312-0.7378-0.9396-0.9583-0.0112-0.9115-0.2667,0.1746-0.9534,1.434-0.9069-0.1875-1.893-7.033-4.275-0.8519-0.2965-2.055-2.189-2.674-4.206-0.8553-2.787-0.8436-3.568,0.0489-3.255,0.6458,0.2265,1.038,1.171,0.8708,2.1-0.2548,1.418-0.0012,1.499,1.583,0.5098,2.171-1.356,2.592-4.262,0.5015-3.46-0.7619,0.2924-1.129,0.1174-0.8164-0.3889,0.3129-0.5063-0.6762-1.109-2.198-1.339l-2.767-0.4182,2.973-0.1498,2.973-0.1498-2.466-1.727c-3.231-2.263-4.193-2.34-6.53-0.5207-1.603,1.248-1.64,1.41-0.2094,0.9176,1.298-0.447,1.904,0.0904,2.388,2.115,0.3564,1.493,1.1,3.288,1.652,3.988,0.75,0.9513,0.5888,1.114-0.6379,0.643-0.9028-0.3464-1.641-1.032-1.641-1.523,0-0.4912-0.4875-0.893-1.083-0.893-0.5958,0-0.8938,0.5625-0.6622,1.25s-0.2934,1.798-1.167,2.468c-1.133,0.8696-1.213,1.227-0.2788,1.25,2.373,0.0576,0.1268,2.032-2.311,2.032-1.33,0-3.072,0.9825-3.941,2.223-1.28,1.827-1.557,1.916-1.557,0.5,0-2.256-2.72-2.233-3.311,0.0275-0.3441,1.317-0.486,1.193-0.5733-0.5-0.0638-1.238,0.334-2.25,0.884-2.25s1-0.6139,1-1.364c0-0.7504,1.688-2.078,3.75-2.949l3.75-1.585-3.689,0.5492c-4.209,0.6268-9.343-1.849-6.275-3.026,3.147-1.207,7.109-0.6031,9.275,1.415,1.753,1.634,2.189,1.733,2.189,0.5,0-0.8464,0.45-1.539,1-1.539s1-0.45,1-1-0.9266-1-2.059-1-1.784-0.4448-1.448-0.9886c0.342-0.5534-0.03149-0.742-0.8484-0.4285-2.062,0.7914-10.26-3.083-8.643-4.084,0.9489-0.5865,0.8374-1.009-0.4575-1.734-1.189-0.6652-1.53-1.686-1.116-3.335,0.4538-1.808,0.2498-2.244-0.8527-1.82-0.8373,0.3213-1.193,1.224-0.8424,2.137,0.4016,1.047,0.2112,1.337-0.5631,0.8582-0.6435-0.3977-1.17-0.2465-1.17,0.336s0.765,1.059,1.7,1.059c1.257,0,1.408,0.2924,0.577,1.123-0.8306,0.8306-1.899,0.5703-4.104-1-1.64-1.168-3.812-2.129-4.827-2.136-1.015-0.0071-4.771-0.9738-8.346-2.148-3.669-1.205-8.569-2.049-11.25-1.937-3.492,0.1461-4.75-0.1708-4.75-1.197,0-1.697-3.167-4.705-4.954-4.705-0.9145,0-1.115,0.9073-0.6802,3.08,0.4422,2.211,0.2659,2.965-0.625,2.673-1.753-0.5756-2.038-4.6-1.24-17.5,0.659-12.11,1.019-12.79,4.628-9.04,2.136,2.217,3.266,2.421,16.77,3.025,20.56,0.9201,21.05,1.038,24.02,5.782,2.796,4.466,4.107,2.902,1.944-2.319-1.72-4.153-0.2235-5.457,4.361-3.799,1.927,0.6969,3.33,1.755,3.117,2.351-0.2129,0.596,0.3925,2.061,1.345,3.256,2.225,2.791,20.86,4.45,21.83,1.943,0.2993-0.78,1.526-1.751,2.725-2.158,1.763-0.5982,1.318-0.8567-2.319-1.349-6.241-0.844-10.25-0.2108-9.591,1.514,0.5751,1.499-4.003,1.967-5.982,0.6124-4.878-3.34-1.12-6.303,6.573-5.182,3.025,0.4407,8.286,0.8341,11.69,0.8742,3.405,0.04015,6.499,0.5712,6.875,1.18,0.4605,0.745-0.01084,0.8865-1.441,0.4326-1.261-0.4002-2.125-0.2404-2.125,0.3929,0,0.5871,0.675,1.067,1.5,1.067,1.205,0,1.535,1.719,1.68,8.75l0.1802,8.75,0.5698-7.5,0.5698-7.5,4,0.0477c19.99,0.2383,24.02,1.419,23.04,6.752-0.311,1.7-0.1252,2.561,0.4729,2.191,0.5417-0.3348,0.9849-0.1322,0.9849,0.4503s-0.45,1.059-1,1.059-0.9857,0.7875-0.9682,1.75c0.0284,1.562,0.1957,1.535,1.556-0.25,1.03-1.352,1.323-3.085,0.9044-5.348-0.4156-2.246-0.2694-3.132,0.4442-2.691,0.6255,0.3866,1.112-0.2938,1.18-1.652,0.0923-1.837,0.2131-1.932,0.5912-0.4662,0.3191,1.237,1.102,1.679,2.384,1.344,1.477-0.3862,1.909,0.0304,1.909,1.841,0,1.785-0.6522,2.439-2.75,2.757l-2.75,0.4166,2.75,0.1498c2.181,0.1188,2.75,0.6382,2.75,2.51,0,1.298,0.2862,4.448,0.6359,7l0.6359,4.64h-4.136c-3.266,0-4.139-0.3679-4.151-1.75-0.0119-1.356-0.2078-1.446-0.8707-0.4002-0.6888,1.087-3.614,1.208-15.02,0.62-15.67-0.8075-16.42-1.171-16.06-7.787,0.3714-6.866-0.0703-14.68-0.8296-14.68-1.493,0-3.517,7.478-3.659,13.52-0.1757,7.476-0.9353,8.851-4.401,7.967-1.452-0.3703-7.716-0.6357-13.92-0.5898-13.05,0.0965-13.15,0.0123-13.3-10.71-0.04342-3.127-0.3154-5.094-0.6044-4.372-0.3622,0.9051-1.391,0.3433-3.312-1.808l-2.786-3.121-0.7184,8.115c-0.7086,8.004-0.2076,10.76,1.464,8.059,0.6405-1.036,0.9403-0.7833,1.196,1.009,0.2372,1.665,1.253,2.65,3.341,3.242,1.65,0.4674,4.35,1.29,6,1.829,1.65,0.5385,4.295,1.164,5.878,1.389,1.583,0.2254,3.929,1.099,5.215,1.941,3.028,1.984,5.079,1.941,6.239-0.1315,0.8426-1.506,0.9883-1.481,1.54,0.258,0.8667,2.731,9.625,2.135,10.37-0.7055,0.7851-3.002,4.261-2.414,4.261,0.7217,0,2.393,0.2722,2.565,3.25,2.059,1.788-0.3035,5.05-0.1804,7.25,0.2737,3.606,0.7442,3.288,0.8369-3.219,0.9406-6.087,0.097-7.125,0.3584-6.623,1.668,0.3411,0.8888,1.504,1.423,2.719,1.25,1.325-0.189,2.509,0.4491,3.151,1.697,1.876,3.649,20.87,5.927,21.73,2.607,0.354-1.354-0.0425-2.464-1.105-3.091-1.421-0.8401-1.451-1.115-0.2068-1.93,1.059-0.6945,0.2497-1.057-3-1.344l-4.45-0.3926,4.231-0.1747c3.611-0.1491,4.323-0.5408,4.858-2.675,0.8621-3.435,9.004-3.773,10.24-0.4258,0.422,1.141,1.083,2.041,1.468,2,3.432-0.3634,3.752,1.354,0.4505,2.418-2.139,0.6892-2.101,0.7634,0.75,1.498,3,0.7733,3,0.7733,0.309,0.8916-2.83,0.1244-5.059,2.118-2.368,2.118,0.8924,0,1.559,0.8552,1.559,2,0,2.661,10.28,2.958,13.13,0.3787,2.701-2.445,4.96-1.099,4.236,2.523-0.5384,2.692-0.2491,3.122,3.017,4.487,3.957,1.653,4.08,1.871,2.605,4.627-1.137,2.125,2.737,4.469,8.599,5.204,2.726,0.3418,3.061,0.1156,2.838-1.916-0.2908-2.649-0.3733-2.613,3.006-1.328,1.588,0.6037,2.565,1.747,2.565,3,0,1.114,0.6457,2.025,1.435,2.025,0.7892,0,2.702,0.5235,4.25,1.163,4.183,1.728,7.982,1.829,7.982,0.2113,0-0.756-0.375-1.375-0.8333-1.375s-0.8333-0.675-0.8333-1.5-0.5625-1.537-1.25-1.581c-0.6875-0.0447,0.1-0.6783,1.75-1.408,3.619-1.601,5.301,0.124,3.465,3.554-0.6156,1.15-0.7977,2.844-0.4046,3.763,0.5941,1.39,0.8433,1.25,1.477-0.8281,0.7291-2.39,0.7671-2.401,0.8624-0.25,0.0708,1.598,0.717,2.25,2.231,2.25,2.18,0,2.319-3.265,0.3505-8.242-0.4763-1.204-0.1169-1.926,1.165-2.341,4.577-1.479,6.179-2.711,5.587-4.294-0.5153-1.378-0.3646-1.426,0.9941-0.3225,0.8808,0.7157,2.653,1.208,3.937,1.094,4.721-0.418,15.15,0.1239,14.52,0.7544-0.3576,0.3576-3.319,0.5701-6.58,0.4722-5.694-0.1709-5.907-0.0884-5.341,2.074,0.3239,1.239,0.7347,1.814,0.9129,1.278,0.1782-0.5358,3.812-0.9391,8.075-0.8961s6.963-0.1025,6.001-0.3233c-2.517-0.5773-2.154-2.151,0.75-3.255,1.375-0.5228,2.5-1.337,2.5-1.809s0.675-0.8581,1.5-0.8581,1.5,0.825,1.5,1.833c0,5.239,9.843,0.8468,12.53-5.594,1.516-3.627,2.776-4.132,7.297-2.922,1.659,0.4442,2.19,1.161,1.844,2.486-0.2924,1.118,0.0377,1.862,0.8258,1.862,0.7943,0,1.118-0.7454,0.8193-1.887-0.6565-2.51,0.6362-3.157,4.922-2.461,2.969,0.4818,3.653,1.074,4.158,3.596,0.6436,3.218,6.789,9.752,9.172,9.752,1.938,0,1.803-1.111-0.711-5.82-3-5.62-2.163-7.162,3.312-6.104,2.38,0.46,6.24,0.8559,8.577,0.8799,4.526,0.0464,4.557,0.0918,4.271,6.289-0.1051,2.275,0.4457,4.364,1.403,5.321,1.401,1.401,1.409,1.743,0.0761,3.076-0.825,0.825-1.5,1.968-1.5,2.54,0,1.375,7.248,0.0304,8.217-1.524,0.5314-0.8527,1.191-0.8677,2.502-0.0567,1.02,0.6308,2.635,0.7676,3.781,0.3203,1.133-0.4425,1.386-0.8117,0.5833-0.8515-0.7792-0.0387-1.093-0.3944-0.6964-0.7906,0.3962-0.3962,2.271-0.5867,4.167-0.4234,3.446,0.2969,3.446,0.2969,3.446-4.28,0-3.401-0.3852-4.577-1.5-4.577-2.851,0-1.171-3.521,2-4.191,1.1-0.2323-0.925-0.543-4.5-0.6904s-7.85-0.3469-9.5-0.4433c-2.697-0.1576-3.032,0.153-3.313,3.075-0.2328,2.414,0.0886,3.25,1.25,3.25,0.8672,0,1.563,0.8429,1.563,1.893,0,1.041,0.7035,2.163,1.563,2.493,0.8599,0.33,1.304,1.019,0.9878,1.531-0.3166,0.5122,0.2174,1.138,1.187,1.391,1.39,0.3627,1.305,0.4842-0.4044,0.5757-1.192,0.0638-2.394-0.4465-2.671-1.134-0.3013-0.7467-0.5362-0.5454-0.5833,0.5-0.0889,1.97-0.8889,2.165-3.079,0.75-1-0.6462-1.083-0.9745-0.25-0.9847,0.7298-0.009,1.25-1.315,1.25-3.138,0-2.662-0.2211-2.939-1.5-1.878-1.305,1.083-1.5,0.4601-1.5-4.798,0-6.894,1.967-8.254,8.993-6.215,1.921,0.5574,5.521,1.02,8,1.029,5.521,0.0188,7.466,1.119,6.759,3.823-0.4412,1.687-0.2485,1.867,1.107,1.035,1.05-0.6451,4.881-0.7136,10.64-0.1902l9,0.8178,0.2889,8.75c0.2174,6.584-0.0301,8.775-1,8.852-1.959,0.1553-19.26-0.2515-19.47-0.4578-0.1016-0.0993-0.338-1.297-0.5253-2.662s-0.6695-3.006-1.072-3.647c-0.402-0.6405-0.2421-1.328,0.3553-1.527,0.6063-0.2021,0.92-1.897,0.71-3.835l-0.3763-3.473-1.154,2.685c-0.6349,1.477-1.263,4.788-1.396,7.358l-0.2419,4.672-16.56-0.3951-16.56-0.395,2.5,2.642c5.077,5.364,6.777,7.841,5.643,8.219-1.411,0.4703,1.642,3.702,3.535,3.743,3.249,0.0692,12.12,3.672,10.89,4.426-1.039,0.6422-1.026,0.964,0.0697,1.67,1.131,0.7293,1.116,1.03-0.0911,1.806-1.757,1.13,1.459,1.991,6.948,1.86,4.785-0.1142,11.19,1.221,13,2.711,1.392,1.143,10.78,3.289,24.03,5.491,3.044,0.5058,8.186,1.61,11.43,2.454,6.36,1.657,6.559,1.626,6.952-1.052,0.4328-2.949,2.588-2.842,2.588,0.1292,0,2.442,0.2547,2.626,2.75,1.979,1.512-0.3918,9.388-0.6456,17.5-0.5642,14.75,0.1481,14.75,0.1481,14.77-2.146,0.0123-1.848,0.2038-2.003,0.9847-0.7942,2.966,4.59,1.874,5-13.31,5-11.56,0-14.68,0.3036-16.25,1.582-1.916,1.561-1.915,1.573,0.0471,0.94,1.984-0.6404,1.984-0.6379,0,1.26-2.162,2.068-4.983,1.229-5.893-1.753-0.2565-0.8407-0.3967-0.4036-0.3116,0.9714s-0.1954,3.062-0.6234,3.75c-0.5442,0.8742-0.0265,1.25,1.722,1.25,3.286,0,4.4,1.955,2.08,3.652-1.433,1.048-2.012,1.076-2.598,0.1273-0.415-0.6715-1.049-0.9264-1.409-0.5665-1.168,1.168,0.6021,2.788,3.046,2.788,1.31,0,2.634,0.4078,2.942,0.9061,0.308,0.4984,1.572,0.7141,2.809,0.4795,2.096-0.3977,2.113-0.3622,0.249,0.5236-1.622,0.7706-1.685,0.9635-0.3318,1.021,0.9175,0.0387,2.339,0.3278,3.16,0.6426,0.9421,0.3615,1.734-0.191,2.149-1.5,0.6184-1.948,1.393-2.072,12.95-2.072h12.29l-0.4779-2.5c-0.3691-1.931-0.053-2.514,1.389-2.563,1.57-0.0533,1.509-0.2069-0.3834-0.9678-2.856-1.148-2.96-2.329-0.1252-1.429,2.84,0.9015,3.487-0.4574,2.959-6.215-0.4142-4.513-0.4934-4.631-1.227-1.824-0.5874,2.246-0.6595,1.869-0.287-1.5,0.2737-2.475,1.073-4.95,1.776-5.5,0.7032-0.55,1.574-1.788,1.935-2.75,0.7312-1.949,8.108-2.549,9.219-0.75,0.3399,0.55,1.518,1,2.618,1s1.724,0.4474,1.386,0.9941c-0.3379,0.5468,0.6225,2.616,2.134,4.598,2.915,3.822,5.033,16.56,2.492,14.99-0.6216-0.3842-1.13-2.152-1.13-3.928,0-8.878-12.87-21.7-14.71-14.65-0.2877,1.1-1.176,2-1.974,2-1.521,0-1.006,3.52,0.7964,5.45,0.4882,0.5225,0.8876,1.621,0.8876,2.441,0,1.112-0.3638,0.9972-1.43-0.45-1.305-1.772-1.401-1.552-1.103,2.524,0.3312,4.533,2.056,6.636,2.74,3.34,0.3078-1.484,0.4888-1.387,1.017,0.5484,0.5834,2.135,0.3745,2.314-2.252,1.929-1.861-0.2731-3.085,0.0697-3.426,0.9596-0.2922,0.7615-0.9777,1.109-1.523,0.7715-0.6172-0.3814-0.7674,0.5102-0.3975,2.36,0.5354,2.677,0.3103,3.018-2.265,3.429-1.573,0.2508-0.1596,0.3979,3.14,0.327,5.472-0.1176,6.029-0.3333,6.329-2.451,0.296-2.089,0.0135-2.273-2.808-1.828-2.361,0.3721-2.891,0.1979-2.142-0.7042,2.57-3.097,6.12-1.811,6.12,2.217,0,5.922-1.816,10.3-3.843,9.259-2.941-1.508-34.16-3.672-34.16-2.367,0,0.9989-9.197,3.382-9.99,2.589-0.6434-0.6434,2.945-2.676,5.429-3.076,2.661-0.4283,3.036-0.9892,1.722-2.572-1.14-1.373-6.685-1.176-8.661,0.3075-0.55,0.4129-1.9,0.417-3,0.009s-2.978-0.3767-4.173,0.0694c-1.501,0.5603-2.555,0.35-3.41-0.6802-0.6807-0.8202-1.889-1.241-2.684-0.9361-1.456,0.5586-18.44-1.167-21.23-2.158-2.058-0.7293-6.714-1.097-18.75-1.48-11.68-0.3718-11.12-0.9422-8.666,8.86,0.8709,3.473,1.4,6.865,1.175,7.538-0.2245,0.6735-0.9646-1.014-1.645-3.75zm-9.375-16.06c-0.2474-1.294-0.1483-2.166,0.2202-1.938,0.3684,0.2277,1.244-3.048,1.945-7.28,0.7012-4.232,1.779-9.609,2.394-11.95,1.478-5.619,0.7151-6.249-11.8-9.741-26.2-7.313-26.72-7.286-28.6,1.497-0.4124,1.925-1.492,6.2-2.399,9.5-3.655,13.3-4.095,12.74,13,16.53,6.112,1.355,19.27,4.921,22,5.963,2.735,1.043,3.773,0.2183,3.239-2.576zm72.73,0.9208c1.795-1.214,1.811-1.334,0.1826-1.334-1.309,0-1.626-0.5152-1.182-1.916,0.7464-2.352-0.5147-3.213-4.737-3.236-3.344-0.0184-11.95-2.252-14.94-3.881-1.064-0.5786-1.929-0.562-2.304,0.0444-0.3716,0.6013-1.88,0.4356-3.965-0.4354-1.851-0.7733-3.614-1.157-3.918-0.8531-0.3041,0.3041-2.478,0.0563-4.832-0.5506-2.353-0.6069-6.219-1.335-8.591-1.617-2.372-0.2826-4.703-0.7555-5.181-1.051-0.4779-0.2954-1.131-0.1129-1.452,0.4056-0.7177,1.161-5.629-0.1479-8.746-2.331-4.318-3.024-6.534-2.107-7.666,3.171-1.143,5.327-0.5713,6.428,3.567,6.865,5.834,0.6159,10.83,1.653,11.84,2.459,0.9996,0.7977,13.97,2.644,24.17,3.44,2.63,0.2052,6.879,0.7712,9.442,1.258,4.598,0.8729,4.648,0.8539,3.778-1.434-1.688-4.44-0.2893-5.919,3.66-3.87,2.012,1.044,3.024,1.146,3.513,0.3543,0.378-0.6116,1.459-0.8159,2.402-0.4541,1.666,0.6395,1.664,1.825-0.0104,5.895-0.8081,1.964,1.267,1.576,4.97-0.9275zm-90.11,0.9678c0.6822-0.6822-19.39-6.23-22.37-6.181-2.714,0.0453,17.09,6.601,20.58,6.813,0.5958,0.0362,1.398-0.2485,1.782-0.6326zm-22.43-29.68c0.0539-1.661-0.4368-1.8-4.189-1.186-6.015,0.9843-11.05,0.6791-12.01-0.7282-0.5915-0.8661-0.7773-0.783-0.662,0.2961,0.3379,3.164-0.1515,3.999-2.327,3.968-2.174-0.0307-2.185-0.0807-0.3465-1.472,1.669-1.263,1.708-1.516,0.3131-2.051-0.8747-0.3356-1.363-1.203-1.085-1.926,0.7683-2.002-1.276-2.731-2.954-1.053-1.526,1.526-3.4-0.4869-2.225-2.389,0.2526-0.4087-0.1762-0.7431-0.9528-0.7431s-1.178,0.3782-0.8926,0.8404c0.8176,1.323-1.864,1.95-9.176,2.145-6.394,0.171-11.24,2.681-5.181,2.681,1.329,0,2.757,0.3375,3.174,0.75,0.4164,0.4125,1.504,0.7959,2.417,0.8519,0.9128,0.0561,3.01,0.1755,4.66,0.2653,2.059,0.1121,2.581,0.4288,1.665,1.009-1.431,0.9069,1.481,2.083,5.224,2.11,1.039,0.008,2.539,0.8012,3.332,1.764,1.373,1.667,1.416,1.667,0.8916,0-0.6122-1.947,1.652-2.418,3.679-0.7651,10.85,8.846,12.73,9.177,14.9,2.624,0.9289-2.81,1.716-5.955,1.75-6.99zm-94.23,5.132c0.0217-0.6875,0.15-1.7,0.2851-2.25,0.523-2.13-0.0529-3.5-1.471-3.5-4.067,0-8.284-16.94-4.251-17.08,1.866-0.0636,1.723-0.2679-0.8776-1.25-2.067-0.7805-3.018-1.759-2.839-2.92,0.1482-0.9603-0.1478-2.004-0.6578-2.319-0.51-0.3152-0.6684-0.992-0.3519-1.504,0.3164-0.512-0.1262-0.9309-0.9837-0.9309-1.832,0-2.098,1.654-0.3597,2.233,0.7132,0.2377,1.252,2.602,1.329,5.833,0.1496,6.255,5.462,21.72,8.131,23.67,2.1,1.535,1.999,1.535,2.047,0.01zm-82.71-6.801c-6.642-1.182-10.87-1.158-9,0.051,0.825,0.5332,4.2,0.9199,7.5,0.8595l6-0.1098-4.5-0.8007zm29.81,0.5285c-0.845-0.845-22.84-1.081-24.13-0.2589-0.6494,0.413,4.632,0.7578,11.74,0.7662,7.104,0.008,12.68-0.2198,12.39-0.5072zm149.8-7.057c0.7354-2.93,3.929-4.519,6.891-3.429,6.366,2.343,11.12,2.149,12.32-0.5036,1.491-3.272,1.475-3.642-0.141-3.282-3.865,0.8621-15.68-12.43-15.68-17.64,0-1.295-0.675-2.614-1.5-2.931-0.825-0.3166-1.5-0.1922-1.5,0.2764s-1.012,1.198-2.25,1.62c-2.045,0.6982-1.954,0.8058,1,1.18,5.694,0.7213,3.73,2.572-2.207,2.08l-5.457-0.4526-4.661,5.399c-7.396,8.566-16.42,11.66-16.42,5.636,0-0.9134-1.264-1.4-3.75-1.444-2.062-0.0365-6.832-0.252-10.6-0.4791-5.897-0.3554-6.766-0.1959-6.25,1.148,0.3294,0.8585,0.599,2.554,0.599,3.767,0,2.049,0.5208,2.226,7.31,2.479,4.021,0.1497,8.183,0.4355,9.25,0.6351s2.727,0.3973,3.69,0.4394c0.9625,0.0421,1.75,0.7515,1.75,1.577,0,1.504,1.617,1.968,5.675,1.629,1.196-0.0999,2.453,0.2688,2.794,0.8194,0.3509,0.5678,2.44,0.7513,4.828,0.424,3.458-0.4739,4.549-0.2016,6.111,1.525,2.794,3.088,7.374,2.821,8.202-0.4777zm-154.5-0.1c-3.438-0.1953-9.062-0.1953-12.5,0s-0.625,0.355,6.25,0.355,9.688-0.1598,6.25-0.355zm92.43-0.7003c-0.9991-0.7574-1.899-1.71-2-2.117-0.1009-0.4068-1.737-0.834-3.636-0.9493s-3.624-0.7234-3.833-1.351c-0.469-1.407-3.869-1.509-4.714-0.1418-0.3399,0.55,0.2874,1,1.394,1,2.637,0,7.106,2.061,7.106,3.277,0,0.5259,0.8502,0.7338,1.889,0.462,1.039-0.2717,2.502-0.1061,3.25,0.3681,2.155,1.365,2.547,0.9701,0.5441-0.548zm85.96-2.609c-0.3783-1.891-0.2359-2.819,0.375-2.441,1.668,1.031,1.088-0.1855-0.7651-1.604-0.9625-0.7367-1.444-0.9737-1.071-0.5267,0.3735,0.447-0.1813,2.345-1.233,4.217l-1.912,3.404h2.608c2.374,0,2.553-0.2738,1.998-3.05zm-165.6,0.9908c0-0.7228,4.565-0.8763,14.38-0.4837,13.82,0.553,14.4,0.4972,14.91-1.441,0.4208-1.609,0.0414-2.016-1.879-2.016-1.324,0-2.406-0.5188-2.406-1.153,0-0.8393-3.119-0.9858-11.46-0.5386-6.96,0.373-11.7,0.2366-12.06-0.347-0.3268-0.5288-5.63-0.9546-11.79-0.9461-7.595,0.0104-10.71,0.3268-9.691,0.9847,1.421,0.9185-1.203,1.303-9.634,1.412-1.317,0.017-1.946,0.5179-1.643,1.308,0.3013,0.785,2.288,1.282,5.134,1.286,10.49,0.0117,24.72,1.412,21.14,2.079l-3.5,0.6522,4.25,0.1316c2.407,0.0746,4.25-0.3275,4.25-0.9272zm89.13-9.441c0.168-2.755-0.1291-5.007-0.6616-5.015-0.5316-0.008-1.559-0.391-2.283-0.8501-2.027-1.286-2.252-0.3206-0.6458,2.775,0.8043,1.55,1.427,3.33,1.383,3.954-0.0506,0.7277-0.2602,0.6866-0.5833-0.1143-0.601-1.489-2.338-1.675-2.338-0.25,0,1.1,3.969,5.368,4.495,4.833,0.1806-0.1833,0.4655-2.583,0.6332-5.333zm-60.15,0.8074-1.244-2.807-17.12,0c-9.413,0-20.94-0.2662-25.62-0.5916-6.658-0.4634-4.749-0.6259,8.809-0.75,9.762-0.0893,17.07-0.5449,16.76-1.045-0.3013-0.4875-8.765-0.9374-18.81-0.9998-18.45-0.1145-39.33-0.8577-45.76-1.629l-3.5-0.4197,3,1.095c1.65,0.6022,4.35,2.079,6,3.282,3.518,2.564,28.67,4.594,56.64,4.571,11.79-0.01,16.33,0.3468,18.45,1.449,3.507,1.819,3.963,1.407,2.385-2.155zm133.2-3.943c-0.3514-1.838-1.097-2.365-3.349-2.365-1.593,0-3.77-0.5455-4.838-1.212-3.016-1.883-3.45-0.2732-0.87,3.228,4.751,6.448,10.26,6.66,9.057,0.3491zm-34.36-6.197c2.83-3.267,5.144-6.554,5.142-7.304-0.002-0.7503-0.8979,0.1024-1.991,1.895-2.738,4.491-7.734,7.439-11.51,6.79-3.557-0.6123-4.983,0.1567-5.933,3.201-0.5185,1.662-0.3004,2.25,0.8338,2.25,0.9944,0,1.32,0.5618,0.9247,1.593-1.288,3.356,7.361-2.46,12.53-8.425zm89.75,8.666c0.6294-1.018-2.6-0.9638-8.602,0.1455-4.44,0.8206-4.417,0.8307,1.793,0.7602,3.461-0.0393,6.525-0.4468,6.809-0.9057zm-12.6-2.5c0-1.001,0.5592-1.333,1.582-0.941,0.87,0.3338,2.332,0.6139,3.25,0.6223,1.448,0.0133,1.47,0.1495,0.1682,1.03-1.095,0.7413-0.6909,0.8341,1.5,0.344,4.201-0.9397,4.164-1.102-0.4274-1.877-4.64-0.7839-5.713-1.836-3.746-3.673,0.7539-0.7042,1.161-2.081,0.9053-3.06-0.5939-2.271,4.188-2.503,6.381-0.3091,1.294,1.294,1.135,1.559-1.321,2.206l-2.792,0.7358,2.955,0.5459c1.817,0.3356,3.165,1.316,3.5,2.544,1.136,4.166,2.925,2.583,2.478-2.192-0.5441-5.804,0.1191-5.347-8.727-6.016l-7.487-0.5663,0.7434,4.065c0.4089,2.236,0.3665,4.66-0.0941,5.386-1.166,1.839-1.077,4.068,0.1319,3.321,0.55-0.3399,1-1.315,1-2.166zm-34-3.834c0-5.058-0.1809-5.494-2.25-5.43-2.163,0.0676-2.173,0.1069-0.25,1.016,1.467,0.6939,0.867,0.8054-2.25,0.4179-2.548-0.3167-4.25-0.123-4.25,0.4835,0,0.9289,3.336,1.456,7,1.105,1.118-0.1069,1.049,0.1331-0.2702,0.9425-0.9736,0.5972-2.661,0.8031-3.75,0.4575-2.264-0.7184-2.328-0.5394-1.032,2.87,0.6246,1.643,1.904,2.638,3.75,2.915,1.541,0.2319,2.914,0.489,3.052,0.5714,0.1375,0.0824,0.25-2.325,0.25-5.35zm-150,3.913c0-0.2541-1.077-0.8714-2.393-1.372-2.577-0.9799-6.889-0.3061-6.11,0.9548,0.5026,0.8133,8.503,1.206,8.503,0.417zm16.39-1.583c-0.4851-0.785-0.1794-0.9613,0.929-0.536,0.9086,0.3487,1.562,0.3126,1.452-0.0801-0.1102-0.3927,0.3268-1.663,0.9712-2.822,1.021-1.838,0.8502-2.255-1.335-3.25-3.208-1.462-3.088-1.49-3.702,0.8581-0.3996,1.528-1.43,2.032-4.367,2.136-2.535,0.0898-2.993,0.2702-1.344,0.53,5.055,0.7962,6.986,1.386,6.876,2.101-0.1942,1.263,0.1024,2.232,0.6833,2.232,0.3075,0,0.2336-0.5265-0.164-1.17zm-47.61-2.564c-2.594-0.2052-7.094-0.2074-10-0.005-2.906,0.2029-0.7835,0.3708,4.716,0.3734,5.5,0.003,7.878-0.1632,5.284-0.3684zm8.741-2.226c-0.3263-0.528-2.94-0.918-5.809-0.8666s-6.678-0.2186-8.466-0.6c-2.574-0.5493-3.25-0.3691-3.25,0.8666,0,1.299,1.518,1.56,9.059,1.56,5.533,0,8.828-0.3736,8.466-0.96zm-19.52-1.04c0-0.5566-2.686-1-6.059-1-3.785,0-5.827,0.3754-5.441,1,0.3399,0.55,3.066,1,6.059,1s5.441-0.45,5.441-1zm30.98-2.794c1.913-0.0468,3.819,0.4502,4.235,1.105,0.5731,0.9014,0.7601,0.8868,0.7717-0.0604,0.01-0.7946,1.564-1.266,4.265-1.294,2.338-0.024,6.95-0.6691,10.25-1.433,5.848-1.355,5.578-1.385-10.66-1.206-9.161,0.1009-16.45-0.154-16.19-0.5665,0.256-0.4125-0.5163-0.75-1.716-0.75-1.797,0-1.968,0.257-0.9729,1.456,0.6647,0.8009,0.8905,1.971,0.5018,2.6-0.5231,0.8464-0.1816,0.8626,1.314,0.0621,1.624-0.8692,2.149-0.747,2.674,0.6222,0.4157,1.083,0.9072,1.312,1.35,0.6272,0.3829-0.5921,2.261-1.115,4.175-1.162zm-25.63-2.412c0.7339-2.806,0.3855-3.109-3.732-3.246-2.282-0.0757-3.23,0.2843-2.914,1.107,0.2573,0.6705,1.065,0.99,1.795,0.71,0.7518-0.2885,1.612,0.389,1.985,1.563,0.857,2.7,2.141,2.64,2.867-0.134zm187.4,0.4563c0.2904-0.882-0.8642-1.216-3.922-1.134-2.383,0.0638-3.546,0.3218-2.583,0.5733,0.9625,0.2515,1.75,0.9056,1.75,1.454,0,1.414,4.259,0.6145,4.755-0.8929zm-195.8-0.23c-1.925-0.3849-4.483-1.233-5.684-1.885-1.201-0.6518-4.351-1.151-7-1.109-4.816,0.0761-4.816,0.0761-1.638,1.25,1.748,0.6457,3.511,1.511,3.917,1.924,0.4061,0.4125,3.701,0.6982,7.322,0.635,5.363-0.0937,5.934-0.2448,3.083-0.8148zm-10.46-7.74c-0.02427-1.285-0.3125-2.223-0.6404-2.083-0.328,0.1395-1.366-0.385-2.306-1.166-1.477-1.226-1.668-1.226-1.404,0,0.1685,0.7806,0.7564,1.75,1.306,2.154,0.6135,0.4507,0.5016,0.7406-0.2894,0.75-1.031,0.0122-1.039,0.283-0.04391,1.349,1.907,2.042,3.426,1.591,3.377-1.004zm50.09-15.58c-0.3316-1.238-0.6091-3.188-0.6166-4.333-0.0273-4.17-2.512-2.106-2.717,2.256-0.1775,3.775,0.0608,4.327,1.867,4.327,1.659,0,1.95-0.4471,1.467-2.25zm-9.442-7-0.346-7.75-3.921,0c-3.538,0-3.921,0.2494-3.921,2.555,0,4.076-9.343,3.31-9.816-0.8048-0.475-4.128-5.184-4.018-5.184,0.1212,0,3.42,2.512,4.033,20.75,5.059,0.6875,0.0387,1.25,0.9703,1.25,2.07s-0.5625,2.047-1.25,2.105c-2.08,0.175-15.07-0.1929-17.86-0.5057-1.643-0.1845-3.011,0.3573-3.704,1.466-1.305,2.09,3.246,2.908,15.64,2.813,4.03-0.0309,7.593,0.2086,7.917,0.5323,0.8305,0.8305,0.8258,0.9109,0.4432-7.661zm-44.19,4.959c0-0.7202-0.4879-1.797-1.084-2.394-0.779-0.779-0.4993-1.494,0.9936-2.54,1.143-0.8005,1.781-1.753,1.418-2.116-0.9819-0.9819-10.33-0.8-10.33,0.201,0,0.4737-1.072,0.6564-2.383,0.4058-1.311-0.2505-2.675,0.0172-3.032,0.595-0.3571,0.5778-1.31,0.797-2.117,0.4872-1.584-0.608-2.034,2.213-0.6897,4.326,1.26,1.98,17.22,2.939,17.22,1.034zm9.168-6.553c0.2856-5.886,0.1076-6.785-1.272-6.422-1.608,0.4232-1.648,1.575-0.2647,7.664,0.466,2.051,0.3238,2.692-0.4865,2.191-0.673-0.4159-1.145-0.06494-1.145,0.8514,0,1.993-2.602,2.038-3.362,0.059-0.3166-0.825-1.377-1.468-2.357-1.43-1.559,0.0615-1.532,0.1774,0.2186,0.9297,1.1,0.4727,1.636,0.8911,1.191,0.9297-2.44,0.212,0.9584,2.07,3.786,2.07h3.359l0.3321-6.844zm-38.7-1.406c1.241-12.33,0.4151-12.75-25.13-12.75h-4.344v6.5c0,4.889,0.3452,6.5,1.393,6.5,0.7662,0,1.652,0.675,1.969,1.5,0.3882,1.012,1.807,1.448,4.357,1.34,3.667-0.1552,3.684-0.1722,0.5489-0.562-2.524-0.3139-3.594-1.163-4.881-3.876-2.057-4.335-1.649-4.729,4.856-4.684,2.892,0.02,4.245-0.1648,3.008-0.4107-5.12-1.017-2.682-4.308,3.191-4.308,5.518,0,7.308,0.9863,5.899,3.25-0.428,0.6875-0.6423,2.301-0.4763,3.585,0.2947,2.28,0.1362,2.327-6.689,2-3.845-0.1844-6.78,0.002-6.524,0.4147,0.2568,0.4125,3.028,0.8234,6.158,0.913l5.691,0.163-5.5,0.674-5.5,0.674,7,0.1477c4.839,0.1021,6.537-0.1516,5.5-0.8217-1.288-0.8321-1.257-0.9715,0.2186-0.9847,1.162-0.0104,1.52-0.5334,1.104-1.616-0.6313-1.645,1.454-3.655,2.879-2.774,1.152,0.7121,0.9829,4.375-0.2023,4.375-0.55,0-1,0.9-1,2,0,1.766-0.6667,2-5.7,2-9.93,0-4.178,2.586,6.37,2.864l5.17,0.1362,0.6291-6.25zm-32.49-8.28c0-5.308-0.3279-6.652-1.75-7.177-0.9625-0.3551-2.118-1.128-2.568-1.719-0.45-0.5901-0.6364,1.534-0.4141,4.721,0.2258,3.237,0.04202,5.223-0.4164,4.5-0.5277-0.8318-0.7979-0.2228-0.7569,1.707,0.035,1.65,0.2812,2.466,0.5472,1.812,0.329-0.808,1.103-0.5682,2.421,0.75,2.805,2.805,2.938,2.598,2.938-4.594zm47,0.5756c0,0.709,0.2203,1.069,0.4895,0.7996,0.8856-0.8856-1.954-5.732-3.612-6.166-1.213-0.3171-1.507,0.113-1.161,1.699,1.019,4.681,1.211,4.929,2.796,3.613,1.187-0.9848,1.488-0.9739,1.488,0.05404zm24.5,116.8c-2.825-1.811-2.853-1.889-0.4765-1.331,1.388,0.3257,3.638,0.1474,5-0.3961,2.005-0.8001,1.16-1-4.44-1.052-3.804-0.0349-6.642-0.338-6.306-0.6736,0.3356-0.3356,3.561-0.566,7.167-0.5119,3.718,0.0558,6.556-0.3294,6.556-0.8898,0-0.6061-5.703-0.9889-14.75-0.9901-8.112-0.001-27.31-0.3002-42.66-0.6646-17.8-0.4226-27.7-0.314-27.32,0.2997,0.3271,0.5293,0.1578,1.616-0.3762,2.415-0.7242,1.083-0.898,0.7465-0.684-1.325l0.2869-2.777,48.5,0.0908c26.68,0.0499,51.2,0.3379,54.5,0.64,4.161,0.3809,5.693,0.2286,5-0.4968-0.55-0.5753-2.8-1.225-5-1.445l-4-0.3987,4.194-0.1681c3.164-0.1268,4.883,0.4289,7,2.262,4.241,3.674,2.257,4.616-9.769,4.641-8.859,0.0187-10.65,0.296-11.93,1.846-2.273,2.765-6.982,3.179-10.5,0.9238zm340.9-2c-0.3695-0.5979-0.1051-1.61,0.5877-2.25,0.8885-0.8203,1.072-0.8283,0.6245-0.0272-0.3778,0.6756,0.3729,1.328,1.853,1.611,1.369,0.2616,2.488,0.033,2.488-0.5081s0.675-0.4236,1.5,0.2611c1.255,1.042,1.5,0.8889,1.5-0.9388,0-2.035,0.323-2.137,4.75-1.494,6.01,0.8722,7.125,1.786,1.557,1.276-3.37-0.3091-4.284-0.0367-4.656,1.386-0.5324,2.036-9.017,2.605-10.2,0.6839zm33.22,0.0215c0.7306-0.7306,2.916-0.7686,6.95-0.1207l5.884,0.9449-6.95,0.1207c-4.919,0.0855-6.639-0.1907-5.884-0.9449zm17.22,0.3746c-0.0651-0.445-0.0651-1.147,0-1.559,0.0651-0.4125-1.007-0.75-2.382-0.75s-2.5-0.4785-2.5-1.063c0-1.873,6.295-0.6184,6.571,1.309,0.1377,0.9603-0.1595,1.999-0.6606,2.309-0.501,0.3096-0.9642,0.1989-1.029-0.246zm-336.6-2.905c-1.028-2.68,2.742-4.345,9.675-4.273,4.741,0.0495,5.823,0.2846,4,0.8685-1.947,0.6236-2.076,0.8227-0.5833,0.9003,2.956,0.1537,1.143,1.249-3.62,2.186-2.363,0.4651-5.331,1.064-6.596,1.332-1.468,0.3101-2.508-0.0569-2.875-1.014zm306.6-0.4439c-2.073-1.281,0.4061-1.468,12.06-0.9097,6.325,0.3028,10.6,0.6944,9.5,0.8702-4.273,0.6828-20.48,0.7125-21.56,0.0395zm-253.4-4.534c1.068-0.8658,1.379-1.289,0.6911-0.941-0.8033,0.4069-1.25-0.1139-1.25-1.457,0-4.282,9.209-3.415,9.839,0.9267,0.3132,2.161,0.0708,2.293-3.232,1.757-1.964-0.3186-3.83-0.159-4.148,0.3548-0.3175,0.5138-1.312,0.9342-2.209,0.9342-1.379,0-1.331-0.2445,0.309-1.574zm239.9-8.37-0.7079-8.944-3.148-0.3957c-3.048-0.3832-3.032-0.4008,0.5138-0.5558,3.507-0.1532,3.685-0.00092,4.199,3.59,1.439,10.05,1.717,15.25,0.817,15.25-0.5312,0-1.284-4.025-1.674-8.944zm-242.4,3.944c-0.051-4.275,1.127-5.076,6.816-4.631,7.032,0.5493,8.066,1.88,1.177,1.516-5.192-0.2743-5.505-0.1499-6.705,2.664-1.227,2.877-1.26,2.888-1.289,0.4516zm-184.8-3.1c0.1752-7.03,0.7944-9.372,2.125-8.041,0.6469,0.6468,4.863,1.227,9.695,1.334l8.55,0.189-9,0.6221-9,0.6221,12.42,0.189c15.39,0.2342,15.26,0.8072-0.3663,1.627-6.572,0.345-12.2,0.9001-12.5,1.233-0.3027,0.3334,7.059,0.3185,16.36-0.0329,9.3-0.3515,21.68-0.6912,27.5-0.755,5.825-0.0638,9.77-0.3282,8.767-0.5875-1.187-0.3068-1.622-1.052-1.248-2.134,0.501-1.446,0.3986-1.435-0.7868,0.0875-1.145,1.47-2.864,1.722-10.75,1.578l-9.39-0.1725,8.719-0.5776c6.833-0.4527,9.104-0.9943,10.5-2.505,1.749-1.892,1.732-1.897-0.9335-0.25-5.938,3.669-21.61,1.532-22.54-3.073-0.3506-1.753,0.397-1.571,3.76,0.9152,4.544,3.36,19.61,2.265,17.43-1.267-0.2975-0.4814,0.2356-0.5773,1.185-0.2131,1.353,0.5193,1.578,0.277,1.041-1.123-0.5286-1.377-0.3079-1.64,0.9666-1.151,1.044,0.4007,2.172-0.1101,3.068-1.389,0.7791-1.112,1.896-2.022,2.482-2.022,0.6747,0,0.609,0.5504-0.1791,1.5-1.454,1.752,2.824,2.273,4.55,0.5537,1.588-1.582,82.45-1.916,82.45-0.3402,0,0.7076,0.45,1.286,1,1.286s1,0.9684,1,2.152c0,2.152,0,2.152-22.25,1.683-12.24-0.2579-18.88-0.3255-14.75-0.1502,9.563,0.4064,11.67,0.91,11.67,2.792,0,0.8375-0.375,1.523-0.8333,1.523s-0.8333-0.45-0.8333-1c0-1.288-14.68-1.329-15.47-0.0433-0.3652,0.5908,1.393,0.7217,4.598,0.3422,3.883-0.4599,5.003-0.3146,4.452,0.5775-0.8502,1.376-14.31,1.36-15.16-0.0175-0.2919-0.4724,0.6958-0.8588,2.195-0.8588s2.538-0.1542,2.309-0.3426c-0.2292-0.1884-8.067-0.0393-17.42,0.3315l-17,0.6741,14.14,0.1685c11.25,0.1341,14.26,0.4618,14.69,1.604,0.303,0.7895,0.0136,1.691-0.643,2.003-0.6566,0.3124,5.389,0.3171,13.43,0.0104,16.04-0.6117,37.05,0.432,32.87,1.633-1.863,0.5354-1.178,0.7437,2.691,0.818,5.95,0.1142,7.338-1.044,4.076-3.401l-2.267-1.637,2.391,0.3186c1.397,0.1862,2.74,1.267,3.23,2.601,1.539,4.189,7.492,3.881-113.4,5.859l-39.74,0.6504,0.1096-4.396zm54.69,1.504c1.277-0.2603,2.135-1.019,1.907-1.686-0.3801-1.115-53.44-1.266-54.6-0.1559-3.217,3.071,39.37,4.559,52.69,1.842zm35.48-1.145c-5.608-0.1779-15.06-0.1786-21-0.001-5.942,0.1771-1.354,0.3227,10.2,0.3235,11.55,0.00082,16.41-0.1441,10.8-0.322zm-11.06-2.49c8.658-0.1454,15.75-0.6019,15.75-1.014,0.0099-0.916-18.44-0.9754-29.74-0.0958-4.538,0.3532-8.25,1.046-8.25,1.539,0,0.4934,1.462,0.6582,3.25,0.3662s10.33-0.6499,18.99-0.7953zm50.04,0.5049c-2.321-0.2097-6.371-0.2122-9-0.006-2.629,0.2067-0.7302,0.3783,4.22,0.3813s7.101-0.166,4.78-0.3758zm-59.28-7.842c0-1.25-1.076-1.54-5.25-1.415-7.487,0.225-7.75,0.1679-7.75-1.679,0-2.411-1.35-0.6999-1.739,2.204-0.3251,2.428-0.2238,2.462,7.204,2.462,6.185,0,7.534-0.2816,7.534-1.572zm19.56-2.383c0.5256-0.5256,4.553-1.129,8.95-1.34,4.62-0.2223,2.844-0.3466-4.206-0.2944-8.32,0.0616-12.6,0.4878-13.45,1.34-0.9995,0.9999-0.3492,1.25,3.251,1.25,2.475,0,4.93-0.43,5.456-0.9556zm48.94-1.007c1.882-0.774,1.893-0.8658,0.1857-1.561-2.213-0.9014-11.04,0.0493-13.44,1.448-2.181,1.271,10.18,1.377,13.26,0.1139zm237.5,13.99c0-0.5327,0.7875-0.7438,1.75-0.4691,0.9625,0.2748,0.625-0.0644-0.75-0.7537s-2.831-1.716-3.235-2.281c-0.4041-0.5652-0.7416-0.0152-0.75,1.222-0.0219,3.218-3.63,3.046-4.251-0.2026l-0.4688-2.453,15.35-0.2974c8.445-0.1636,15.35,0.0401,15.35,0.4526-0.00079,0.4125-5.289,0.8022-11.75,0.866-12.29,0.1213-12.64,0.31-2.75,1.456,3.3,0.3823,5.435,0.8984,4.744,1.147-0.6909,0.2486-0.9876,0.8866-0.6593,1.418,0.3283,0.5312-1.106,0.2544-3.187-0.6153-3.389-1.416-3.874-1.421-4.64-0.0513-0.9357,1.672-4.757,2.123-4.757,0.5612zm-187-7.531c0.6847-0.825,2.427-1.433,3.872-1.35,2.531,0.1443,2.517,0.1717-0.3724,0.7437-1.77,0.3503,1.51,0.8229,8,1.152l11,0.5587-11.87,0.1977c-10.45,0.174-11.72,0.0184-10.63-1.302zm-45-0.3645c3.243-0.5045,3.097-0.5908-2-1.177l-5.5-0.6326,6.083-0.163c4.813-0.129,6.083,0.1502,6.083,1.337,0,1.115-1.049,1.459-4.083,1.34l-4.083-0.16,3.5-0.5444zm226.6-2.304c0.2262-0.3677-0.9426-0.966-2.597-1.329-1.655-0.3635-3.009-1.064-3.009-1.556,0-1.724-6.224-4.151-9.145-3.567-6.513,1.303-22.85,1.873-22.85,0.7972,0-3.137,2.456-6.096,5.387-6.491,1.712-0.2303,1.224-0.3117-1.086-0.1808-3.879,0.2198-4.246,0.0213-4.824-2.609-0.8843-4.026,0.0229-4.896,5.107-4.896,4.524,0,7.598,3.279,5.8,6.189-1.169,1.891,10.25,0.2416,14.5-2.096,3.828-2.102,20.8-0.5415,22.18,2.039,1.278,2.387,0.306,5.868-1.638,5.868-2.78,0-1.598,3.842,1.317,4.284l2.75,0.4166-2.844,0.1498c-1.902,0.1002-3.013,0.7962-3.354,2.101-0.3712,1.419-1.274,1.897-3.309,1.75-1.539-0.1109-2.614-0.5025-2.387-0.8702zm4.91-10.58c-0.2493-0.6875,0.3201-1.303,1.265-1.368,2.845-0.1958-4.01-1.645-7.781-1.645-3.5,0-3.5,0-0.5,0.6778,2.937,0.6636,2.91,0.693-1.303,1.402-2.65,0.446-4.955,0.3059-6-0.3649-1.472-0.9444-1.407-1.028,0.4929-0.6295,1.93,0.405,2.05,0.2349,1.009-1.431-0.6494-1.04-1.467-1.891-1.818-1.891-1.347,0-3.019,2.97-2.313,4.111,0.4421,0.7154,0.3176,0.9369-0.3091,0.5496-0.5773-0.3568-1.308,0.0237-1.623,0.8455-0.3687,0.9609,0.04,1.511,1.145,1.542,0.9452,0.0264,3.294,0.9091,5.219,1.961s4.962,2.612,6.75,3.465c1.788,0.8536,3.29,2.108,3.339,2.789,0.0492,0.6801,0.7173-1.013,1.485-3.763,0.7674-2.75,1.191-5.562,0.942-6.25zm-31.96,2.663c0.3695-0.5979,1.522-0.8649,2.56-0.5933,1.039,0.2716,1.636,0.0858,1.328-0.4129-0.3082-0.4987-0.1213-0.9067,0.4153-0.9067s1.156,0.5398,1.376,1.199c0.2501,0.7502,0.644,0.563,1.052-0.5,0.5746-1.497-0.1626-1.699-6.2-1.699-6.011,0-6.916,0.2455-7.375,2-0.5873,2.246,5.517,3.06,6.844,0.9129zm-2.554-7.913c0-2.211-2.029-2.59-5.094-0.9498-2.62,1.402-1.491,2.95,2.153,2.95,2.274,0,2.941-0.4534,2.941-2zm-318.2,13.7c-0.2441-0.7324-1.901-1.116-4.165-0.9632-2.395,0.1613-3.527-0.1232-3.119-0.7836,0.3876-0.6271-0.5357-1.037-2.336-1.037-3.777,0-6.291,0.9488-5.576,2.105,0.3043,0.4924-1.326,0.8952-3.622,0.8952-3.842,0-4.128-0.1796-3.573-2.25,0.3316-1.238,0.6091-2.812,0.6166-3.5,0.01019-0.9326,3.188-1.25,12.51-1.25,10.02,0,12.5,0.2766,12.5,1.393,0,1.741-2.438,2.738-4.75,1.942-0.9625-0.3314-0.2001,0.5827,1.694,2.031,2.175,1.663,2.851,2.634,1.833,2.634-0.886,0-1.793-0.5474-2.016-1.216zm442.6,0.4792c-7.625-0.6764-6.762-3.902,1.186-4.431,4.688-0.3122,4.977-0.1911,4.977,2.085,0,2.725-0.357,2.861-6.163,2.346zm-431.9-3.5c-2.658-1.501-6.971-5.988-7.778-8.09-0.415-1.082-1.248-1.455-2.325-1.041-1.54,0.591-1.527,0.7542,0.1533,1.983,1.007,0.7365,1.381,1.339,0.8314,1.339-0.55,0-1.874-0.6607-2.941-1.468-1.389-1.051-4.703-1.477-11.66-1.5l-9.715-0.0318,0.2507-10.75c0.2996-12.25,0.7793-13.61,4.539-12.85,5.623,1.138,23.16,0.9731,24.36-0.229,0.6551-0.6551,1.636-1.191,2.18-1.191,0.5437,0,0.09776,0.8299-0.991,1.844-1.74,1.621-3.546,1.819-14.94,1.632-10.36-0.1696-11.35-0.0816-4.959,0.4389l8,0.651-5.5,0.5773c-4.092,0.4295-3.068,0.5594,4,0.5071,9.004-0.0665,13.44,1.469,6.25,2.163-3.536,0.3409-4.541,2.187-1.191,2.187,1.132,0,1.781,0.45,1.441,1-0.3399,0.55-1.491,1-2.559,1s-1.941,0.5025-1.941,1.117c0,0.6346,0.888,0.8844,2.057,0.5787,1.308-0.3421,1.916-0.1115,1.669,0.6334-0.2518,0.76-3.784,1.272-10.06,1.458-8.777,0.2598-9.669,0.4637-9.669,2.211,0,1.73,0.8796,1.954,8.669,2.214,7.793,0.2597,13.49,2.289,6.426,2.289-1.597,0-2.696-0.3375-2.441-0.75,0.2549-0.4125-2.826-0.6633-6.845-0.5573l-7.309,0.1927,6.279,0.3558c3.635,0.206,6.031,0.7565,5.691,1.307-0.3344,0.5411,1.127,0.9515,3.389,0.9515,4.607,0,7.352-0.8487,6.613-2.044-0.2837-0.4591,0.4049-0.7653,1.53-0.6806,1.201,0.0905,1.846,0.6762,1.561,1.419-0.6224,1.622,7.231,10.3,9.34,10.32,0.8779,0.008,2.271,0.4515,3.096,0.9847,2.229,1.44-2.929,1.262-5.5-0.1906zm-17.5-20.81c0-0.5714-3-1-7-1s-7,0.4286-7,1,3,1,7,1,7-0.4286,7-1zm2-3.5c0-1.2-1.5-1.5-7.5-1.5-9.61,0-9.809,1.802-0.25,2.257,3.988,0.1898,7.362,0.4345,7.5,0.5438,0.1375,0.1093,0.25-0.4763,0.25-1.301zm411.5,21.72c1.145-1.193,20.5-2.105,20.5-0.9655-0.00042,0.4125-1.96,0.75-4.354,0.75s-7.232,0.283-10.75,0.6288c-4.425,0.435-6.088,0.3076-5.397-0.4133zm30-2.354c11.23-1.357,13.17-1.828,11.59-2.805-0.9233-0.5706-0.9791-1.007-0.1908-1.495,1.365-0.8435,2.714,2.248,1.482,3.397-0.4855,0.4534-5.383,1.06-10.88,1.347l-10,0.5226,8-0.967zm-65.42-1.223c0.2292-0.1986,3.792-0.6496,7.917-1.002,5.073-0.4335,7.015-0.3216,6,0.3458-1.347,0.8864-14.92,1.526-13.92,0.6562zm-258.4-5.306c-1.781-1.781-0.4606-3.333,2.833-3.333,2.833,0,3.5,0.381,3.5,2,0,1.994-4.686,2.981-6.333,1.333zm166.6-1.583c0.2465-0.6875,0.0432-2.038-0.4518-3-1.226-2.384-0.4152-2.197,2.603,0.5996,2.684,2.488,2.467,3.65-0.6822,3.65-1.106,0-1.727-0.5289-1.468-1.25zm-259.8-3.75c-0.3399-0.55-2.391-1-4.559-1s-3.941-0.45-3.941-1c0-0.5846,3.376-1,8.128-1h8.128l-0.642-4.25c-0.4509-2.985-0.3446-3.803,0.3569-2.75,2.399,3.602,1.227,7.891-2.593,9.487-4.295,1.795-4.099,1.774-4.878,0.5134zm300.7-0.8644c-2.642-1.675-1.097-9.675,1.815-9.398,2.155,0.2045,2.257,0.0934,0.7421-0.8041-0.9669-0.5728-2.17-0.7869-2.673-0.4759-1.824,1.127-9.913,1.604-10.52,0.6201-0.3407-0.5513-0.8896-5.245-1.22-10.43l-0.6003-9.428,16.61,0.113c11.38,0.0774,16.29,0.437,15.59,1.141-0.6248,0.6242-6.814,0.9722-15.76,0.8863l-14.73-0.1415,0.3229,6.641c0.4298,8.842,0.9927,11.18,2.551,10.58,0.8341-0.3201,1.139-1.753,0.867-4.08-0.2722-2.332,0.0616-3.896,0.9541-4.471,1.148-0.7402,1.152-1.027,0.0245-1.755-2.137-1.379-0.9129-4.416,2.105-5.224,1.799-0.481,2.536-0.3806,2.122,0.2889-0.41,0.6634,1.002,0.896,3.993,0.6581,3.346-0.2661,4.628-0.004,4.628,0.9482,0,0.7239,0.45,1.038,1,0.6982,0.5562-0.3438,1.001,0.4067,1.002,1.691,0.002,2.206-0.2828,2.294-6.403,1.978-6.405-0.331-6.405-0.331-7.097,2.822-0.8556,3.896-1.164,3.657,5.748,4.449l5.75,0.6583v-3.049c0-3.976,1.642-3.944,2.227,0.0439,0.2947,2.008-0.0163,3.273-0.8865,3.607-2.123,0.8148-1.556,2.17,0.6649,1.589,1.103-0.2884,2.586-0.0425,3.296,0.5465,1.573,1.306,13.62,1.766,19.43,0.7416,4.838-0.8531,7.136,1.826,5.875,6.85l-0.646,2.574-17.73-0.0153c-9.752-0.008-18.32-0.3905-19.05-0.8491zm34.8-4.37c-0.008-1.796-0.3459-2.771-0.75-2.166-1.324,1.981-19.2,1.471-22.18-0.6336-3.959-2.796-8.576-1.657-8.869,2.19-0.1253,1.644,0.1408,2.761,0.5914,2.483,0.4505-0.2784,1.444-0.1199,2.208,0.3523s7.605,0.8994,15.2,0.9494l13.81,0.0908-0.0153-3.265zm-28.8-17.71c-1.532-1.532-11.26-2.448-11.26-1.059,0,1.333,2.305,1.937,7.95,2.085,3.334,0.0869,4.164-0.1703,3.309-1.025zm28.72,11.89-2.478-2.042,4,0.5547,4,0.5547-3-1.361-3-1.361,4.309-0.0451c2.416-0.0253,4.056,0.364,3.734,0.8858-0.3164,0.512-0.118,1.214,0.441,1.559,0.559,0.3455,1.068,0.0391,1.13-0.6809,0.0627-0.72,0.2542-2.462,0.4256-3.87,0.4731-3.889-0.6381-4.818-6.15-5.142-3.095-0.1818-5.116-0.7805-5.22-1.547-0.0936-0.6875-0.2452-1.925-0.3368-2.75-0.2128-1.915-9.369-2.139-10.25-0.25-0.32,0.6875-0.4342-0.221-0.2537-2.019,0.2058-2.051-0.2388-3.728-1.194-4.5-1.099-0.8888-1.324-0.9009-0.8092-0.0435,0.5244,0.8741-1.074,1.156-6.058,1.069-3.724-0.0653-5.533-0.2921-4.02-0.5039,1.919-0.2688,2.75-0.9695,2.75-2.319,0-1.085,0.6845-1.934,1.559-1.934,0.8575,0,1.271,0.4666,0.9182,1.037-0.3959,0.6405,0.6327,1.012,2.691,0.9731,1.832-0.0351,4.82,0.2282,6.638,0.585l3.306,0.6487-0.3065-5.293c-0.3085-5.327-2.692-8.414-2.922-3.784-0.0842,1.694-0.2412,1.854-0.5733,0.5833-0.2515-0.9625-1.437-1.782-2.634-1.82-2.095-0.0676-2.101-0.1003-0.1767-0.8697,1.47-0.5877,0.5437-0.9177-3.5-1.246-6.506-0.5282-7.893,0.2594-7.774,4.415,0.0543,1.91-0.6433,3.707-1.819,4.685-1.049,0.8724-1.907,2.261-1.907,3.086,0,1.859-16.32,1.552-18.08-0.3402-0.6726-0.725-0.9135-4.484-0.6426-10.03l0.4334-8.867,6.143,0.8317c3.378,0.4575,8.081,0.8349,10.45,0.8388,3.131,0.005,3.95,0.2877,3,1.035-1.542,1.213-2.307,13.96-0.7815,13.01,0.5361-0.3313,0.9747-2.578,0.9747-4.994,0-3.127,0.5038-4.685,1.75-5.411,1.61-0.9377,1.59-1.024-0.25-1.081-1.866-0.058-1.884-0.1505-0.2675-1.378,1.603-1.218,1.548-1.4-0.75-2.447-2.044-0.9311-2.462-1.798-2.364-4.903,0.1142-3.639,0.1408-3.666,0.7578-0.7714,0.6232,2.924,0.8498,3.027,8.897,4.068,9.615,1.244,9.171,1.436,8.486-3.677-0.3369-2.512-0.1508-3.874,0.5036-3.687,0.5708,0.1628,1.083-0.1541,1.138-0.7041s-0.9125-1.285-2.15-1.632c-1.238-0.3478-4.175-1.157-6.529-1.799-2.685-0.732-4.024-1.579-3.594-2.275,0.4542-0.7348-0.0416-0.9187-1.47-0.5451-1.185,0.31-2.409,0.1527-2.72-0.3495-1.035-1.675,2.676-2.191,7.898-1.098,2.84,0.5943,6.654,1.374,8.474,1.733,2.263,0.4458,3.607,1.433,4.25,3.123,0.8444,2.221,1.421,2.44,5.69,2.157l4.75-0.314,0.5217,5.871c0.722,8.125-0.1969,9.142-7.172,7.94-5.589-0.963-6.21-0.4914-4.855,3.688,0.0892,0.275,0.1765,3.425,0.1941,7,0.0184,3.74,0.2594,5.226,0.5677,3.5,0.5308-2.973,0.5415-2.977,1.179-0.5,0.6563,2.549,10.06,4.569,10.06,2.162,0-1.268-2.514-2.162-6.082-2.162-1.605,0-2.918-0.3375-2.919-0.75-0.00034-0.4125,2.216-0.5964,4.925-0.4086,4.338,0.3007,4.884,0.1218,4.577-1.5-0.1916-1.013-0.3829-2.335-0.4249-2.938-0.1526-2.188-9.952-1.16-10.4,1.091-0.2492,1.245-0.453,0.837-0.5376-1.077-0.1795-4.065,0.5618-4.624,3.864-2.917,1.511,0.7811,2.989,1.178,3.285,0.8818,0.2962-0.2962,1.668-0.6625,3.048-0.814,3.071-0.3371,3.529,1.044,2.893,8.717l-0.474,5.715h-3.663c-3.076,0-3.69,0.3587-3.832,2.237-0.1252,1.662,0.057,1.872,0.7088,0.8178,0.6977-1.129,1.866-1.229,5.706-0.4874l4.828,0.9322,0.2772,6.79c0.1525,3.735-0.1394,7.535-0.6485,8.444-1.406,2.512-8.108,2.518-11.15,0.01zm-31.1-26.52c-0.2574-2.237-0.8756-2.805-3.316-3.043-4.863-0.4749-6.229-1.138-4.52-2.195,0.7833-0.4841,1.783-0.6584,2.222-0.3872,0.4388,0.2712,0.7978-0.0138,0.7978-0.6334,0-0.6934,0.8169-0.8671,2.125-0.4519,1.43,0.4539,1.901,0.3124,1.441-0.4326-0.3763-0.6089-2.345-1.139-4.375-1.177-4.674-0.089-8.014-1.303-6.375-2.316,0.651-0.4023,1.744-0.3851,2.429,0.0383,2.453,1.516,10.75,2.078,10.75,0.728,0-1.862-0.8405-2.144-8.699-2.919-6.974-0.6872-8.897,0.2756-6.113,3.06,0.3184,0.3184,0.1922,2.244-0.2805,4.279-1.111,4.784-1.104,5.2,0.0927,5.2,0.55,0,1-1.125,1-2.5s0.4359-2.5,0.9686-2.5,0.6813,0.7488,0.3301,1.664c-0.3736,0.9736-0.2305,1.412,0.3449,1.056,0.5409-0.3343,3.205-0.236,5.92,0.2183,4.597,0.7694,4.683,0.8342,1.245,0.9438-2.03,0.0647-3.988,0.5983-4.351,1.186-0.3631,0.5875-1.33,0.811-2.149,0.4968-1.827-0.7012-3.55,0.2357-2.766,1.504,0.3164,0.512,3.504,0.9309,7.083,0.9309,6.507,0,6.507,0,6.191-2.75zm35.18-15.22c0-0.5327-0.6801-0.7076-1.511-0.3886-1.08,0.4144-1.335,0.1215-0.8952-1.026,0.3389-0.8831,1.051-1.337,1.582-1.008,0.5674,0.3507,0.8337-0.734,0.6452-2.627-0.2935-2.948-0.6509-3.254-4.172-3.564-2.118-0.1867-4.397-0.7929-5.065-1.347-0.9178-0.7617-1.272,0.1236-1.454,3.629-0.2226,4.3-0.113,4.534,1.507,3.219,0.9607-0.7798,1.43-0.8895,1.043-0.2436-0.4108,0.6851,0.0299,1.366,1.058,1.634,1.249,0.3259,1.035,0.5139-0.7378,0.646-2.312,0.1722-2.349,0.2511-0.5,1.046,2.765,1.188,8.5,1.21,8.5,0.0314zm54.4,42.57c-0.9293-2.422,0.0432-8.94,1.373-9.203,0.7012-0.1388,0.8138-0.0236,0.25,0.256s-1.025,0.9566-1.025,1.504c0,0.925,1.84,0.7393,8.899-0.898,1.584-0.3673,2.171-0.1867,1.727,0.5316-0.3698,0.5984-2.687,1.39-5.149,1.759-5.147,0.7719-6.781,4.444-1.977,4.444,1.375,0,2.5-0.4766,2.5-1.059,0-0.5825,0.4394-0.7874,0.9765-0.4555,0.862,0.5327,18.79-1.646,24.77-3.01,2.91-0.6639,3.32-7.049,0.5-7.786-1.077-0.2814-0.6919-0.502,1-0.5733,2.644-0.1115,2.75,0.0741,2.75,4.817,0,5.706,0.4289,5.452-12,7.092-4.675,0.6169-11.88,1.764-16,2.548-4.125,0.7846-7.627,1.427-7.781,1.427-0.1548,0.00009-0.5222-0.6275-0.8166-1.395zm-60.06-7.148c-0.9036-2.355-0.0159-2.626,5.282-1.612l4.873,0.9319-4,0.2537-4,0.2538,4,0.7162,4,0.7162-4.781,0.1419c-3.481,0.1033-4.942-0.2777-5.374-1.401zm-13.35-2.907c0-2.883,0.3756-3.55,2-3.55,1.1,0,2,0.45,2,1s-0.675,1-1.5,1c-1.813,0-2.004,1.893-0.25,2.484,3.389,1.142,5.039,0.9131,5.298-0.7339,0.1513-0.9625-0.1351-1.75-0.6364-1.75s-0.9115-0.4799-0.9115-1.066c0-0.5865,1.238-0.924,2.75-0.75,2.319,0.2668,2.75,0.7871,2.75,3.316,0,2.951-0.0944,3.005-5.75,3.3l-5.75,0.2999v-3.55zm-362.7-0.16c-0.9948-2.592,0.9004-3.065,10.42-2.6,9.927,0.4855,13.05,1.49,10.27,3.298-2.241,1.455-20.09,0.8528-20.69-0.6978zm448.9,0.97c-1.788-0.2473-3.25-0.82-3.25-1.273,0-0.9746,8.923-2.461,9.758-1.625,0.3163,0.3163-0.175,0.575-1.092,0.575-0.9167,0-1.667,0.4896-1.667,1.088,0,0.7239,1.422,0.8518,4.25,0.3821,5.492-0.912,6.634-1.135,10.25-2,2.689-0.6436,2.845-0.5584,1.5,0.8219-1.586,1.628-13.68,2.872-19.75,2.031zm-423.3-2.688c0-2.659-4.087-6.808-5.528-5.612-0.728,0.6042-1.92,0.9978-2.648,0.8747-0.7283-0.1231-2.595,0.1316-4.147,0.5659-3.25,0.9091-5.177-0.4512-5.177-3.655,0-2.735-3.203-4.876-4.407-2.946-0.718,1.151-0.9349,1.151-1.393,0-0.2982-0.7497-0.634,0.4368-0.7462,2.637l-0.2041,4-0.7374-4.5c-0.4056-2.475-0.6087-5.175-0.4513-6s0.3205-1.838,0.3626-2.25c0.1036-1.016,9.082-0.822,11.58,0.25,2,0.8594,2,0.8594,0,0.9615-1.1,0.0562-2.874,0.7628-3.941,1.57-1.748,1.322-0.9254,1.468,8.25,1.468,6.127,0,10.19-0.3988,10.19-1,0-0.55-1.462-1.045-3.25-1.1-5.887-0.1806,0.8794-1.531,8.917-1.779,6.344-0.1962,7.238,0.003,7.788,1.736,0.3418,1.077,1.279,2.21,2.083,2.519,2.2,0.8442,1.809,4.72-0.5381,5.334-1.1,0.2877-2,0.9205-2,1.406,0,0.4858-0.5253,0.7709-1.167,0.6334-0.6421-0.1375-1.607,1.212-2.145,3-0.928,3.086-1.222,3.25-5.833,3.25-3.436,0-4.855-0.3991-4.855-1.365zm7.796-2.385c-0.2336-1.165-1.26-1.737-3.073-1.711-1.735,0.02512-2.723-0.4888-2.723-1.417,0-0.8008-0.2469-1.209-0.5487-0.9074-0.3018,0.3018-0.253,1.727,0.1084,3.167,0.8051,3.208,6.874,4.052,6.236,0.868zm6.584-7.641c0.5117-1.453,0.3711-1.648-0.6071-0.8395-0.7001,0.5786-2.965,1.368-5.034,1.755-4.625,0.8642-5.546,2.057-2.232,2.888,1.371,0.3442,2.493,1.085,2.493,1.647,0,1.458,4.582-3.185,5.38-5.451zm-17.69,1.463c1.262,0.4797,3.011,0.5972,3.886,0.261,2.943-1.129-0.5255-2.081-7.933-2.175-6.748-0.0863-6.977-0.0178-4.142,1.24,1.65,0.7322,3.651,0.9873,4.447,0.5668,0.7961-0.4205,2.48-0.3721,3.741,0.1076zm15.31-4.653c0-1.258-0.7681-1.47-3.75-1.038-2.062,0.2991-3.889,0.5608-4.059,0.5816-0.17,0.02077-0.0309,0.4878,0.309,1.038,1.064,1.722,7.5,1.223,7.5-0.5816zm163.5,8.655c-5.785-0.4745-7.052-0.897-7.348-2.45-0.333-1.751,0.1507-1.829,7.234-1.165,10.53,0.987,15.26,2.549,6.104,2.018l-7-0.4058,5.435,0.9832c5.335,0.965,8.252,2.117,4.482,1.77-1.054-0.0971-5.063-0.4346-8.907-0.75zm266.2,0.186c-0.8171-1.322,0.978-3.601,2.228-2.829,0.627,0.3875,1.112,0.0331,1.112-0.8129,0-0.825-0.45-1.778-1-2.118-0.55-0.3399-1-0.1149-1,0.5s-0.4573,0.8354-1.016,0.4899c-0.559-0.3455-0.7574-1.047-0.441-1.559s0.0988-0.9309-0.4837-0.9309-1.059-0.5051-1.059-1.122c0-0.792,0.4275-0.7677,1.452,0.0826,0.7986,0.6628,2.31,0.9329,3.358,0.6002,1.681-0.5336,1.893-0.1018,1.798,3.667-0.1047,4.148-3.278,6.733-4.948,4.032zm-18.66-7.059c0-2.106,1.845-4.2,3.7-4.2,1.633,0,1.7,3.2,0.1,4.8-1.776,1.776-3.8,1.456-3.8-0.6zm-131.1,0.414c-0.2349-0.2239-2.902-0.6648-5.927-0.98-3.025-0.3151-8.875-1.017-13-1.56-9.997-1.315-23.3-1.366-22.51-0.0859,0.3498,0.5661-0.0498,0.735-0.9352,0.3952-0.8504-0.3263-1.297-0.9962-0.9929-1.489,0.3059-0.495-3.049-0.9511-7.506-1.02-4.432-0.0687-8.622-0.2147-9.309-0.3243-0.6875-0.1096-2.6,0.5468-4.25,1.459-1.65,0.9119-3.788,1.475-4.75,1.251-0.9625-0.2239-1.75,0.076-1.75,0.6663,0,1.561-2.616,1.314-4.34-0.4091-0.8398-0.8398-1.244-2.392-0.9335-3.581,0.5063-1.936,0.1693-2.086-4.339-1.929-7.431,0.2589-8.212,0.1206-6.138-1.088,1.397-0.8138,1.743-2.37,1.717-7.72l-0.0333-6.7-1.967,2.361c-1.351,1.621-1.967,1.894-1.967,0.8724,0-0.8186,0.67-2.044,1.489-2.724,1.811-1.503,0.9083-3.376-1.232-2.554-1.643,0.6305-0.0338-2.017,2.243-3.689,2.649-1.946,23.34-0.8285,24.86,1.343,0.8122,1.16,1.963,1.808,2.557,1.441,0.6604-0.4082,1.049,0.2295,1.001,1.642-0.0434,1.27-0.3059,1.747-0.5833,1.059-0.7809-1.935-2.338-1.475-2.338,0.691,0,2.251-1.572,3.561-2.49,2.075-0.3455-0.559-3.103-1.016-6.128-1.016-3.412,0-5.265,0.3796-4.882,1,0.3399,0.55,0.1043,1-0.5236,1-0.7968,0-0.9497,1.737-0.5062,5.75,0.3495,3.162,0.7241,6.983,0.8326,8.489,0.2191,3.043,2.456,4.552,3.339,2.253,0.4022-1.048,1.042-1.206,2.212-0.5462,1.272,0.7173,2.375,0.0897,4.851-2.758,1.763-2.028,2.773-3.838,2.244-4.022-0.5288-0.1845-0.7152-0.7338-0.4142-1.221,0.5478-0.8864-0.808-1.311-7.75-2.425-2.043-0.328-4.012-1.077-4.375-1.665-0.414-0.6698,0.0393-0.8692,1.215-0.5343,7.12,2.028,10.58,1.93,9.405-0.2647-0.7839-1.465-1.743-1.963-3.006-1.562-1.02,0.3238-2.149,0.1131-2.508-0.4682-0.3593-0.5814-1.072-0.7981-1.584-0.4817s-0.9309,0.1712-0.9309-0.3227c0-2.84,7.562-0.5453,9.248,2.806,1.308,2.599,1.749,2.955,1.75,1.415,0.004-4.902,1.951-5.748,11.06-4.809,9.077,0.9358,9.854,1.583,8.477,7.067-0.6082,2.423-0.9015,2.519-6.339,2.077-3.135-0.2549-5.138-0.2713-4.451-0.0364,0.6875,0.2348,1.25,1.289,1.25,2.344,0,1.47,0.7582,1.946,3.25,2.044,1.788,0.0702,4.24,0.2327,5.451,0.3611,1.655,0.1756,2.336-0.4141,2.745-2.378,0.8415-4.041,0.9347-13.69,0.1446-14.96-0.3897-0.6305-0.2405-1.146,0.3314-1.146,1.811,0,2.425,5.159,1.453,12.2l-0.9404,6.804h3.783c3.368,0,3.783-0.2739,3.783-2.5,0-1.556-0.5667-2.5-1.5-2.5-0.825,0-1.464-0.7875-1.421-1.75,0.0472-1.045,0.282-1.247,0.5833-0.5,1.066,2.643,2.04,1.071,1.745-2.819-0.2815-3.712-0.0407-4.182,2.746-5.353,3.685-1.549,1.972-2.578-4.294-2.578-2.397,0-3.732-0.3974-3.359-1,0.7837-1.268,5.7-1.285,10.38-0.0356,1.989,0.5304,6.204,1.238,9.366,1.572,4.802,0.5074,5.75,0.9255,5.75,2.536,0,2.289-0.8613,2.467-2.39,0.496-1.407-1.815-10.61-3.273-10.61-1.682,0,0.6124-1.012,1.184-2.25,1.271-1.238,0.0864,0,0.4239,2.75,0.75s5.28,0.2102,5.621-0.2576c0.3416-0.4678,1.574-0.0344,2.739,0.9631,1.454,1.245,3.376,1.723,6.129,1.524,3.486-0.2517,4.011-0.018,4.011,1.787,0,2.684,2.668,2.699,3.518,0.0195,0.9915-3.124,6.657-2.335,7.593,1.057,0.9527,3.454,1.057,13.98,0.139,14.08-0.4125,0.0452-1.908,0.275-3.323,0.5105s-2.765,0.2451-3,0.0212zm5.073-2.676c0-0.5158-1.462-1.005-3.25-1.088-3.025-0.1395-3.06-0.1787-0.5-0.5664,2.567-0.3889,2.75-0.7411,2.75-5.291,0-6.231-2.436-7.77-4.301-2.717-0.5053,1.369-1.577,1.713-4.676,1.5-3.906-0.2679-5.237-1.204-2.846-2.001,1.54-0.5135,0.1258-2.774-1.736-2.774-0.7925,0-1.441,0.8734-1.441,1.941s-0.45,2.219-1,2.559c-0.55,0.3399-0.9684,1.604-0.9297,2.809,0.0678,2.112,0.1011,2.119,0.9297,0.191,0.7115-1.656,0.8715-1.419,0.9297,1.378,0.0703,3.378,0.0703,3.378,4.32,2.736,2.788-0.4212,3.757-0.3196,2.816,0.2951-1.066,0.6964-0.5523,1.021,2,1.264,1.889,0.1799,4.222,0.4116,5.184,0.515,0.9625,0.1033,1.75-0.2342,1.75-0.75zm-23.24-3.507c-0.3129-0.3129-2.747-0.8804-5.409-1.261-4.332-0.6196-4.911-1.006-5.521-3.681-0.6604-2.9-0.6756-2.885-0.5079,0.5069,0.1494,3.02,0.5807,3.582,3.173,4.132,3.952,0.8379,8.984,1.023,8.264,0.3038zm3.042-9.903c-0.1684-0.1378-3.006-0.541-6.306-0.896-4.107-0.4418-5.527-0.3328-4.5,0.3458,0.825,0.5452,3.412,0.9981,5.75,1.007,4.803,0.0173,6.658,3.87,2,4.151l-2.25,0.1362,2.25,0.4334c1.601,0.3084,2.303,1.206,2.435,3.114,0.1017,1.474,0.352,0.2682,0.5561-2.68s0.2334-5.473,0.065-5.611zm-37.81,7.293c0.001-0.3732-0.6727-1.354-1.498-2.179-0.825-0.825-1.5-2.856-1.5-4.512,0-2.875-1.498-4.966-2.698-3.765-0.7565,0.7565-1.462,9.567-0.8459,10.56,0.5882,0.9518,6.539,0.8544,6.542-0.107zm9.419-5.465c0.8685-2.263,0.5683-2.411-5.804-2.864-4.971-0.3527-5.612-0.1829-5.612,1.485,0,3.018,10.31,4.264,11.42,1.379zm-19.27-9.142c-0.6359-0.212-0.9411-0.7336-0.6781-1.159,0.263-0.4255-1.053-0.6049-2.925-0.3986s-3.68-0.0725-4.018-0.6195c-0.4988-0.8071-11.26-0.4359-12.28,0.4236-0.1399,0.118,4.248,0.7882,9.75,1.489,5.949,0.7582,10.04,1.736,10.08,2.412,0.0434,0.6255,0.3359,0.4848,0.65-0.3127s0.0507-1.623-0.5852-1.835zm163,17.16c0.1161-5.18,0.2186-5.459,0.8684-2.372l0.7367,3.5,0.1316-3.417c0.1826-4.739,0.7519-3.596,1.452,2.917,0.3251,3.025,0.3423,4.919,0.0382,4.208-0.4245-0.9918-0.8786-1.021-1.956-0.1276-1.179,0.9782-1.382,0.2261-1.271-4.708zm10.37,3.628c-0.3399-0.55-0.3399-1.45,0-2,1.021-1.651,3.359-1.132,4.5,1,1.168,2.182-3.173,3.146-4.5,1zm-259.9-1.177c0.2797-0.4526,1.27-0.8236,2.2-0.8245,0.93-0.00086,0.129-0.7884-1.78-1.75-4.255-2.143-4.801-3.971-4.929-16.5l-0.0997-9.75h4.441c5.182,0,6.868,1.719,3.73,3.803-2.231,1.481-2.95,5.597-1.171,6.697,0.55,0.3399,1-0.098,1-0.9732,0-3.437,7.725-3.646,11.76-0.3188,2.426,2.001-0.006-2.215-2.668-4.624-3.931-3.558-2.738-4.613,4.602-4.068,7.396,0.5486,8.267,1.25,8.29,6.674,0.0147,3.539,0.1689,3.702,3.765,4,3.042,0.2517,3.812,0.7459,4.077,2.615,0.5017,3.539-1.415,5.136-5.389,4.491-2.649-0.4299-3.438-0.2106-3.438,0.9563,0,1.913-3.145,2.761-7.573,2.042-2.211-0.3587-3.427-0.1547-3.427,0.5746,0,0.645-1.652,1.131-3.845,1.131-4.2,0-7.176-2.33-7.125-5.579,0.0293-1.849,0.0715-1.846,1.124,0.0787,2.357,4.309,8.417,5.285,9.66,1.556,0.2447-0.7341-0.0125-1.052-0.5715-0.7065s-1.536,0.002-2.171-0.7636c-0.8824-1.063-0.8501-1.514,0.1367-1.91,0.7105-0.2851,0.3274-0.5538-0.8513-0.5972s-2.436,0.6833-2.793,1.615c-0.5322,1.387-1.047,1.07-2.839-1.75l-2.189-3.444-0.3114,3c-0.1713,1.65-0.5885,3.675-0.9272,4.5s-0.5443,1.838-0.457,2.25c0.0873,0.4125-0.3178,0.75-0.9003,0.75-1.675,0-0.1777,1.705,1.997,2.274,1.86,0.4863,1.882,0.3818,0.4006-1.879-2.053-3.133-0.8922-3.037,3.017,0.2495,2.725,2.292,4.872,7.233,2.507,5.771-0.4742-0.2931-0.8635-0.1688-0.8652,0.2761-0.002,0.445-1.554,0.8418-3.45,0.8819s-3.218-0.2974-2.938-0.75zm22.39-11.68c0-7.29-1.367-13.92-2.827-13.7-1.913,0.2808-2.665,2.133-1.226,3.022,1.466,0.9059,1.316,4.127-0.2664,5.711-2.509,2.513-2.675,5.669-0.3227,6.13,4.124,0.8071,4.642,0.6775,4.642-1.162zm7.377,11.05c0.3605-0.5834,0.1982-1.343-0.3608-1.689-0.559-0.3455-1.016-0.1203-1.016,0.5004s-1.012,0.9848-2.25,0.809c-4.113-0.5841-2.671-3.32,1.75-3.32,4.088,0,6.011,3.163,2.611,4.296-0.7984,0.2661-1.11,0.012-0.7337-0.5976zm270.4-1.229c-1.478-0.4198-2.94-0.5098-3.25-0.2-0.3098,0.3098-0.5633,0.0383-0.5633-0.6034,0-1.166,1.144-1.522,4.035-1.255,0.8797,0.0812,1.6-0.7236,1.688-1.885,0.1147-1.523-0.4532-2.026-2.285-2.026-1.341,0-2.438-0.4785-2.438-1.063,0-0.5973,1.424-0.926,3.25-0.75,2.886,0.2783,3.286,0.6914,3.573,3.691,0.3961,4.143-0.5246,5.083-4.01,4.093zm-13.15-1.914c-1.742-0.822-5.418-1.733-8.168-2.025-4.23-0.4488-5.049-0.8771-5.32-2.781-0.3572-2.515,1.287-3.081,2.181-0.75,0.398,1.037,2.051,1.51,5.357,1.532,2.63,0.0175,5.655,0.6925,6.723,1.5,3.137,2.373,6.763,1.928,6.378-0.7818-0.3385-2.383,0.4986-2.16-16.1-4.293-6.38-0.82-8.739-2.459-3.53-2.453,3.882,0.004,20.8,2.655,21.52,3.37,0.27,0.27,0.1831,2.313-0.1932,4.54-0.7697,4.556-2.725,5.029-8.847,2.141zm-301.5-1.594c-1.065-1.208-1.022-1.462,0.25-1.462,2.146,0,1.942-1.864-0.2106-1.925-3.698-0.1035-24.81-0.9119-25.89-0.9916-0.801-0.0589-0.9825-2.597-0.6113-8.548,0.4242-6.8,0.2058-8.956-1.111-10.96-1.918-2.927-2.227-4.758-0.3757-2.226,1.205,1.648,12.35,3.098,21.02,2.735,5.867-0.2459,6.532,0.9388,5.973,10.64-0.4165,7.237,0.5443,11.25,1.361,5.69,1.854-12.63,1.638-16.31-0.9959-16.97-3.145-0.7894-2.486-2.49,0.8575-2.213,1.308,0.1083,2.159,0.5514,1.891,0.9847-0.2678,0.4333-0.0479,0.7879,0.4888,0.7879,0.5366,0,1.223-0.5625,1.526-1.25,0.7321-1.662-0.2366,5.527-1.557,11.55-0.5788,2.642-0.7767,5.08-0.4397,5.417s0.6127-0.3623,0.6127-1.554c0-1.518,0.614-2.167,2.052-2.167,1.847,0,2.022,0.5239,1.75,5.25-0.2466,4.284-0.6244,5.224-2.052,5.111-1.098-0.0871-1.75,0.5648-1.75,1.75,0,2.24-1.011,2.367-2.789,0.3508zm-4.338-7.362c0.8824-0.559-1.619-1.145-7-1.64-12.31-1.133-12.87-1.128-12.87,0.09143,0,0.7188,2.907,1.172,8.154,1.27,4.485,0.0844,8.385,0.3841,8.667,0.666,0.7151,0.7151,1.461,0.6204,3.052-0.3878zm1.127-9.771c0-2.532-0.4286-3.329-1.789-3.329-1.295,0-1.779,0.7598-1.75,2.75,0.035,2.445-0.4049,2.821-3.961,3.389-3.525,0.563-3.317,0.6318,1.75,0.5789l5.75-0.06v-3.329zm-16.91-1.526c-0.8836-4.32-2.777-4.639-3.255-0.5474-0.3311,2.836-0.064,3.373,1.755,3.523,1.898,0.157,2.071-0.1864,1.5-2.976zm73.66,19.03c-2.703-0.9871-2.75-1.149-2.75-9.421,0-4.629-0.002-8.739-0.004-9.132-0.005-1.016,13.98-1.132,14.6-0.1208,0.2845,0.4599,2.066,0.8362,3.958,0.8362,3.357,0,3.441,0.09913,3.441,4.066,0,5.349-1.478,7.934-4.535,7.934-1.524,0-2.465,0.5724-2.465,1.5,0,0.825,0.5625,1.507,1.25,1.515,0.8364,0.0103,0.7536,0.3422-0.25,1.003-1.235,0.8131-1.146,0.9592,0.5,0.8262,3.693-0.2981,5.623,0.1478,5,1.155-0.7924,1.282-15.14,1.158-18.75-0.1623zm4.463-3.838c-0.3108-2.118-0.9952-3-2.327-3-1.534,0-1.886-0.7469-1.886-4,0-3.6,0.25-4,2.5-4,3.626,0,3.069-1.686-0.75-2.268-1.788-0.2722-3.272-0.4358-3.298-0.3635-0.0263,0.0723,0.1987,3.488,0.5,7.591,0.5066,6.898,0.736,7.511,3.048,8.15,1.375,0.38,2.535,0.7358,2.577,0.7907,0.0422,0.0548-0.1213-1.25-0.3635-2.9zm6.086-3.75c0.4398-0.6875,1.677-1.25,2.75-1.25,4.649,0,0.8398-3.882-4.336-4.418-0.4326-0.0448-1.157-0.6818-1.611-1.415-1.451-2.348-2.014,1.445-1.184,7.973,0.1409,1.108,3.545,0.4175,4.381-0.8889zm7.355-7.707c-0.7058-1.839-6.025-2.154-5.414-0.3207,0.3776,1.133,4.788,2.822,5.633,2.158,0.2054-0.1617,0.1071-0.9884-0.2186-1.837zm168.7,12.5c-0.6318-1.674-1.863-3.043-2.736-3.043-0.9202,0-1.587-0.8402-1.587-2,0-2.973,11.72-2.332,12.73,0.6967,0.2657,0.7972-1.042,0.7135-4.335-0.2776-5.921-1.782-8.799-1.849-5.713-0.1337,1.201,0.668,2.271,1.665,2.377,2.215,0.1062,0.55,0.4032,1.548,0.6601,2.217,0.2568,0.6694,0.3056,1.701,0.1082,2.293-0.1973,0.592-0.8757-0.2932-1.507-1.967zm30.08-0.1955c-0.5128-0.8298,0.45-0.9963,3.441-0.5952,4.032,0.5409,4.153,0.474,4.153-2.302,0-2.478-0.4684-2.947-3.511-3.518-5.251-0.9851-5.736-2.862-0.5594-2.168,5.169,0.6933,4.928,0.4526,5.569,5.556l0.5252,4.18h-4.453c-2.449,0-4.773-0.5185-5.165-1.152zm-15.74-5.514c-0.3667-0.3667-0.6667-1.957-0.6667-3.534,0-2.571,0.2843-2.821,2.75-2.416,1.512,0.2486,3.088,0.489,3.5,0.5342,0.4125,0.0452,0.6978,1.095,0.634,2.332-0.0873,1.693-0.2292,1.817-0.5733,0.5-0.5495-2.103-4.311-2.364-4.311-0.2997,0,0.7977,0.7875,1.909,1.75,2.47,1.592,0.9273,1.562,1.022-0.3333,1.05-1.146,0.0167-2.383-0.2696-2.75-0.6363zm-74.11-4.311c-5.521-0.5841-5.763-0.9971-6.912-11.81-0.7818-7.361,1.169-8.244,12.61-5.703,9.992,2.219,11.73,3.26,9.098,5.452-1.392,1.159-1.853,2.91-1.853,7.042v5.5l-4,0.0228c-2.2,0.0125-6.224-0.2124-8.942-0.5zm11.44-5.41c0-2.291-0.6088-3.868-1.75-4.533-1.61-0.9377-1.59-1.024,0.25-1.08,3.332-0.1013-0.3265-1.654-5.738-2.435-2.606-0.3761-5.415-1.361-6.242-2.188-3.148-3.148-4.284,3.519-1.256,7.373,0.6665,0.8486,0.6024,1.25-0.1997,1.25-0.7018,0-0.8592,0.5075-0.3878,1.25,0.4365,0.6875,0.8568,1.588,0.934,2,0.0772,0.4125,0.1986,0.8625,0.2698,1s3.277,0.3909,7.125,0.5631l6.995,0.3131v-3.513zm-79.25,3.648c-3.162-0.1984-5.75-0.8098-5.75-1.359,0-1.494,12.25-0.6799,12.75,0.8476,0.227,0.6875,0.0377,1.165-0.4206,1.061s-3.421-0.3515-6.583-0.5499zm46.25-0.7274c-6.325-0.5685-11.95-1.293-12.5-1.609-0.55-0.3166-2.575-0.666-4.5-0.7763-1.925-0.1104-7.1-0.6169-11.5-1.126-4.4-0.5087-12.52-1.45-18.05-2.093l-10.05-1.168,0.331-7.131c0.3954-8.517-0.4326-10.44-3.651-8.473-1.84,1.124-2.166,2.154-2.01,6.342,0.312,8.349,0.8351,7.869-7.811,7.169-12.72-1.03-15.38-2.109-14.7-5.967,1.005-5.7-0.4679-13.02-2.314-11.49-0.8593,0.7095-2.502,1.29-3.651,1.29-1.955,0-2.066,0.4555-1.742,7.131,0.1905,3.922-0.0672,7.387-0.5727,7.699-0.6338,0.3917-23.68-1.742-24.84-2.3-0.0876-0.0421,0.2431-9.038,0.4221-11.48,0.2603-3.552,2.005-0.2203,2.33,4.45l0.3131,4.5,9.697,1.028c9.411,0.9973,9.713,0.9662,10.22-1.053,0.7964-3.173-0.3038-7.817-2.21-9.328-1.527-1.211-1.444-1.285,0.7929-0.7023,1.704,0.4438,2.022,0.3637,1-0.2516-1.891-1.138-16.09-3.44-16.8-2.724-0.2925,0.2925,0.2504,0.5318,1.206,0.5318,0.956,0,2.455,0.7165,3.33,1.592,1.055,1.055,2.55,1.401,4.429,1.025,1.564-0.3127,2.836-0.1298,2.836,0.4077,0,1.535-7.791,1.165-8.7-0.4135-0.4398-0.7637-1.7-1.578-2.8-1.809-1.1-0.2315-1.888-0.9566-1.75-1.611,0.1375-0.6548-0.425-1.191-1.25-1.191s-1.5,0.45-1.5,1-0.675,1-1.5,1c-1.804,0-1.823-0.197-0.3395-3.453,0.6383-1.401,1.912-2.547,2.831-2.547,4.829,0,23.62,4.114,24.54,5.374,1.181,1.615,4.962,0.2342,3.931-1.435-0.319-0.5162,0.234-0.9741,1.229-1.017,1.236-0.05393,0.9566-0.3909-0.8807-1.063-3.071-1.124-3.482-2.896-2.987-12.9l0.3238-6.539,11.59,1.375c14.54,1.726,16.72,2.478,15.82,5.471-0.3681,1.228-1.029,4.707-1.469,7.732-0.4396,3.025-1.106,6.207-1.481,7.071-0.9727,2.242,5.337,4.176,7.784,2.387,1.298-0.9495,1.399-1.382,0.4136-1.777-0.9853-0.3948-0.9982-0.5413-0.053-0.601,0.8623-0.05446,1.25-2.075,1.25-6.514,0-8.744,1.107-11.46,4.416-10.83,1.408,0.2692,2.333,0.8569,2.056,1.306-0.2776,0.4491-0.0473,1.099,0.5117,1.445,0.559,0.3455,1.016,1.103,1.016,1.684,0,0.5901-1.087,0.3435-2.465-0.559-3.518-2.305-3.535-2.281-3.535,4.885,0,5.492,0.2715,6.513,1.75,6.584,0.9625,0.04641,4.338,0.4076,7.5,0.8027,6.053,0.7561,6.499,0.394,5.808-4.711-0.0987-0.7283,0.3957-2.078,1.099-3,0.7028-0.9217,0.9017-1.36,0.4418-0.9734-0.4598,0.3863-1.49,0.04881-2.288-0.75-0.7988-0.7988-2.294-1.452-3.322-1.452-3.376,0-2.938-1.595,0.5018-1.826,1.848-0.1245,3.646,0.2355,3.994,0.8,0.9652,1.562,2.307,1.228,2.911-0.7237,0.298-0.9625,0.335,0.725,0.082,3.75-0.2529,3.025-0.4638,7.188-0.4686,9.25-0.009,3.963-1.899,4.9-5.824,2.886-0.9263-0.4751-4.384-1.104-7.684-1.398-10.7-0.9524,13.04,6.056,25,7.382,9.851,1.092,11.81,1.911,10.81,4.522-0.4098,1.068,0.112,1.108,2.701,0.2052,3.728-1.3,17.71-0.6043,20.77,1.033,1.479,0.7914,2.213,2.519,2.7,6.353,0.3676,2.896,0.8825,6.026,1.144,6.955,0.8105,2.878-2.601,3.425-14.62,2.345zm11.37-7.284c-0.7737-6.869-0.2773-6.113-4.443-6.766-2.872-0.4501-3.062-0.376-1.177,0.4574,3.56,1.574,2.701,3.217-1.5,2.869-2.901-0.2401-3.685-0.7-3.463-2.032,0.3727-2.233-3.57-3.256-8.544-2.216-2.059,0.4304-4.043,0.8174-4.41,0.8601-1.618,0.1882-1.937,1.704-1.28,6.087,0.39,2.601,1.027,4.169,1.43,3.518,0.5291-0.8561,1.166-0.7345,2.349,0.4486,1.12,1.12,2.639,1.455,4.895,1.082,1.8-0.2978,5.747-0.1512,8.772,0.3258s6.066,0.9235,6.759,0.9921c0.9471,0.0939,1.098-1.299,0.6111-5.625zm-26.56-2-0.3466-4.75-5.981,0c-4.436,0-5.91,0.3422-5.706,1.324,0.1511,0.7284-0.1667,1.051-0.7063,0.718-0.5396-0.3335-0.7276-1.267-0.4178-2.074,0.3854-1.004-0.1021-1.468-1.544-1.468-1.825,0-2.107,0.5917-2.107,4.428v4.428l5.25,0.5684c8.056,0.8722,11.22,1.262,11.58,1.426,0.1802,0.0824,0.1717-1.988-0.0189-4.6zm-21.81-2.643c0-3.083-0.4716-4.574-1.582-5-2.357-0.9046-3.615-0.7352-2.918,0.393,0.3399,0.55,0.1415,1-0.441,1s-1.059-0.4215-1.059-0.9366c0-0.5152-1.462-1.078-3.25-1.25-2.083-0.2008-3.25-0.852-3.25-1.813,0-0.825-1.012-1.644-2.25-1.82-2.119-0.3009-2.25,0.03046-2.25,5.674v5.993l5.25,0.9575c10.98,2.003,11.75,1.794,11.75-3.198zm-27-2.394c0-3.775-0.014-3.788-4.25-3.878-3.158-0.06737-3.608,0.0823-1.75,0.5826,5.111,1.376,3.188,4.631-2.5,4.232-5.656-0.3975-7.85-1.701-7.18-4.264,0.2555-0.9769-0.2042-2.01-1.037-2.329-1.021-0.3916-1.302-1.345-0.8858-3.003,0.3354-1.336,0.1581-2.709-0.3939-3.05-0.552-0.3412-1.004-1.07-1.004-1.62s0.5195-0.6789,1.155-0.2865c0.7442,0.4599,0.8818,0.2723,0.3871-0.5281-1.59-2.573-2.326,0.6429-1.428,6.241,0.5125,3.195,0.6892,6.201,0.3926,6.681-0.8765,1.418,1.177,2.151,9.821,3.503,4.495,0.7032,8.285,1.33,8.423,1.393,0.1375,0.0631,0.25-1.59,0.25-3.673zm36.5-3.212c-0.3593-0.5814,0.7671-1.057,2.691-1.136,2.571-0.1058,2.778-0.2367,0.928-0.5867-3.666-0.6937-9.813,0.6708-8.05,1.787,1.939,1.227,5.199,1.18,4.431-0.06392zm-10.71-2.129c-0.6249-0.3876-0.491-0.8638,0.349-1.241,0.7497-0.3365,0.3175-0.3501-0.9606-0.03027-1.278,0.3199-3.655,0.03013-5.282-0.6438-3.294-1.364-4.232-1-3.35,1.299,0.4321,1.126,1.894,1.502,5.425,1.393,2.658-0.08173,4.377-0.4316,3.819-0.7775zm-30.29-0.8711c-2-0.8594-2-0.8594,0-1.029,1.699-0.1444,1.624-0.2905-0.5-0.9706l-2.5-0.8006,2.5-0.1666c1.944-0.1295,1.507-0.4759-1.96-1.556-3.893-1.213-7.708-0.9746-4.229,0.2641,1.002,0.3569,0.8846,0.9538-0.5,2.535-0.9961,1.138-1.323,1.785-0.7254,1.439,0.5971-0.3461,2.397-0.2372,4,0.2422,3.836,1.147,6.553,1.177,3.914,0.04341zm2.926-13.25c1.378-6.676,1.627-11.75,0.5759-11.75-0.6162,0-0.8454,0.4448-0.5093,0.9885,0.3498,0.5661-0.0498,0.735-0.9352,0.3952-0.8504-0.3263-1.3-0.991-1-1.477,0.3004-0.4861-0.1579-0.6136-1.018-0.2833-0.8606,0.3302-2.187,0.08426-2.947-0.5466-1.379-1.145-6.305-0.9496-10.09,0.3995-1.425,0.5078-1.612,0.435-0.6487-0.2535,1.009-0.7215,0.5562-1.083-1.79-1.427l-3.142-0.4611,0.2904,7.083c0.2904,7.083,0.2904,7.083,3.29,7.301,1.65,0.12,2.438-0.03004,1.75-0.3333-1.932-0.8524-1.528-4.387,0.5-4.369,1.469,0.01285,1.513,0.165,0.278,0.9462-1.819,1.15-0.8358,1.607,6.284,2.918,4.053,0.7461,4.723,0.6546,4.249-0.5801-0.3426-0.8927-0.0735-1.303,0.6881-1.05,1.997,0.665,2.038,3.537,0.0578,4.05-1.189,0.3081-0.8728,0.508,0.9239,0.5843,2.076,0.08818,2.842-0.4237,3.195-2.134zm177.6,34.29c-2.366-0.7176-2.312-0.7842,1-1.24l3.5-0.4819-3.25-0.16c-1.788-0.088-3.25-0.6582-3.25-1.267s0.7118-0.8338,1.582-0.5c0.87,0.3338,2.67,0.607,4,0.607,1.752,0,2.418,0.5514,2.418,2,0,2.121-1.553,2.391-6,1.042zm16.75-2.777c-4.409-0.3476-4.748-0.5682-4.718-3.07,0.029-2.454,0.1505-2.539,1.36-0.9452,0.7494,0.9872,3.325,2.024,5.909,2.378l4.581,0.6279-0.5808-5.628c-0.3618-3.505-0.2-5.628,0.429-5.628,1.839,0,2.276,9.3,0.5287,11.25-0.8628,0.9625-1.836,1.669-2.164,1.57-0.3272-0.0991-2.733-0.3488-5.345-0.5548zm-17-1.981c-2.385-0.3613-2.75-0.8721-2.75-3.85,0-2.767-0.3883-3.434-2-3.434-2.45,0-2.569-1.713-0.2944-4.227,1.392-1.539,1.484-2.239,0.5-3.815-0.6631-1.062-1.206-2.612-1.206-3.444,0-0.8325-0.585-1.514-1.3-1.514-1.987,0-3.7,2.148-3.7,4.641,0,2.743-1.905,4.119-3.096,2.237-0.5114-0.8073-0.8792-0.9087-0.8882-0.2447-0.008,0.6234-0.8862,1.361-1.951,1.639-1.431,0.3741-1.784,1.083-1.357,2.717,0.465,1.778,0.2075,2.138-1.315,1.836-1.305-0.259-1.796-1.066-1.58-2.601,0.2036-1.448-0.2096-2.225-1.183-2.225-0.8225,0-1.804-0.9733-2.182-2.163-0.6615-2.084-0.7244-2.093-1.732-0.25-1.696,3.104-3.112,3.526-4.846,1.445-1.613-1.937-1.648-1.935-3.5,0.1519-1.351,1.522-1.523,2.23-0.6205,2.545,0.6875,0.2405,1.25,1.128,1.25,1.973,0,1.834-18.47,0.939-20.85-1.01-1.778-1.453-3.194-1.68-12.4-1.984-4.266-0.1408-7.753-0.5827-7.75-0.9821s0.005-1.401,0.005-2.226c0-0.9276,0.9405-1.5,2.465-1.5,2.551,0,4.602-2.558,3.815-4.756-0.2476-0.6909-0.9383-0.9546-1.535-0.586-0.6986,0.4317-0.8479,0.05354-0.4195-1.063,0.5258-1.37,0.1951-1.666-1.58-1.414-1.811,0.2573-2.354,1.136-2.81,4.55-0.7282,5.456-0.3431,5.22-9.539,5.848-8.738,0.5968-10.61-0.05396-9.736-3.388,0.4943-1.89,0.7601-2.009,1.712-0.7666,0.7454,0.9726,3.598,1.617,8.419,1.903l7.292,0.432-0.3594-3.13c-0.2024-1.762,0.2371-3.728,1.006-4.499,1.154-1.157,0.9536-1.582-1.297-2.75-3.786-1.964-5.345-1.76-4.723,0.619,0.428,1.637,0.0307,2-2.187,2-1.869,0-2.873-0.6206-3.233-2-0.9052-3.462-6.258-2.769-5.798,0.75l0.3594,2.75-1.119-2.75c-2.178-5.354-4.077-2.915-2.849,3.658,0.4918,2.632,0.4877,4.863-0.01,5.17-0.4809,0.2972-0.9418-0.9487-1.024-2.769-0.137-3.025-0.1855-3.073-0.5664-0.559-0.381,2.515-0.7737,2.742-4.6,2.651-7.361-0.174-14.74-1.37-14.81-2.401-0.0385-0.55-0.4914-1.788-1.007-2.75-0.5832-1.09-0.5819-1.75,0.003-1.75,0.5252,0,0.6942-1.833,0.383-4.153-0.4012-2.991-0.2346-3.954,0.5952-3.441,0.6337,0.3917,1.159,2.373,1.168,4.403,0.0217,5.234,0.6623,5.779,8.352,7.106,8.056,1.39,7.593,1.618,6.774-3.333-0.688-4.161-3.14-6.243-3.14-2.665,0,1.146-0.4079,2.083-0.9064,2.083s-0.671-0.9-0.3834-2c0.3939-1.506,0.0307-2-1.471-2-3.047,0-9.397-2.935-8.72-4.03,0.3296-0.5334,1.585-0.9381,2.79-0.8995,2.119,0.06798,2.125,0.09997,0.191,0.9764-1.394,0.6315-0.7878,0.7215,2,0.2971,7.183-1.094,5.285-1.674-5.866-1.792l-4.866-0.05163,0.5021,6.262c0.6236,7.778,0.7325,7.719-11.38,6.175-5.482-0.6986-9.468-1.579-8.859-1.955,1.963-1.213,0.8287-12.89-1.318-13.57-2.862-0.9085-0.0959-3.424,3.661-3.329,5.408,0.1366,16.26,2.368,17.82,3.662,0.8205,0.6827,1.786,0.9472,2.146,0.5877,0.3595-0.3595,5.162-0.05703,10.67,0.6722,10.61,1.405,13.94,3.103,10.7,5.467-1.008,0.7369-1.656,2.441-1.576,4.142,0.1278,2.711,0.1643,2.735,0.5912,0.3898,0.9671-5.314,2.753-6.085,12.65-5.465,4.972,0.3117,9.55,0.99,10.17,1.507,0.6232,0.5172,1.361,0.7129,1.638,0.4349,0.6429-0.6429,26.18,1.39,38.57,3.07,4.515,0.6122,5.354,1.071,5.895,3.23l0.6315,2.516,1.352-2.58c0.9773-1.865,2.116-2.558,4.11-2.501,1.517,0.04313,3.735-0.2317,4.929-0.6106,1.54-0.4886,2.475-0.1673,3.215,1.105,0.5741,0.9866,1.058,1.231,1.074,0.5438,0.0186-0.7649,1.439-1.25,3.661-1.25,3.591,0,3.625-0.03861,3.063-3.499-0.4338-2.673-0.1698-3.691,1.119-4.316,3.938-1.909,4.666-0.9659,5.257,6.815,0.3134,4.125,0.6509,6.075,0.75,4.333s0.6947-3.338,1.324-3.548c0.8579-0.286,0.8579-0.9147,0-2.518-2.754-5.146-0.7031-7.034,5.752-5.296,4.197,1.13,5.847,4.834,2.95,6.624-0.635,0.3924-0.9128,0.3065-0.6174-0.191,0.9669-1.628-1.014-5.115-3.236-5.696-1.909-0.4992-2.097-0.2618-1.543,1.945,0.406,1.618,0.2613,2.285-0.4061,1.873-0.6988-0.4319-0.7395,0.1417-0.1249,1.758,0.5017,1.32,0.8378,3.258,0.747,4.307-0.1092,1.261,0.5687,2.012,2,2.216,1.191,0.1699,2.413,0.9528,2.715,1.74,0.4273,1.114-0.2004,1.335-2.83,0.9982-2.172-0.2781-3.556,0.0273-3.873,0.8545-0.3397,0.8853,0.2215,1.15,1.798,0.8492,1.26-0.2409,2.596,0.05433,2.968,0.6561,0.4433,0.7173-0.6356,1.105-3.133,1.126-3.381,0.02823-3.613,0.1809-2.059,1.36,2.325,1.765,2.206,2.283-0.5,2.187-3.72-0.1313-3.24,6.424,0.5625,7.691,3.518,1.173,3.805,0.868,4.435-4.721,0.282-2.502,0.9318-4.549,1.444-4.549,0.5335,0,0.6596,2.029,0.2953,4.75-1.057,7.892-0.7085,7.598-7.737,6.534zm-41-12.4c-2.64-1.489-2.189-3.171,0.5-1.868,1.94,0.9401,2.025,0.907,0.6167-0.2397-0.8983-0.7316-1.859-2.219-2.134-3.305-0.4292-1.693-0.5172-1.637-0.6167,0.3936l-0.116,2.369-3.597-2.744c-3.087-2.355-3.547-2.478-3.24-0.8687,0.1972,1.034,1.362,2.019,2.597,2.195,1.232,0.1758,2.24,0.7383,2.24,1.25s0.0149,1.268,0.0331,1.68c0.0182,0.4125-1.669,0.9969-3.75,1.299l-3.783,0.5487,5.5,1.025c5.748,1.072,8.99,0.0935,5.75-1.735zm-13.75-2.829c0-1.068-0.4078-2.193-0.9061-2.501-0.4984-0.308-0.6709-1.46-0.3834-2.559,0.3747-1.433,0.0301-1.999-1.216-1.999-1.507,0-1.556,0.2249-0.3666,1.687,1.202,1.478,1.155,1.606-0.3776,1.031-0.9625-0.3607-1.75-0.2503-1.75,0.2454s0.9,1.187,2,1.536c2.462,0.7813,2.657,3.506,0.25,3.485-1.158-0.01013-1.352-0.2685-0.5739-0.7633,0.8245-0.5244,0.4946-1.355-1.104-2.779l-2.28-2.031-0.08,2.812c-0.044,1.547,0.3091,2.572,0.7846,2.278,0.4755-0.2939,1.147-0.07697,1.493,0.482,1.139,1.844,4.51,1.153,4.51-0.9247zm-69-10.3c-0.022-4.673-0.8859-5.473-6.485-6.012-2.75-0.2645-6.012-0.8162-7.25-1.226-2.086-0.691-2.25-0.4497-2.25,3.312,0,4.609,0.3542,4.956,6.235,6.116,8.612,1.698,9.767,1.438,9.75-2.19zm120.4-4.91c-0.2841-0.4596-1.165-0.8357-1.957-0.8357-1.809,0-1.981,5.649-0.191,6.26,1.303,0.4449,3.05-3.966,2.148-5.425zm-276.5,24.72c-0.2415-0.2415-3.927-0.6943-8.19-1.006-4.263-0.3118-8.528-0.9761-9.478-1.476-0.9496-0.5-3.302-1.351-5.227-1.892l-3.5-0.9826,3.316-0.1021c1.824-0.0562,4.234,0.3894,5.356,0.99,1.763,0.9438,6.672,1.437,18.08,1.816,1.737,0.0578,2.75,0.644,2.75,1.591,0,1.38-2.077,2.089-3.106,1.061zm291.1-1.252c0.0308-3.644,1.593-4.857,4.354-3.379,1.375,0.7357,3.455,1.088,4.622,0.7825,1.79-0.4682,1.929-0.3216,0.8856,0.9357-1.191,1.435-2.362,1.408-6.127-0.1417-1.223-0.5036-1.75-0.2545-1.75,0.8275,0,0.8514-0.45,1.826-1,2.166-0.55,0.3399-0.9931-0.196-0.9847-1.191zm32.18-2.377c-4.186-0.8883-3.97-0.574-4.319-6.293-0.258-4.231,0.0328-5.101,2.244-6.711,4.102-2.988,6.88-0.4053,6.86,6.379-0.0195,6.615-0.6596,7.501-4.785,6.626zm2.273-4.804c0.841-3.829-0.324-8.128-2.203-8.128-1.291,0-1.313,0.2417-0.1494,1.644,1.204,1.45,1.124,1.568-0.673,0.9975-2.812-0.8925-3.466,5.667-0.7237,7.263,2.659,1.548,3.061,1.357,3.749-1.776zm-289.5,4.23c-0.8251-0.2251-5.1-0.7354-9.5-1.134l-8-0.7248,0.3529-10c0.1941-5.5,0.6636-10.33,1.043-10.74,0.948-1.021,26.97,2.706,28.32,4.055,0.7807,0.7807,0.6238,1.79-0.5587,3.595-0.9044,1.38-1.575,3.316-1.49,4.301,0.0847,0.9855,0.0828,3.929-0.004,6.542l-0.1588,4.75-4.25-0.116c-2.338-0.0638-4.925-0.3001-5.75-0.5252zm7.985-6.609c-0.022-6.103-2.08-7.875-6.985-6.013-1.763,0.6693-2.869,0.9032-5.25,1.11-0.9625,0.08377-1.75,0.6211-1.75,1.194,0,1.608,3.322,4.484,5,4.328,0.825-0.07651,2.062-0.191,2.75-0.2545,0.6875-0.06344,1.25-0.5919,1.25-1.174,0-0.5825-0.5625-0.7741-1.25-0.4258-0.6875,0.3482-0.4695-0.0072,0.4845-0.7899s1.441-1.716,1.083-2.074c-0.3581-0.3581-0.1261-0.6511,0.5155-0.6511,1.304,0,1.445,1.358,0.5046,4.872-0.645,2.41-3.332,2.573-11.84,0.7175-1.1-0.2399-2.386-0.4706-2.857-0.5127-0.4713-0.04208-0.598-0.7515-0.2814-1.577,0.3166-0.825,0.1397-1.5-0.393-1.5s-0.9686-0.9-0.9686-2c0-1.505,0.6667-2,2.691-2,2.428,0,2.52,0.125,0.9456,1.276-1.094,0.7998-1.499,1.92-1.084,3,0.9333,2.432,2.372,2.152,1.722-0.3355-0.3964-1.516,0.0273-2.207,1.605-2.62,1.952-0.5104,1.83-0.7291-1.364-2.441-6.179-3.312-7.22-2.735-7.316,4.055l-0.0842,5.935,5.193,0.5612c2.856,0.3087,6.543,0.7204,8.193,0.9149,9.358,1.103,9.501,1.049,9.485-3.597zm-4.331-9.505c-3.986-1.028-5.418-1.78-4.5-2.361,0.9536-0.6043,0.6169-0.8604-1.154-0.8774-1.375-0.0132-4.862-0.3078-7.75-0.6546-4.196-0.504-5.25-0.3414-5.25,0.8105,0,0.9704,1.182,1.475,3.619,1.544,1.99,0.05642,4.306,0.7894,5.145,1.629,1.094,1.094,3.538,1.511,8.631,1.472l7.105-0.05403-5.846-1.508zm-85.65,14.69c-1.599-0.47,0.4531-0.771,5.691-0.8347,4.505-0.0548,8.417,0.2666,8.694,0.7143,0.6292,1.018-11,1.115-14.39,0.1204zm354-1.01c-2.206-1.342-3.105-2.518-2.709-3.548,0.3252-0.8475,0.5913-3.545,0.5913-5.994,0-4.144,0.1392-4.379,2-3.383,1.1,0.5887,2,1.531,2,2.094,0,0.5631-0.403,0.7748-0.8955,0.4704-1.269-0.7844-1.888,7.373-0.6365,8.396,1.03,0.8421,3.915,1.372,6.282,1.154,0.6875-0.06333,1.243-0.9027,1.235-1.865-0.0117-1.34-0.2133-1.438-0.8608-0.4162-0.6808,1.074-0.964,1.025-1.453-0.25-0.3343-0.8711-0.1719-1.584,0.3608-1.584,1.54,0,1.124-4.334-0.6615-6.882-1.574-2.247-1.559-2.289,0.4323-1.224,2.39,1.279,3.041,2.991,3.357,8.829,0.2586,4.779,0.2606,4.776-3.2,5.603-1.661,0.3969-3.683-0.0879-5.841-1.4zm-251-0.34c-2.1-2.639-2.376-5.805-0.4587-5.247,1.017,0.2957,4.886,0.8425,8.599,1.215,3.712,0.3727,6.75,1.075,6.75,1.561,0,0.4859-0.45,0.8835-1,0.8835s-1,0.675-1,1.5-0.675,1.5-1.5,1.5c-1.813,0-2.003-2.595-0.25-3.425,0.6875-0.3257-1.225-0.3992-4.25-0.1633-3.566,0.278-4.797,0.1299-3.5-0.4209,1.768-0.7511,1.681-0.8579-0.75-0.92-1.512-0.03866-2.75,0.3316-2.75,0.8227,0,1.074,2.463,2.107,5.023,2.107,1.023,0,2.129,0.437,2.459,0.9711,0.8341,1.35-6.288,0.979-7.372-0.3836zm-47.09-3.338c2.076-9.634,1.665-16.6-1.021-17.31-2.143-0.5694-2.25-0.7703-0.75-1.409,3.944-1.678,4.951,0.01344,4.295,7.219-1.067,11.73-1.644,15.25-2.5,15.25-0.4578,0-0.4688-1.688-0.0244-3.75zm286.2,2.061c-2.69-0.5388-2.972-3.648-0.801-8.844,1.677-4.013,3.062-4.639,2.14-0.9679-0.463,1.845-0.2294,2.5,0.8916,2.5,2.313,0,1.811,2.956-0.6572,3.87l-2.176,0.8051,2.237,0.5851c2.721,0.7115,3.569-0.9957,2.742-5.517-0.3264-1.783-0.1864-3.886,0.3109-4.673,1.148-1.816,2.367,3.988,1.89,8.998-0.3422,3.593-1.64,4.233-6.577,3.244zm-292.7-8.06c0.1828-5.31,0.5789-6.819,1.857-7.073,1.377-0.274,1.624,0.7558,1.624,6.75,0,6.225-0.2227,7.073-1.857,7.073-1.649,0-1.831-0.7568-1.624-6.75zm-65.02,5.05c-2.75-0.187-9.5-0.7312-15-1.209-5.912-0.5141-10.7-0.499-11.72,0.03708-1.848,0.9762-3.892-1.344-5.286-5.999-0.6672-2.228-0.4958-2.347,2.834-1.958,4.176,0.4875,4.633-0.4518,4.655-9.557l0.01365-5.886,10.75,0.6784c5.912,0.3731,13.3,1.161,16.42,1.751l5.672,1.073,0.05217,7.984c0.04339,6.64-1.832,14.68-3.173,13.61-0.1234-0.09914-2.474-0.3332-5.224-0.5202zm4.667-7.05c0.09205-2.062,0.2112-5.635,0.2648-7.939l0.09747-4.189-4.515-0.5576c-2.483-0.3067-6.765-0.7865-9.515-1.066-2.75-0.2798-6.912-0.7827-9.25-1.117-4.464-0.6394-6.32,1.61-2.528,3.065,1.307,0.5014,1.414,0.8509,0.4468,1.449-0.7013,0.4334-1.52,3.537-1.82,6.896l-0.5447,6.108,6.348,0.3576c3.491,0.1967,9.61,0.4443,13.6,0.5503l7.25,0.1927,0.1674-3.75zm-15.58-0.12c-4.55-0.9852-4.468-3.132,0.1199-3.132,3.24,0,3.869-0.3349,3.869-2.061,0-1.585-0.4698-1.934-2.036-1.514-1.12,0.3008-2.936,0.5979-4.036,0.6603-1.666,0.09443-1.583,0.2469,0.5,0.914,2.157,0.6907,1.94,0.8143-1.583,0.9003-2.246,0.05482-4.352-0.1693-4.681-0.4981-1.259-1.259,0.5873-3.402,2.93-3.402,1.449,0,2.188-0.4271,1.807-1.044-1.097-1.774,1.601-4.068,3.918-3.331,1.16,0.3686,2.784,0.77,3.609,0.892,3.086,0.4563,6,1.747,6,2.659,0,0.5183-0.4189,0.6835-0.9309,0.3671s-1.214-0.118-1.559,0.441c-0.3478,0.5627,0.2908,1.016,1.431,1.016,1.392,0,2.059,0.6476,2.059,2,0,1.333-0.6667,2-2,2s-2,0.6667-2,2c0,2.12-1.674,2.375-7.418,1.132zm60.78,3.118c0.3409-2.062,0.6248-5.245,0.6308-7.073,0.009-2.599,0.3852-3.251,1.727-2.993,2.966,0.5712,1.61,13.82-1.414,13.82-1.25,0-1.439-0.7514-0.9436-3.75zm-111.4-0.64-13.5-1.11l-0.07507-9c-0.04129-4.95-0.2663-9.9-0.5-11-0.4123-1.941,0.1001-2,17.24-2,9.718,0,18.04,0.3754,18.5,0.8343,1.009,1.013,1.114,8.953,0.1279,9.696-0.3869,0.2916-0.8369,3.552-1,7.245l-0.2966,6.715-3.5-0.1395c-1.925-0.07672-9.575-0.637-17-1.245zm17.85-8.606c0.2126-5.208-0.05132-7.04-1.031-7.157-5.183-0.6162-6.817-0.4232-6.817,0.8056,0,0.8822,1.238,1.351,3.57,1.351,3.13,0,3.53,0.2772,3.25,2.25-0.3339,2.351-1.05,2.461-7.57,1.168-1.885-0.374-3.25-0.2354-3.25,0.33,0,0.5362,1.238,0.7397,2.75,0.4523,2.469-0.4691,2.61-0.3527,1.378,1.139-2.289,2.771-14.05,1.668-14.85-1.392-0.708-2.707-4.995-3.117-5.686-0.5434-1.595,5.941-1.05,6.588,5.66,6.714,3.438,0.06429,9.175,0.4457,12.75,0.8475s7.189,0.7992,8.031,0.8831c1.219,0.1215,1.589-1.272,1.817-6.848zm-10.76-8.05c1.079-0.5776,1.698-1.478,1.375-2-0.3411-0.5519,1.846-1.017,5.222-1.11,3.195-0.08802,4.459-0.3199,2.809-0.5153s-8.625,0.03697-15.5,0.5164-10.19,0.9363-7.372,1.015c3.189,0.08934,5.598,0.7107,6.372,1.644,1.455,1.753,4.32,1.934,7.094,0.4498zm-28.32,12.3c-1.067-8.88-0.3212-21.71,1.28-22.02,0.947-0.183,2.203,1.074,3.234,3.236,1.932,4.054,1.402,4.534-1.398,1.284-1.93-2.243-1.935-2.213-1.581,9.5,0.3385,11.2-0.5773,15.97-1.534,8zm366.9-1.97c-1.512-0.2291-2.751-0.9492-2.753-1.6-0.002-0.7867-2.398-1.234-7.144-1.332-9.429-0.1966-19.85-1.342-19.85-2.181-0.00001-0.6332,3.886-0.6558,17.26-0.1003,7.004,0.2909,7.262,0.06826,6.133-5.286-0.8899-4.218-4.395-6.896-4.395-3.357,0,2.014-4.573,2.129-5.338,0.1345-0.3765-0.981,0.3054-1.583,2.143-1.891,1.482-0.2485-0.005-0.4641-3.305-0.4792-3.3-0.01509-6.51-0.06429-7.133-0.1093-1.334-0.09641-2.508-5.082-1.197-5.082,0.491,0,1.123,0.6,1.404,1.333,0.2814,0.7333,1.955,1.338,3.719,1.343,5.883,0.01839,14.71,1.456,14.71,2.395,0,0.5104,1.541,0.928,3.424,0.928,11.44,0,14.75,2.331,16.1,11.34l0.6986,4.659-5.864-0.1498c-3.225-0.08241-7.101-0.3373-8.614-0.5664zm11.47-2.891c-0.6218-4.23-2.212-8.392-3.207-8.392-0.468,0-1.675-0.3099-2.683-0.6887-1.331-0.5005-1.135-0.02236,0.7172,1.75,1.402,1.341,1.817,1.876,0.9213,1.189-0.8953-0.6875-2.332-1.25-3.192-1.25-0.8604,0-1.823-0.675-2.14-1.5-0.3511-0.915-1.866-1.5-3.883-1.5-3.256,0-3.302,0.06262-2.926,4,0.2327,2.44,0.8931,4,1.693,4,0.7214,0,1.462,0.4323,1.645,0.9607,0.3636,1.048,10.71,4.079,12.33,3.612,0.55-0.1585,0.8748-1.14,0.7218-2.181zm-167.2,0.4163c-12.06-2.028-11.46-1.583-11.8-8.741-0.4142-8.742-0.977-8.414,13.3-7.759,3.3,0.1514,6.45-0.04313,7-0.4323,0.6516-0.461,0.8753,2.269,0.6422,7.834-0.2543,6.071-0.0374,8.343,0.75,7.856,0.6093-0.3766,1.108-0.0788,1.108,0.6617,0,1.639-3.578,1.828-11,0.5804zm8-8.368,0-5.441-4.25-0.09968c-2.338-0.05482-5.375-0.4168-6.75-0.8044-3.004-0.8467-7-0.2303-7,1.08,0,0.5183,0.4697,0.6521,1.044,0.2973,0.5741-0.3548,1.687-0.1117,2.472,0.5403,0.7856,0.652,3.128,1.293,5.206,1.424s4.79,0.3113,6.028,0.4007c1.658,0.1197,2.219,0.7545,2.134,2.412-0.0873,1.693-0.2292,1.817-0.5733,0.5-0.3014-1.153-1.37-1.716-3.134-1.65l-2.677,0.09968,2.5,0.7159c2.5,0.7159,2.5,0.7159-0.467,1.303-2.109,0.4175-3.41,0.08551-4.5-1.148-1.918-2.172-6.096-3.399-5.401-1.586,0.2655,0.6918-0.2182,1.527-1.075,1.855-3.884,1.49-1.697,4.501,3.693,5.085,13.79,1.493,12.75,1.901,12.75-4.984zm49.02,8.382c-0.008-0.9222,0.7722-1.882,1.735-2.134,0.9625-0.2515,0.3426-0.5095-1.378-0.5733-1.72-0.0638-3.745-0.8774-4.5-1.808-1.185-1.46-1.167-1.566,0.1276-0.7729,0.825,0.5055,3.069,0.9294,4.986,0.942,2.514,0.0165,3.58,0.5111,3.823,1.773,0.2992,1.553-0.2897,1.953-2.448,1.665-0.351-0.04698-1.019,0.5155-1.485,1.25-0.6571,1.037-0.8499,0.9603-0.8618-0.3413zm123,0.09274c0-0.6632-0.723-0.855-1.75-0.4644-0.9625,0.3661-0.0625-1.067,2-3.185,4.315-4.431,4.667-6.491,1.5-8.778l-2.25-1.625,2.5,0.3186c2.236,0.285,2.491,0.7631,2.417,4.524-0.0457,2.313,0.2918,3.974,0.75,3.691,2.876-1.778,0.0983-9.397-3.426-9.397-1.022,0-1.581-0.45-1.241-1,1.677-2.713,7.5,0.6323,7.5,4.309,0,3.202-3.199,9.592-5.585,11.16-1.528,1.002-2.415,1.168-2.415,0.4525zm-253.3-3.41c-0.5229-2.735,0.4014-3.019,6.12-1.875,5.232,1.046,4.274,4.375-1.258,4.375-3.882,0-4.438-0.2862-4.861-2.5zm329.6,1.088c0.3928-1.024,0.0664-1.588-0.9183-1.588-0.8402,0-1.25,0.45-0.9096,1,0.6973,1.128-0.5608,1.298-2.918,0.393-0.87-0.3338-1.643-1.796-1.718-3.25-0.1214-2.356-0.1833-2.398-0.5696-0.393-0.3041,1.579-1.141,2.25-2.805,2.25-3.134,0-4.152-1.767-1.254-2.179,3.061-0.4345,1.919-2.379-1.235-2.102-2.246,0.1969-2.297,0.1279-0.5-0.6797,1.7-0.7641,1.513-0.9093-1.25-0.9691-3.601-0.07788-3.955,0.4931-1.789,2.887,1.298,1.434,1.242,1.614-0.5,1.614-1.181,0-1.961-0.6779-1.961-1.704,0-0.9372-0.2731-2.416-0.607-3.286-0.7896-2.058,4.01-2.156,9.337-0.191,2.074,0.7649,6.02,1.777,8.77,2.25,4.698,0.8073,5,1.04,5,3.859,0,2.403-0.4761,3.067-2.391,3.338-1.842,0.2604-2.251-0.02647-1.781-1.25zm-281.8-0.8c-3.85-0.456-8.8-0.9978-11-1.204l-4-0.375-0.2921-7.604c-0.2711-7.057-0.4508-7.61-2.5-7.69-1.803-0.07018-1.668-0.2474,0.7363-0.9655,1.619-0.4837,7.706-0.6071,13.52-0.2741l10.58,0.6054-0.3872,7.11c-0.4802,8.819,0.9036,8.006,1.949-1.143,0.7134-6.246,0.7406-6.086,0.3669,2.166-0.4837,10.68-0.2242,10.41-8.978,9.374zm5.3-8.536-0.2999-5.75-6.5-0.644c-3.575-0.3542-7.625-0.8042-9-1-2.243-0.3195-2.532,0.02919-2.81,3.394-0.252,3.045,0.0301,3.765,1.5,3.829,1.137,0.0496,1.326,0.273,0.5074,0.601-0.9736,0.3901-0.8472,0.8597,0.5,1.858,1.733,1.284,1.732,1.326-0.027,1.079-1.006-0.1414-2.268-0.9004-2.804-1.687-0.7656-1.124-0.9068-1.002-0.6604,0.5704,0.3498,2.232,4.042,3.112,14.09,3.358l5.8,0.1419-0.2999-5.75zm-12.73,3.814c-1.87-1.183,4.156-2.389,8.998-1.801,2.918,0.3544,2.682,0.4646-1.567,0.7341l-5,0.3171,5,0.6858,5,0.6858-5.5,0.1418c-3.025,0.07798-6.144-0.2657-6.931-0.7637zm263.9,4.493c0-0.3785,0.4755-1.577,1.057-2.663,0.8275-1.546,0.5859-2.736-1.114-5.487-2.57-4.159-2.018-5.478,0.9568-2.285,2.463,2.643,2.792,8.059,0.6006,9.878-0.825,0.6847-1.5,0.9352-1.5,0.5567zm-137.4-4.2c-3.238-0.6452-6.163-1.55-6.5-2.011-0.3374-0.4609-1.738-0.9841-3.113-1.163-12.28-1.594-36.32-6.09-37.18-6.955-0.5973-0.5973-0.8154-1.791-0.4846-2.653,0.6679-1.741,55.78-2.412,58.46-0.7124,0.9124,0.5787,1.21,2.882,1,7.735-0.3446,7.956-0.5878,8.071-12.19,5.76zm9.216-5.341c-0.2094-2.195,0.0809-4.159,0.645-4.363,2.401-0.8699-0.6392-1.64-8.289-2.098l-8.186-0.4909v3.851c0,4.425,3.465,6.692,8.986,5.882,1.658-0.2433,3.014-0.07029,3.014,0.3845,0,0.4547,0.9473,0.8268,2.105,0.8268,1.852,0,2.059-0.4797,1.724-3.991zm-4.329-2.009c1.645-0.7068,1.379-0.8776-1.5-0.9615-1.925-0.05615-4.4-0.819-5.5-1.695-1.946-1.55-1.932-1.573,0.5-0.8477,1.375,0.41,3.85,0.8465,5.5,0.9701,3.708,0.2777,4.967,3.574,1.323,3.464-2.19-0.06624-2.208-0.1197-0.3233-0.9297zm-12.5-1.516c0-3.291-0.1922-3.501-3-3.287-1.65,0.1257-3,0.6729-3,1.216,0,0.543-0.54,0.4473-1.2-0.2127-1.295-1.295-9.81-1.687-9.785-0.45,0.0441,2.159,2.294,3.553,7.598,4.708,9.323,2.03,9.387,2.017,9.387-1.974zm-20-1.984c0-1.225-1.604-1.486-8.75-1.421-9.163,0.08267-9.532,0.3914-2.192,1.831,7.269,1.426,10.94,1.288,10.94-0.4098zm158.2,11.79c-1.238-0.2384-2.25-1.093-2.25-1.899,0-1.12-0.4396-1.23-1.862-0.4689-1.138,0.6093-3.86,0.6809-7.001,0.1843-3.886-0.6143-5.412-0.483-6.26,0.5385-0.6166,0.743-1.997,1.351-3.068,1.351-3.32,0-1.833-4.238,2.192-6.248,1.925-0.9616,3.107-1.749,2.628-1.75-0.4798-0.000855-0.3122-0.6766,0.3724-1.502,1.539-1.854,4.39-1.941,5.853-0.1768,0.8791,1.059,0.5044,1.236-1.878,0.8865-2.5-0.3669-2.976-0.09893-2.976,1.677,0,1.302-0.6716,2.158-1.75,2.228-2.054,0.135,5.279,1.743,8.333,1.827,1.661,0.04595,2.083-0.5506,2.083-2.942,0-1.65-0.4016-3-0.8924-3s-0.6142-0.45-0.2743-1c0.8997-1.456,2.125-1.232,4.107,0.75,0.9625,0.9625,1.89,1.65,2.061,1.527,0.171-0.1225,1.028,0.05267,1.905,0.3892,1.257,0.4824,1.318,0.7827,0.2869,1.42-0.7342,0.4537-1.593,0.3459-1.959-0.2459-1.113-1.801-1.715,0.5322-0.7775,3.014,0.5444,1.442,1.436,2.145,2.3,1.813,0.7759-0.2978,1.659,0.1052,1.962,0.8955,0.3032,0.7903,0.228,1.376-0.1672,1.301-0.3952-0.0749-1.731-0.3312-2.969-0.5696zm-298.2-2.884c-13.85-2.15-13.33-1.886-12.71-6.539,0.5347-3.987,0.5196-4.009-1.477-2.202-1.975,1.787-2.01,1.773-1.665-0.6716l0.352-2.497,15.25-0.276,15.25-0.276v7.026,7.026l-3.25-0.135c-1.788-0.07424-7.075-0.7289-11.75-1.455zm13-4.328c0-3.515-0.8894-6.082-2.107-6.082-0.4912,0-0.893,0.675-0.893,1.5s-0.4359,1.5-0.9686,1.5-0.7096-0.675-0.393-1.5c0.4742-1.236-0.4566-1.479-5.281-1.382-4.909,0.09916-5.371,0.2493-2.857,0.9275,2.558,0.69,2.264,0.7956-2,0.7168-2.75-0.0508-5.743-0.4599-6.65-0.9092-1.646-0.815-2.85,0.6922-2.85,3.569,0,1.735,10.54,4.04,20.25,4.428,3.511,0.1403,3.75-0.03625,3.75-2.768zm317.6,4.203c-0.4307-0.4315-2.434-1.247-4.451-1.812-3.264-0.9145-3.735-1.465-4.276-5l-0.6081-3.972-0.1419,3.861-0.1419,3.861-3.732-0.7001c-5.267-0.9881-7.268-2.274-7.268-4.668,0-2.053-0.019-2.052-1.783,0.1265-1.693,2.091-1.958,2.126-5.25,0.6924l-3.467-1.51,3.5-0.2132,3.5-0.2132-3.5-0.6887-3.5-0.6887,3.5-0.656c1.925-0.3608,9.8-0.5542,17.5-0.4297l14,0.2264v5.986c0,5.857-1.534,8.149-3.881,5.798zm2.381-6.191c0-3.407-0.2544-3.84-1.989-3.386-1.094,0.286-1.742,0.9189-1.441,1.406,0.3013,0.4875,0.0936,0.8863-0.4616,0.8863-0.5551,0-1.468-0.7875-2.029-1.75-0.8391-1.441-1.025-1.476-1.05-0.2-0.0167,0.8525,0.5321,2.141,1.22,2.862,1.022,1.073,0.7938,1.18-1.25,0.5876-1.948-0.5647-2.244-0.4554-1.343,0.495,0.6365,0.6709,2.662,1.575,4.5,2.01,1.838,0.4347,3.455,0.8364,3.593,0.8926,0.1375,0.0563,0.25-1.656,0.25-3.804zm-14-2.023c0-1.571-0.6478-1.896-3.496-1.75-4.002,0.2048-4.534,1.329-1.254,2.648,3.526,1.417,4.75,1.186,4.75-0.8977zm-132.8,2.679-0.1571-5.75,7.75,0.1766,7.75,0.1766-7,0.5734-7,0.5734-0.5929,5-0.5929,5-0.1571-5.75zm-225,2.781c-13.61-1.329-14.53-1.757-13.61-6.348l0.6375-3.187h14.29c7.861,0,15,0.2719,15.87,0.6043,2.7,1.04-0.4,10.51-3.3,10.26-0.9-0.08-7.1-0.67-13.89-1.334zm14.28-4.55c0-2.486,0-2.486-12.83-2.767-11.85-0.259-12.8-0.144-12.49,1.5,0.2854,1.494,2.105,1.959,11.33,2.889,13.91,1.403,13.99,1.394,13.99-1.622zm-44.5,0.9336c-3.025-0.3971-8.088-0.7666-11.25-0.821-5.44-0.09357-5.75-0.2336-5.75-2.599v-2.5h16.06,16.06l-0.3134,3.25c-0.354,3.672-3.231,4.191-14.81,2.67zm12-2.42c0-1.268-2.131-1.478-13.75-1.356l-13.75,0.1436,12.4,0.8366c6.818,0.4601,12.63,1.07,12.92,1.356,1.019,1.019,2.186,0.4955,2.186-0.9803zm289.3,1.112c-2.843-0.6116-5.506-1.449-5.917-1.862-0.411-0.4125-2.135-0.7637-3.831-0.7804-2.557-0.02522-2.788-0.2026-1.352-1.039,0.9522-0.5548,5.677-0.8787,10.5-0.7196,8.741,0.2883,8.77,0.2978,9.085,3.039,0.3582,3.113-0.0456,3.177-8.486,1.362zm-331.8-1.612c-1.1-0.4727-3.35-0.8979-5-0.945-7.25-0.2069,0.5511-2.025,8.75-2.04,8.088-0.01416,8.75,0.1359,8.75,1.985,0,2.187-8.209,2.844-12.5,1zm387,0c-0.9719-1.573,0.4044-3,2.892-3,2.954,0,3.868,0.9811,2.477,2.658-1.307,1.575-4.482,1.777-5.369,0.342z"/>
</svg>
