<?xml version="1.0" encoding="utf-8"?>
<!-- Generator: Adobe Illustrator 16.0.0, SVG Export Plug-In . SVG Version: 6.00 Build 0)  -->
<svg version="1.2" baseProfile="tiny" id="Layer_1" xmlns="http://www.w3.org/2000/svg" xmlns:xlink="http://www.w3.org/1999/xlink"
	 x="0px" y="0px" width="595.3px" height="294px" viewBox="0 0 595.3 294" xml:space="preserve">
<path fill-rule="evenodd" d="M429.8,242c-97.6,12.1-194.5,24.1-292.3,36.2c-2.7-48.3-5.4-96.1-8.1-144.5c10.3-1,20-2,29.7-3
	c25.9-2.5,51.7-5,77.6-7.5c25.7-2.5,51.4-5,77.1-7.5c19.6-1.9,39.1-3.7,58.7-5.7c7.4-0.8,7.3-0.9,10,6c1.3,3.5,2.7,7.1,4.3,11.1
	c1.7-1.1,3-2,4.7-3.1c-5.2-8.1-5.8-16.7-4.6-25.1c-4.2-1.4-7.8-2.6-11.4-3.9c-8.8-3.3-11.8-11.1-6.9-19.1c2.6-4.4,6.1-8.3,8.8-12.6
	c2.8-4.6,5.6-9.4,7.6-14.4c3.2-8.3,8.3-13.1,17.6-12.2c2.6,0.3,3.7-0.5,4.3-3.3c3.1-13.1,13.4-19.5,26.4-16.8
	c14.5,3,21.1,18.2,13.1,30.9c-2.6,4.1-2,6,1.4,9.4c8.2,8,15.9,16.6,23.4,25.3c1.7,2,1.8,5.3,2.9,7.8c1.9,4.2,4.3,8.3,6.2,12.5
	c3.7,8,0.4,17.1-7.4,21.2c-7.5,4-15.5,5.9-23.9,6.3c-6.8,0.3-11.6,3.8-16,8.9c-5.7,6.4-12,12.4-18.4,18.1c-1.3,1.2-4.5,1.4-6.1,0.6
	c-1.1-0.6-1.6-3.9-1.1-5.6c0.9-3,2.8-5.6,4.2-8.4c2.3-4.7,1.5-6.5-3.5-7.9c-1.7-0.5-3.4-1.3-5.1-2c-3.9-1.5-6.8-0.3-9.9,2.4
	c-3,2.6-1.2,4.8-0.3,7.1c11.8,31.1,23.6,62.2,35.4,93.4C428.6,238.1,429,239.7,429.8,242z M414,97.6c0.3,0.1,0.6,0.3,0.9,0.4
	c3.7-6.3,7.4-12.5,11-18.8c-0.2-0.1-0.4-0.3-0.6-0.4c-1.3,1-2.6,1.9-4.3,3.2c-1-5.4-4.2-2.5-7.9-1.5c4-3.8,7-6.8,10.9-10.6
	c0.7,0.6,2.6,1.9,4.9,3.7c2.8-4,5.9-8.5,9-12.9c-0.3-0.3-0.7-0.6-1-0.9c-2.2,2.3-4.5,4.6-6.6,6.8c-2.7-5.2-5-9.4-7.5-14
	c-10.6,4.3-13.4-5.9-20.5-12c0,6-1,10.9,0.2,15.2c2.4,7.8,0.3,15.2-4.6,19.8c-5,4.8-5.2,9-4,14.5c1.1,4.9,2.1,5.4,7.2,3.5
	c-0.9-2.1-1.8-4.1-2.9-6.5c7.5,4.9,13.7,0,21.2-2C417.6,89.8,415.8,93.7,414,97.6z M141,274c12.3-1.5,23.6-2.9,35.4-4.4
	c-0.8-8.4-1.6-16-2.4-24c-11.2,1.3-21.4,2.4-31.6,3.7c-1,0.1-2.7,1.8-2.7,2.7C139.9,259.1,140.5,266.2,141,274z M178.3,269.4
	c11.9-1.5,23.4-2.9,35.3-4.4c-1.2-8.3-2.3-15.9-3.4-23.8c-11.8,1.4-22.8,2.7-34.3,4C176.6,253.6,177.4,261.3,178.3,269.4z
	 M250.2,260.6c-1.5-8.2-2.9-15.8-4.3-23.6c-11.7,1.4-22.5,2.8-33.8,4.2c1.2,8.2,2.3,15.8,3.4,23.7
	C227.1,263.4,238.3,262,250.2,260.6z M251.9,260.3c10.9-1.3,21.4-2.5,31.8-3.9c0.8-0.1,1.9-2.5,1.7-3.7c-1-5.5-2.5-11-3.5-16.5
	c-0.5-2.5-1.6-3.4-4-3.1c-8.9,1.1-17.8,2-26.6,3.3c-1.2,0.2-3,2.6-2.9,3.8C249.2,246.6,250.6,252.9,251.9,260.3z M171.6,220.6
	c-11.4,1.2-22.3,2.4-33.7,3.7c0.5,8.2,1,15.7,1.5,23.6c11.8-1.5,23-2.8,34.4-4.2C173.1,235.8,172.4,228.6,171.6,220.6z M282.9,232.7
	c1.1,5,2,9.2,3,13.4c2.1,9.5,2.1,9.6,11.6,8.6c8-0.8,16-2,24.3-3.1c-1.8-7.1-3.2-13.6-5.1-19.9c-0.3-1.1-2.3-2.6-3.4-2.5
	C303.4,230.1,293.5,231.4,282.9,232.7z M206.7,216.6c-11.3,1.3-22.1,2.5-33.4,3.7c0.8,7.9,1.5,15.4,2.3,23.2
	c11.7-1.4,22.7-2.6,34.3-4C208.9,231.8,207.9,224.5,206.7,216.6z M317.7,228.5c2.1,8.1,3.9,15.5,5.9,23.1
	c11.4-1.4,22.2-2.8,33.3-4.2c-2.1-7.1-3.9-13.6-6.1-20c-0.4-1.1-2.7-2.3-4-2.2C337.4,226,328.1,227.3,317.7,228.5z M241.6,212.5
	c-11.3,1.3-21.9,2.5-33,3.7c0.9,7,1.6,13.4,2.8,19.7c0.2,1.1,2.1,2.8,3.1,2.7c10.2-0.9,20.4-2.2,31.1-3.4
	C244.2,227.6,243,220.5,241.6,212.5z M391.5,243.1c-2.5-7.4-4.6-13.9-6.9-20.3c-0.3-0.9-2-1.9-3-1.8c-9.7,1-19.4,2.1-29.8,3.3
	c2.2,7.2,4.1,13.9,6.3,20.5c0.3,0.9,1.9,1.9,2.8,1.8C370.8,245.7,380.7,244.4,391.5,243.1z M385.7,220.5c1.4,4.4,2.5,8,3.8,11.6
	c3.6,10.6,3.7,10.7,14.6,9.6c6.9-0.7,13.7-1.8,21.3-2.8c-2.7-7.2-5.1-13.7-7.7-20.1c-0.4-0.9-2.4-1.8-3.5-1.6
	C404.9,218.1,395.7,219.3,385.7,220.5z M136.6,200.4c0.4,7.6,0.8,14.7,1.3,22.2c11.6-1.3,22.4-2.6,33.5-3.9
	c-0.7-7.5-1.4-14.4-2.1-21.9C158.3,198.1,147.8,199.2,136.6,200.4z M311.5,204.6c1.1,4.5,2,8.5,3,12.4c2.5,9.6,2.5,9.7,12.5,8.6
	c7.4-0.8,14.7-1.8,22.6-2.8c-2.1-7-3.9-13.4-5.9-19.7c-0.3-0.8-1.7-1.9-2.4-1.8C331.5,202.2,321.8,203.4,311.5,204.6z M376.1,197.2
	c-10.5,1.2-20.7,2.4-31.3,3.7c2.3,7.7,4.4,14.7,6.6,21.9c10.7-1.3,21-2.5,32-3.9C380.9,211.4,378.6,204.6,376.1,197.2z M377.8,197
	c1.6,4.7,2.9,8.4,4.1,12.2c3.2,9.4,3.2,9.5,12.9,8.5c7-0.7,14-1.8,21.6-2.8c-2.6-6.9-4.8-13-7.3-19c-0.4-1-2.3-2-3.4-1.9
	C396.7,194.9,387.6,195.9,377.8,197z M206.4,214.7c-0.4-3.5-0.5-6.5-1.2-9.4c-1.2-5.4-7.1-11.6-10.9-11.3
	c-6.8,0.6-13.6,1.3-20.3,2.2c-1.1,0.1-2.8,1.7-2.8,2.6c0.5,6.5,1.3,13.1,2,19.7C184.7,217.3,195.4,216,206.4,214.7z M243.3,212.4
	c1.4,7.7,2.7,14.9,4.1,22.6c11.4-1.3,22.2-2.6,32.8-3.8c0.1-0.9,0.3-1.3,0.2-1.5c-3.9-6.3-7.7-12.7-11.8-18.9
	c-0.4-0.7-2.1-0.8-3.2-0.7C258.2,210.7,251,211.5,243.3,212.4z M281.7,231c11.1-1.3,21.1-2.4,31.1-3.8c0.8-0.1,1.8-2.8,1.6-4.1
	c-0.9-4.9-2.5-9.6-3.6-14.5c-0.6-2.7-1.8-3.9-4.8-3.5c-6.2,0.9-12.5,1.4-18.8,2.3c-1.2,0.2-3.2,1.4-3.3,2.3
	C283,216.4,282.4,223.3,281.7,231z M342.6,199.4c-2-6.6-3.7-12.6-5.7-18.5c-0.3-0.8-1.9-1.8-2.9-1.8c-9.3,0.9-18.7,1.9-28.5,3
	c1.7,6.6,3,12.6,4.9,18.4c0.3,1.1,2.8,2.2,4.1,2.1C323.6,201.7,332.6,200.5,342.6,199.4z M208.9,214.5c10.5-1.2,21.1-2.4,32.3-3.7
	c-1.3-7.4-2.5-14-3.8-21.3c-8.3,0.9-16.1,1.7-24,2.7c-0.8,0.1-1.6,1.1-2.1,1.9C207.2,200.3,205.5,207,208.9,214.5z M375.5,195.6
	c-2.2-6.5-4.1-12.5-6.3-18.4c-0.3-0.8-1.6-1.9-2.4-1.8c-9.4,0.9-18.7,2.1-28.7,3.2c1.8,6,3.5,11.3,4.9,16.7c0.8,3.1,2.3,3.9,5.3,3.6
	C357.1,197.6,365.8,196.7,375.5,195.6z M136.5,198.7c7.4-0.8,14.2-1.4,20.9-2.2c11.5-1.3,11.5-1.3,10.5-12.9
	c-0.2-1.8-0.2-3.7-0.4-5.5c-0.2-2.3-1.2-3.6-3.8-3.3c-6.6,0.8-13.2,1.3-19.8,2.2c-1.2,0.1-2.2,1.2-3.3,2
	C133.6,184.2,136.3,191.4,136.5,198.7z M407.8,192c-2-5.4-3.3-10.1-5.5-14.3c-1.3-2.4-4.3-5.4-6.5-5.3c-8.3,0.2-16.6,1.6-25.4,2.6
	c2.2,6.5,4.1,12.4,6.1,18.1c0.3,0.9,1.6,2,2.4,1.9C388.2,194.2,397.6,193.1,407.8,192z M133.8,154.6c8.6-0.8,16.4-1.1,24-2.4
	c2.4-0.4,5.7-3.3,6.1-5.4c0.7-4.2-0.4-8.7-0.8-13.5c-10.4,1-20.1,2-30.2,2.9C133.2,142.5,133.4,148.3,133.8,154.6z M197.3,148.4
	c-0.9-6.4-1.7-12.3-2.5-18.2c-10.4,1.1-19.9,2.1-30,3.1c0.5,4.5,0.3,8.6,1.5,12.3c0.7,2.1,3.6,5.1,5.5,5
	C180,150.4,188.2,149.3,197.3,148.4z M226.4,127.1c-10.2,1-19.8,2-29.7,3.1c0.7,5.3,1,10,2,14.5c0.3,1.3,2.5,3,3.8,3
	c5.5-0.2,10.9-0.9,16.3-1.5c3.4-0.4,6.8-0.7,10.6-1.1C228.4,138.8,227.4,133.3,226.4,127.1z M261.3,141.9c-1.4-6.5-2.7-12.1-4-17.9
	c-10,1-19.5,2-29.4,3c1,5.6,1.7,10.5,2.9,15.3c0.2,1,2,2.4,3,2.3C242.7,143.9,251.5,142.9,261.3,141.9z M265.8,162.4
	c-1.5-6.5-2.8-12.6-4.3-19c-10.1,1-19.8,2-30.1,3c0.7,2.2,0.9,3.9,1.7,5.2c2.2,3.5,4.3,7.2,7,10.3c1.3,1.5,3.8,2.7,5.7,2.6
	C252.3,164.2,258.7,163.2,265.8,162.4z M320.1,118.1c1.5,5.3,2.8,9.9,4.3,14.4c0.4,1.1,1.9,2.6,2.8,2.5c8.8-0.7,17.6-1.6,27-2.6
	c-1.8-5.5-3.3-10.4-5.1-15.1c-0.3-0.9-1.9-2-2.8-1.9C337.8,116.2,329.3,117.1,320.1,118.1z M350.1,115c1.8,5.3,3.1,9.9,5,14.3
	c0.5,1.2,2.5,2.6,3.7,2.5c8.3-0.6,16.5-1.5,25.6-2.4c-2-5.4-3.7-10.4-5.9-15.2c-0.4-0.9-2.5-1.5-3.8-1.4
	C366.8,113.5,358.8,114.3,350.1,115z M230.6,148.2c-0.4-0.5-0.9-1-1.3-1.5c-9.9,1-19.9,2-29.9,3c0.8,5.8,1.3,10.7,2.1,15.6
	c0.2,1.2,1.5,3.3,2.2,3.3c5.5-0.2,11.1-0.2,16.2-1.7c2.2-0.7,3.5-4.8,5-7.6C226.9,155.7,228.7,151.9,230.6,148.2z M335.5,177.1
	c-5.9-6.4-10.8-11.8-15.8-17.1c-0.5-0.6-1.4-1.1-2.1-1c-5.7,0.4-11.4,1-17.5,1.5c1.5,6.3,2.8,11.7,4.3,17.1c0.3,1,2,2.4,3,2.3
	C316.3,179.2,325.1,178.2,335.5,177.1z M259.2,124c0.4,2.5,0.7,4.4,1.1,6.3c2.3,11.1,2.4,11.1,13.4,10.4c13-0.8,13-0.8,14.4-13.6
	c0.1-1.2,0.8-2.4,0.4-3.4c-0.3-1-1.6-2.4-2.4-2.4C277.3,122.1,268.4,123.1,259.2,124z M303.8,182.2c-5.4,0.6-10.1,1.1-14.9,1.7
	c-1,0.1-2.6,0.9-2.7,1.5c-0.9,6.7-1.5,13.3-2.3,20.6c8.9-1,16.8-2,25.3-3C307.3,195.7,305.6,189,303.8,182.2z M325.7,137
	c2,6.6,3.8,12.6,5.6,18.6c4.6-0.5,8.8-0.7,12.8-1.4c1.5-0.2,3.3-1.1,4-2.3c2.5-4.5,4.9-9.1,6.8-13.8c0.4-0.9-1.5-3.9-2.1-3.9
	C344,135,335.2,136,325.7,137z M290.5,121c-0.4,0.5-0.7,1.1-1.1,1.6c4.7,5,9.4,10,14.1,14.9c0.3,0.4,1.3,0.2,1.9,0.2
	c5.9-0.7,11.7-1.4,18-2.1c-1.8-6-3.4-11.5-5.1-17.3C308.9,119.1,299.7,120,290.5,121z M197.7,149.9c-9,0.9-17.4,1.8-27.1,2.8
	c5.1,6.5,8.6,13.1,14.1,17.3c2.8,2.1,8.9-0.1,13.5-0.3c0.5,0,0.9-0.3,1.9-0.8C199.4,162.9,198.6,156.9,197.7,149.9z M239.2,189.8
	c1.1,6,2.1,12.2,3.3,18.4c0.2,0.9,1.7,2.3,2.5,2.2c7-0.7,14-1.6,21.8-2.6c-2.6-3.9-4.6-7-6.7-10.2c-7.2-10.9-7.2-10.9-20.2-8.3
	C239.8,189.4,239.6,189.6,239.2,189.8z M356.3,133.9c10.1,13.9,21.2,18.5,35.4,14.9c-1.4-3.2-2.7-8.9-4.2-8.9
	c-6.8-0.2-6.4-3.9-4.9-8.7C373.7,132.1,365.4,133,356.3,133.9z M169,174.8c0.5,5.7,0.9,11.5,1.7,17.2c0.1,1,2.2,2.6,3.2,2.5
	c7.2-0.5,14.4-1.5,22.5-2.3c-2.8-3.8-5.6-6.8-7.4-10.2c-4.1-8-10.2-10.6-18.7-7.8C170.1,174.3,170,174.4,169,174.8z M267.5,162.3
	c6.1-0.6,11.7-1.2,17.5-1.8c0.6-6.7,1.2-12.9,1.8-19.5c-4.7,0.4-8.7,0.7-12.6,1.1c-3.5,0.4-6.9,0.8-10.8,1.3
	C264.7,149.6,266,155.6,267.5,162.3z M367.6,173.5c-0.1-1-0.1-1.5-0.2-2c-1.4-4.3-2.7-8.5-4.3-12.7c-0.6-1.7-2-4.4-2.9-4.4
	c-3.3,0.1-8.3,0-9.7,2.1c-4.1,6-6.9,12.9-10.5,20.1C349.8,175.5,358.5,174.5,367.6,173.5z M270.4,184c-1.4-6.5-2.4-12.2-3.8-17.8
	c-0.2-0.9-1.9-2.1-2.7-2c-6.6,0.6-13.1,1.4-20.7,2.3c4.4,6.5,8.4,12.4,12.4,18.2c0.4,0.5,1.5,0.9,2.2,0.8
	C261.7,185.2,265.6,184.6,270.4,184z M363.5,154.5c1.8,5.4,3.4,10.8,5.4,16c0.4,1,2.1,2.3,3.1,2.3c7.3-0.5,14.6-1.3,23.1-2.2
	c-6.2-5.1-11.6-9-16.3-13.6C374.1,152.5,369.3,152.3,363.5,154.5z M213.2,190.3c8.7-0.9,16-1.7,24-2.5c-1.3-7.1-2.5-13.4-3.8-20.5
	c-3.6,0.8-8.1,0.5-9.3,2.3C220.1,175.7,217.2,182.5,213.2,190.3z M135.1,175.3c0.7,0.5,1.3,1.1,2,1.6c7.7-6.4,13.7-14.6,20.6-21.8
	c-0.2-0.4-0.5-0.8-0.7-1.2c-7.6,0.8-15.2,1.6-23.2,2.5C134.3,163.1,134.7,169.2,135.1,175.3z M267.9,164.1
	c1.3,6.3,2.3,11.9,3.8,17.5c0.3,1,2.5,2.1,3.7,2c2.5-0.4,6.8-1.2,7.1-2.5c1.3-6,1.5-12.3,2.2-18.9
	C278.8,162.8,273.6,163.4,267.9,164.1z M303.4,180.5c-1.6-6.3-2.9-12.1-4.8-17.7c-0.4-1-3.6-1.7-5.4-1.5c-1.8,0.2-4.8,1.4-5,2.6
	c-1.1,6-1.4,12-2,18.5C292.3,181.8,297.5,181.2,303.4,180.5z M304.9,139.2c4.4,4.8,8.2,8.5,11.4,12.7c3.6,4.6,7.5,6,13.1,3.2
	c-1.5-5.2-3-10.4-4.7-15.6c-0.3-1-2.1-2.2-3.1-2.2C316.4,137.7,311.2,138.5,304.9,139.2z M165,153.7c-0.4-0.2-0.9-0.4-1.3-0.6
	c-6.1,6.9-12.3,13.8-18.4,20.7c0.2,0.4,0.5,0.8,0.7,1.1c6.9-0.8,13.8-1.5,21-2.3C166.3,165.8,165.7,159.8,165,153.7z M294.9,140.8
	c1.4,5.5,2.8,10.8,4.3,16c0.2,0.8,1.5,1.9,2.3,1.9c4.9-0.3,9.7-0.9,15.8-1.5c-4.9-5.3-9.1-9.7-13-14.3
	C301.7,139.8,299,139,294.9,140.8z M202.2,170.9c0.9,6.3,1.6,11.9,2.5,17.4c0.2,0.9,1.1,2.3,1.8,2.4c0.9,0.2,2.5-0.5,2.9-1.2
	c3.5-6.6,6.9-13.2,10.7-20.7C213.5,169.6,208.2,170.2,202.2,170.9z M257.3,187.5c3.9,5.8,7.4,10.9,10.9,16.1c0.6,0.8,0.9,2,1.7,2.4
	c1.4,0.7,3.1,0.8,5.4,1.4c-0.8-4.1-1.2-6.9-1.8-9.6C270.8,185.5,270.8,185.5,257.3,187.5z M252.3,186c-4.3-6.4-7.8-12-11.8-17.3
	c-0.9-1.2-3-1.4-5.5-2.4c1.2,7.1,2.1,12.8,3.3,18.4c0.2,1,1.8,2.5,2.7,2.5C244.5,187.2,247.9,186.6,252.3,186z M201,192.4
	c0.8-0.4,1.5-0.8,2.3-1.1c-0.9-6.6-1.8-13.3-2.7-20.3c-4.9,0.6-9.3,1.1-14.6,1.8C191.4,179.9,196.2,186.2,201,192.4z M398.1,169.3
	c0.3-0.3,0.6-0.5,0.9-0.8c-1.9-5.1-3.7-10.2-5.9-15.2c-0.4-1-2.2-2.1-3.2-2.1c-3.7,0.1-7.4,0.8-12.3,1.4
	C385.1,158.7,391.6,164,398.1,169.3z M272.5,185.5c1.7,7.5,3.2,14.4,4.8,21.3c0.8,0,1.5-0.1,2.3-0.1c2.2-7,2.4-14.2,2.3-21.9
	C278.6,185.1,276,185.3,272.5,185.5z M346.5,155.6c-5.6,0.6-9.9,1.1-14.6,1.7c1.8,5.8,3.3,10.8,5.2,17.1
	C340.4,167.7,343.1,162.3,346.5,155.6z M288.4,160c3.7-0.3,6.4-0.6,9.7-0.9c-1.9-6.8-3.6-12.9-5.3-19c-0.8,0.1-1.7,0.2-2.5,0.3
	C289.7,146.6,289.1,152.9,288.4,160z M180.7,171.4c-4.6-6.1-8.6-11.4-12.7-16.8c-0.4,0.2-0.7,0.3-1.1,0.5c0.6,5.7,1.1,11.4,1.7,17.6
	C172.6,172.3,176.2,171.9,180.7,171.4z M322.4,158.5c2.2,2.4,3.9,4.2,5.6,6c1.7,1.8,3.3,3.6,5.9,6.5
	C330.5,157.2,330.5,157.2,322.4,158.5z M361.1,152.5c-1.3-3.7-2.3-6.7-3.8-10.8c-2.1,4.3-3.7,7.6-5.7,11.7
	C355.1,153.1,357.7,152.8,361.1,152.5z M429.9,128.9c0.4,0.6,0.8,1.2,1.2,1.8c4-0.7,7.9-1.4,12-2.2c-2.3-3.8-2.3-4-9.4-2.6
	C432.3,126.2,431.2,127.9,429.9,128.9z M359.4,141.4c2.9,11.7,3,11.8,11.4,9.4C367.1,147.8,363.7,145,359.4,141.4z M231.6,156.2
	c-0.4-0.1-0.8-0.1-1.1-0.2c-1.7,3.4-3.3,6.8-5.4,11c3.3-0.6,5.4-1,8-1.5C232.5,162.1,232,159.2,231.6,156.2z M451.4,112.8
	c0.3-0.8,0.5-1.6,0.7-2.3c-1.7-0.8-3.4-1.6-5.1-2.4c-0.3,1.1-0.6,2.2-1,3.3C447.9,111.8,449.7,112.3,451.4,112.8z M299.5,137.8
	c-2.5-2.8-4.5-4.9-6.4-7C294.2,133.6,291.5,139.5,299.5,137.8z"/>
<path fill-rule="evenodd" fill="#FFFFFF" d="M414,97.6c1.8-3.9,3.6-7.8,5.7-12.5c-7.6,2-13.7,6.9-21.2,2c1,2.4,2,4.4,2.9,6.5
	c-5.1,1.9-6.1,1.4-7.2-3.5c-1.3-5.6-1.1-9.7,4-14.5c4.9-4.6,7-12,4.6-19.8c-1.3-4.3-0.2-9.2-0.2-15.2c7.1,6.1,9.9,16.3,20.5,12
	c2.4,4.6,4.7,8.9,7.5,14c2.1-2.2,4.4-4.5,6.6-6.8c0.3,0.3,0.7,0.6,1,0.9c-3.1,4.4-6.2,8.9-9,12.9c-2.4-1.8-4.2-3.1-4.9-3.7
	c-3.9,3.8-7,6.8-10.9,10.6c3.7-1,6.9-3.9,7.9,1.5c1.7-1.2,3-2.2,4.3-3.2c0.2,0.1,0.4,0.3,0.6,0.4c-3.7,6.3-7.4,12.5-11,18.8
	C414.6,97.9,414.3,97.8,414,97.6z"/>
<path fill-rule="evenodd" fill="#FFFFFF" d="M141,274c-0.5-7.9-1.1-14.9-1.3-22c0-0.9,1.6-2.5,2.7-2.7c10.2-1.3,20.4-2.4,31.6-3.7
	c0.8,8,1.6,15.7,2.4,24C164.5,271.1,153.2,272.5,141,274z"/>
<path fill-rule="evenodd" fill="#FFFFFF" d="M178.3,269.4c-0.8-8.2-1.6-15.9-2.5-24.1c11.5-1.4,22.5-2.6,34.3-4
	c1.1,7.8,2.2,15.4,3.4,23.8C201.6,266.5,190.2,267.9,178.3,269.4z"/>
<path fill-rule="evenodd" fill="#FFFFFF" d="M250.2,260.6c-11.9,1.5-23,2.8-34.8,4.3c-1.1-7.9-2.2-15.5-3.4-23.7
	c11.3-1.4,22.1-2.7,33.8-4.2C247.2,244.7,248.7,252.4,250.2,260.6z"/>
<path fill-rule="evenodd" fill="#FFFFFF" d="M251.9,260.3c-1.4-7.3-2.7-13.7-3.5-20c-0.2-1.2,1.7-3.6,2.9-3.8
	c8.8-1.3,17.8-2.2,26.6-3.3c2.4-0.3,3.6,0.5,4,3.1c1,5.5,2.5,11,3.5,16.5c0.2,1.1-1,3.5-1.7,3.7C273.3,257.8,262.8,259,251.9,260.3z
	"/>
<path fill-rule="evenodd" fill="#FFFFFF" d="M171.6,220.6c0.8,8,1.5,15.2,2.3,23c-11.5,1.4-22.6,2.8-34.4,4.2
	c-0.5-7.9-1-15.4-1.5-23.6C149.3,223.1,160.2,221.9,171.6,220.6z"/>
<path fill-rule="evenodd" fill="#FFFFFF" d="M282.9,232.7c10.6-1.3,20.5-2.5,30.4-3.5c1.1-0.1,3,1.4,3.4,2.5
	c1.8,6.4,3.3,12.8,5.1,19.9c-8.3,1.1-16.3,2.2-24.3,3.1c-9.4,1-9.4,0.9-11.6-8.6C284.9,241.9,284,237.7,282.9,232.7z"/>
<path fill-rule="evenodd" fill="#FFFFFF" d="M206.7,216.6c1.1,7.9,2.2,15.2,3.3,23c-11.6,1.3-22.6,2.6-34.3,4
	c-0.8-7.8-1.5-15.3-2.3-23.2C184.6,219.1,195.4,217.8,206.7,216.6z"/>
<path fill-rule="evenodd" fill="#FFFFFF" d="M317.7,228.5c10.4-1.2,19.8-2.5,29.2-3.4c1.3-0.1,3.6,1.1,4,2.2c2.2,6.4,4,12.9,6.1,20
	c-11.2,1.4-22,2.8-33.3,4.2C321.6,244,319.7,236.6,317.7,228.5z"/>
<path fill-rule="evenodd" fill="#FFFFFF" d="M241.6,212.5c1.4,8,2.6,15.1,4,22.8c-10.8,1.2-20.9,2.5-31.1,3.4
	c-1,0.1-2.9-1.6-3.1-2.7c-1.1-6.4-1.8-12.8-2.8-19.7C219.6,215,230.3,213.8,241.6,212.5z"/>
<path fill-rule="evenodd" fill="#FFFFFF" d="M391.5,243.1c-10.9,1.3-20.7,2.5-30.6,3.6c-0.9,0.1-2.5-1-2.8-1.8
	c-2.2-6.6-4.1-13.2-6.3-20.5c10.4-1.2,20.1-2.4,29.8-3.3c1-0.1,2.7,0.9,3,1.8C387,229.2,389,235.7,391.5,243.1z"/>
<path fill-rule="evenodd" fill="#FFFFFF" d="M385.7,220.5c10-1.2,19.2-2.4,28.4-3.3c1.2-0.1,3.2,0.7,3.5,1.6
	c2.7,6.4,5,12.9,7.7,20.1c-7.6,1-14.4,2.1-21.3,2.8c-11,1.1-11,1-14.6-9.6C388.3,228.5,387.2,224.9,385.7,220.5z"/>
<path fill-rule="evenodd" fill="#FFFFFF" d="M136.6,200.4c11.2-1.2,21.7-2.4,32.7-3.6c0.7,7.4,1.4,14.3,2.1,21.9
	c-11.2,1.3-22,2.5-33.5,3.9C137.5,215.1,137,208.1,136.6,200.4z"/>
<path fill-rule="evenodd" fill="#FFFFFF" d="M311.5,204.6c10.3-1.2,20-2.3,29.7-3.3c0.8-0.1,2.2,1,2.4,1.8c2,6.3,3.8,12.7,5.9,19.7
	c-7.8,1-15.2,2.1-22.6,2.8c-9.9,1-10,0.9-12.5-8.6C313.5,213.1,312.6,209.1,311.5,204.6z"/>
<path fill-rule="evenodd" fill="#FFFFFF" d="M376.1,197.2c2.5,7.4,4.8,14.1,7.3,21.7c-11,1.3-21.3,2.6-32,3.9
	c-2.2-7.2-4.3-14.1-6.6-21.9C355.4,199.7,365.6,198.5,376.1,197.2z"/>
<path fill-rule="evenodd" fill="#FFFFFF" d="M377.8,197c9.9-1.1,18.9-2.1,28-3c1.1-0.1,3,0.9,3.4,1.9c2.5,6,4.7,12,7.3,19
	c-7.6,1-14.6,2-21.6,2.8c-9.8,1-9.8,0.9-12.9-8.5C380.6,205.4,379.4,201.7,377.8,197z"/>
<path fill-rule="evenodd" fill="#FFFFFF" d="M206.4,214.7c-11.1,1.3-21.7,2.5-33.1,3.9c-0.7-6.7-1.5-13.2-2-19.7
	c-0.1-0.8,1.7-2.4,2.8-2.6c6.7-0.9,13.5-1.6,20.3-2.2c3.8-0.3,9.7,5.8,10.9,11.3C205.9,208.3,206,211.2,206.4,214.7z"/>
<path fill-rule="evenodd" fill="#FFFFFF" d="M243.3,212.4c7.7-0.8,14.9-1.7,22.2-2.4c1.1-0.1,2.7,0.1,3.2,0.7
	c4.1,6.2,7.9,12.6,11.8,18.9c0.1,0.2-0.1,0.6-0.2,1.5c-10.6,1.2-21.4,2.5-32.8,3.8C246,227.3,244.7,220.1,243.3,212.4z"/>
<path fill-rule="evenodd" fill="#FFFFFF" d="M281.7,231c0.8-7.7,1.3-14.5,2.2-21.4c0.1-0.9,2.1-2.1,3.3-2.3
	c6.2-0.9,12.5-1.4,18.8-2.3c3-0.4,4.2,0.8,4.8,3.5c1.1,4.8,2.6,9.6,3.6,14.5c0.2,1.3-0.8,4-1.6,4.1
	C302.8,228.6,292.8,229.7,281.7,231z"/>
<path fill-rule="evenodd" fill="#FFFFFF" d="M342.6,199.4c-10,1.2-19,2.3-28.1,3.1c-1.3,0.1-3.8-1-4.1-2.1
	c-1.8-5.8-3.2-11.8-4.9-18.4c9.8-1.1,19.1-2.1,28.5-3c0.9-0.1,2.6,0.9,2.9,1.8C338.9,186.8,340.6,192.8,342.6,199.4z"/>
<path fill-rule="evenodd" fill="#FFFFFF" d="M208.9,214.5c-3.4-7.5-1.7-14.2,2.4-20.4c0.5-0.8,1.3-1.8,2.1-1.9
	c7.9-1,15.8-1.8,24-2.7c1.3,7.3,2.4,13.9,3.8,21.3C230.1,212.1,219.4,213.3,208.9,214.5z"/>
<path fill-rule="evenodd" fill="#FFFFFF" d="M375.5,195.6c-9.7,1.1-18.4,2.1-27.2,3.2c-3,0.4-4.5-0.5-5.3-3.6
	c-1.3-5.4-3.1-10.7-4.9-16.7c10-1.2,19.3-2.3,28.7-3.2c0.8-0.1,2.1,1,2.4,1.8C371.4,183,373.3,189,375.5,195.6z"/>
<path fill-rule="evenodd" fill="#FFFFFF" d="M136.5,198.7c-0.2-7.3-2.9-14.5,4.2-19.7c1-0.8,2.1-1.8,3.3-2
	c6.6-0.8,13.2-1.4,19.8-2.2c2.7-0.3,3.6,1,3.8,3.3c0.2,1.8,0.2,3.7,0.4,5.5c1,11.6,1,11.7-10.5,12.9
	C150.7,197.3,143.9,198,136.5,198.7z"/>
<path fill-rule="evenodd" fill="#FFFFFF" d="M407.8,192c-10.2,1.1-19.6,2.2-28.9,3c-0.8,0.1-2.1-1.1-2.4-1.9
	c-2.1-5.7-4-11.6-6.1-18.1c8.8-1,17.1-2.3,25.4-2.6c2.2-0.1,5.2,3,6.5,5.3C404.5,181.9,405.8,186.6,407.8,192z"/>
<path fill-rule="evenodd" fill="#FFFFFF" d="M133.8,154.6c-0.3-6.3-0.6-12.1-0.9-18.4c10.1-1,19.8-1.9,30.2-2.9
	c0.4,4.8,1.5,9.3,0.8,13.5c-0.4,2.2-3.7,5-6.1,5.4C150.2,153.5,142.4,153.8,133.8,154.6z"/>
<path fill-rule="evenodd" fill="#FFFFFF" d="M197.3,148.4c-9.1,0.9-17.3,2-25.6,2.2c-1.9,0-4.8-2.9-5.5-5c-1.2-3.7-1-7.8-1.5-12.3
	c10.1-1,19.6-2,30-3.1C195.6,136.1,196.4,142,197.3,148.4z"/>
<path fill-rule="evenodd" fill="#FFFFFF" d="M226.4,127.1c1.1,6.2,2,11.7,3.1,17.9c-3.9,0.4-7.2,0.8-10.6,1.1
	c-5.4,0.6-10.9,1.3-16.3,1.5c-1.3,0-3.5-1.7-3.8-3c-1-4.5-1.3-9.2-2-14.5C206.5,129.1,216.2,128.1,226.4,127.1z"/>
<path fill-rule="evenodd" fill="#FFFFFF" d="M261.3,141.9c-9.8,1-18.6,2-27.5,2.7c-1,0.1-2.7-1.3-3-2.3c-1.1-4.8-1.9-9.7-2.9-15.3
	c9.9-1,19.4-2,29.4-3C258.6,129.8,259.9,135.4,261.3,141.9z"/>
<path fill-rule="evenodd" fill="#FFFFFF" d="M265.8,162.4c-7.1,0.8-13.5,1.8-20,2.1c-1.9,0.1-4.4-1.1-5.7-2.6
	c-2.7-3.1-4.8-6.7-7-10.3c-0.8-1.3-1-3-1.7-5.2c10.3-1,19.9-2,30.1-3C263,149.8,264.4,155.9,265.8,162.4z"/>
<path fill-rule="evenodd" fill="#FFFFFF" d="M320.1,118.1c9.2-1,17.7-1.9,26.3-2.6c0.9-0.1,2.4,1,2.8,1.9c1.8,4.8,3.3,9.6,5.1,15.1
	c-9.4,0.9-18.2,1.9-27,2.6c-0.9,0.1-2.5-1.5-2.8-2.5C322.8,128,321.6,123.4,320.1,118.1z"/>
<path fill-rule="evenodd" fill="#FFFFFF" d="M350.1,115c8.8-0.8,16.7-1.5,24.6-2.1c1.3-0.1,3.4,0.5,3.8,1.4
	c2.1,4.8,3.8,9.8,5.9,15.2c-9.1,0.9-17.3,1.8-25.6,2.4c-1.2,0.1-3.2-1.3-3.7-2.5C353.2,124.9,351.8,120.3,350.1,115z"/>
<path fill-rule="evenodd" fill="#FFFFFF" d="M230.6,148.2c-1.9,3.7-3.7,7.5-5.7,11.2c-1.5,2.7-2.8,6.9-5,7.6
	c-5.1,1.5-10.8,1.5-16.2,1.7c-0.7,0-2-2-2.2-3.3c-0.8-4.9-1.4-9.8-2.1-15.6c10.1-1,20-2,29.9-3C229.7,147.2,230.2,147.7,230.6,148.2
	z"/>
<path fill-rule="evenodd" fill="#FFFFFF" d="M335.5,177.1c-10.3,1.1-19.2,2.1-28.1,2.8c-1,0.1-2.7-1.3-3-2.3
	c-1.6-5.4-2.8-10.9-4.3-17.1c6.1-0.6,11.8-1.1,17.5-1.5c0.7-0.1,1.6,0.5,2.1,1C324.7,165.3,329.6,170.7,335.5,177.1z"/>
<path fill-rule="evenodd" fill="#FFFFFF" d="M259.2,124c9.2-1,18.1-1.9,27-2.7c0.8-0.1,2,1.4,2.4,2.4c0.3,1-0.3,2.3-0.4,3.4
	c-1.4,12.8-1.4,12.8-14.4,13.6c-11,0.7-11.1,0.7-13.4-10.4C259.9,128.4,259.6,126.5,259.2,124z"/>
<path fill-rule="evenodd" fill="#FFFFFF" d="M303.8,182.2c1.8,6.8,3.5,13.5,5.4,20.8c-8.5,1-16.4,1.9-25.3,3
	c0.8-7.2,1.4-13.9,2.3-20.6c0.1-0.6,1.7-1.4,2.7-1.5C293.7,183.3,298.5,182.8,303.8,182.2z"/>
<path fill-rule="evenodd" fill="#FFFFFF" d="M325.7,137c9.4-1,18.3-2.1,27.1-2.8c0.7-0.1,2.5,3,2.1,3.9c-1.9,4.7-4.2,9.4-6.8,13.8
	c-0.7,1.2-2.6,2-4,2.3c-4.1,0.7-8.2,0.9-12.8,1.4C329.5,149.6,327.7,143.7,325.7,137z"/>
<path fill-rule="evenodd" fill="#FFFFFF" d="M290.5,121c9.2-0.9,18.4-1.8,27.9-2.8c1.7,5.8,3.3,11.3,5.1,17.3
	c-6.3,0.7-12.2,1.4-18,2.1c-0.6,0.1-1.6,0.2-1.9-0.2c-4.8-4.9-9.4-9.9-14.1-14.9C289.8,122,290.2,121.5,290.5,121z"/>
<path fill-rule="evenodd" fill="#FFFFFF" d="M197.7,149.9c0.9,7,1.7,13,2.5,18.9c-1,0.4-1.5,0.8-1.9,0.8c-4.6,0.3-10.7,2.5-13.5,0.3
	c-5.4-4.2-9-10.8-14.1-17.3C180.2,151.7,188.7,150.8,197.7,149.9z"/>
<path fill-rule="evenodd" fill="#FFFFFF" d="M239.2,189.8c0.4-0.3,0.5-0.4,0.7-0.4c13-2.6,13-2.6,20.2,8.3c2.1,3.1,4.2,6.3,6.7,10.2
	c-7.8,1-14.8,1.9-21.8,2.6c-0.8,0.1-2.3-1.3-2.5-2.2C241.3,202.1,240.3,195.9,239.2,189.8z"/>
<path fill-rule="evenodd" fill="#FFFFFF" d="M356.3,133.9c9.1-0.9,17.4-1.8,26.2-2.7c-1.5,4.8-1.9,8.4,4.9,8.7
	c1.5,0.1,2.8,5.8,4.2,8.9C377.6,152.5,366.5,147.9,356.3,133.9z"/>
<path fill-rule="evenodd" fill="#FFFFFF" d="M169,174.8c1-0.5,1.1-0.6,1.3-0.6c8.5-2.8,14.5-0.2,18.7,7.8c1.8,3.4,4.6,6.4,7.4,10.2
	c-8.1,0.9-15.3,1.8-22.5,2.3c-1,0.1-3.1-1.5-3.2-2.5C169.8,186.3,169.5,180.6,169,174.8z"/>
<path fill-rule="evenodd" fill="#FFFFFF" d="M267.5,162.3c-1.5-6.7-2.8-12.7-4.1-18.9c3.9-0.5,7.3-1,10.8-1.3
	c3.9-0.4,7.9-0.7,12.6-1.1c-0.6,6.6-1.2,12.8-1.8,19.5C279.1,161.1,273.6,161.7,267.5,162.3z"/>
<path fill-rule="evenodd" fill="#FFFFFF" d="M367.6,173.5c-9.1,1-17.8,2-27.6,3.1c3.6-7.3,6.4-14.2,10.5-20.1c1.4-2,6.3-2,9.7-2.1
	c1,0,2.3,2.7,2.9,4.4c1.6,4.2,2.9,8.5,4.3,12.7C367.6,172,367.5,172.5,367.6,173.5z"/>
<path fill-rule="evenodd" fill="#FFFFFF" d="M270.4,184c-4.8,0.6-8.7,1.2-12.7,1.5c-0.7,0.1-1.8-0.3-2.2-0.8
	c-4.1-5.8-8-11.7-12.4-18.2c7.6-0.9,14.1-1.7,20.7-2.3c0.9-0.1,2.5,1.1,2.7,2C268,171.9,269.1,177.5,270.4,184z"/>
<path fill-rule="evenodd" fill="#FFFFFF" d="M363.5,154.5c5.8-2.2,10.6-2,15.3,2.5c4.7,4.6,10.1,8.5,16.3,13.6
	c-8.5,0.8-15.8,1.7-23.1,2.2c-1,0.1-2.7-1.2-3.1-2.3C366.9,165.3,365.3,159.9,363.5,154.5z"/>
<path fill-rule="evenodd" fill="#FFFFFF" d="M213.2,190.3c3.9-7.8,6.8-14.7,10.9-20.8c1.2-1.8,5.7-1.5,9.3-2.3
	c1.3,7.1,2.5,13.5,3.8,20.5C229.2,188.6,221.9,189.4,213.2,190.3z"/>
<path fill-rule="evenodd" fill="#FFFFFF" d="M135.1,175.3c-0.4-6.1-0.8-12.2-1.2-18.9c8-0.9,15.6-1.7,23.2-2.5
	c0.2,0.4,0.5,0.8,0.7,1.2c-7,7.2-12.9,15.4-20.6,21.8C136.4,176.3,135.8,175.8,135.1,175.3z"/>
<path fill-rule="evenodd" fill="#FFFFFF" d="M267.9,164.1c5.6-0.6,10.8-1.2,16.7-1.9c-0.6,6.6-0.8,12.8-2.2,18.9
	c-0.3,1.3-4.6,2.1-7.1,2.5c-1.1,0.2-3.4-1-3.7-2C270.3,176,269.2,170.3,267.9,164.1z"/>
<path fill-rule="evenodd" fill="#FFFFFF" d="M303.4,180.5c-5.9,0.7-11.2,1.3-17.2,2c0.6-6.5,0.9-12.6,2-18.5c0.2-1.2,3.2-2.4,5-2.6
	c1.8-0.2,5,0.4,5.4,1.5C300.6,168.4,301.8,174.2,303.4,180.5z"/>
<path fill-rule="evenodd" fill="#FFFFFF" d="M304.9,139.2c6.3-0.7,11.5-1.5,16.7-1.9c1-0.1,2.7,1.2,3.1,2.2
	c1.8,5.1,3.2,10.4,4.7,15.6c-5.6,2.8-9.5,1.4-13.1-3.2C313.1,147.7,309.3,144,304.9,139.2z"/>
<path fill-rule="evenodd" fill="#FFFFFF" d="M165,153.7c0.6,6.1,1.3,12.1,2,19c-7.2,0.8-14.1,1.5-21,2.3c-0.2-0.4-0.5-0.8-0.7-1.1
	c6.1-6.9,12.3-13.8,18.4-20.7C164.1,153.3,164.6,153.5,165,153.7z"/>
<path fill-rule="evenodd" fill="#FFFFFF" d="M294.9,140.8c4.2-1.8,6.9-1,9.4,2c3.9,4.7,8.1,9,13,14.3c-6,0.6-10.9,1.2-15.8,1.5
	c-0.7,0-2-1.1-2.3-1.9C297.6,151.5,296.3,146.3,294.9,140.8z"/>
<path fill-rule="evenodd" fill="#FFFFFF" d="M202.2,170.9c5.9-0.7,11.3-1.3,18-2.1c-3.8,7.5-7.2,14.1-10.7,20.7
	c-0.4,0.8-2,1.4-2.9,1.2c-0.8-0.2-1.7-1.5-1.8-2.4C203.8,182.8,203.1,177.2,202.2,170.9z"/>
<path fill-rule="evenodd" fill="#FFFFFF" d="M257.3,187.5c13.5-2,13.5-2,16.3,10.3c0.6,2.7,1,5.5,1.8,9.6c-2.3-0.6-4-0.7-5.4-1.4
	c-0.8-0.4-1.2-1.6-1.7-2.4C264.7,198.4,261.2,193.2,257.3,187.5z"/>
<path fill-rule="evenodd" fill="#FFFFFF" d="M252.3,186c-4.4,0.6-7.8,1.2-11.2,1.3c-0.9,0-2.5-1.5-2.7-2.5
	c-1.2-5.6-2.1-11.3-3.3-18.4c2.4,1,4.6,1.2,5.5,2.4C244.5,174.1,248,179.6,252.3,186z"/>
<path fill-rule="evenodd" fill="#FFFFFF" d="M201,192.4c-4.8-6.3-9.6-12.5-15.1-19.7c5.3-0.6,9.7-1.2,14.6-1.8
	c0.9,7.1,1.8,13.7,2.7,20.3C202.5,191.7,201.8,192,201,192.4z"/>
<path fill-rule="evenodd" fill="#FFFFFF" d="M398.1,169.3c-6.5-5.3-13-10.6-20.4-16.7c4.9-0.6,8.6-1.2,12.3-1.4c1.1,0,2.8,1,3.2,2.1
	c2.1,5,3.9,10.1,5.9,15.2C398.7,168.7,398.4,169,398.1,169.3z"/>
<path fill-rule="evenodd" fill="#FFFFFF" d="M272.5,185.5c3.5-0.3,6.1-0.5,9.4-0.7c0,7.7-0.2,15-2.3,21.9c-0.8,0-1.5,0.1-2.3,0.1
	C275.7,199.9,274.2,193,272.5,185.5z"/>
<path fill-rule="evenodd" fill="#FFFFFF" d="M346.5,155.6c-3.4,6.7-6.1,12.1-9.5,18.8c-1.9-6.3-3.4-11.3-5.2-17.1
	C336.6,156.8,340.9,156.3,346.5,155.6z"/>
<path fill-rule="evenodd" fill="#FFFFFF" d="M288.4,160c0.7-7.1,1.3-13.4,1.9-19.7c0.8-0.1,1.7-0.2,2.5-0.3c1.7,6.1,3.4,12.2,5.3,19
	C294.7,159.4,292,159.7,288.4,160z"/>
<path fill-rule="evenodd" fill="#FFFFFF" d="M180.7,171.4c-4.5,0.5-8.1,0.9-12.1,1.3c-0.6-6.2-1.2-11.9-1.7-17.6
	c0.4-0.2,0.7-0.3,1.1-0.5C172.1,160,176.1,165.3,180.7,171.4z"/>
<path fill-rule="evenodd" fill="#FFFFFF" d="M322.4,158.5c8.1-1.3,8.1-1.3,11.5,12.4c-2.6-2.8-4.3-4.7-5.9-6.5
	C326.4,162.6,324.7,160.8,322.4,158.5z"/>
<path fill-rule="evenodd" fill="#FFFFFF" d="M361.1,152.5c-3.3,0.3-5.9,0.5-9.5,0.8c2-4,3.6-7.4,5.7-11.7
	C358.7,145.8,359.8,148.9,361.1,152.5z"/>
<path fill-rule="evenodd" fill="#FFFFFF" d="M429.9,128.9c1.2-1,2.4-2.7,3.8-3c7.1-1.4,7.1-1.2,9.4,2.6c-4.1,0.7-8,1.5-12,2.2
	C430.7,130.1,430.3,129.5,429.9,128.9z"/>
<path fill-rule="evenodd" fill="#FFFFFF" d="M359.4,141.4c4.3,3.6,7.7,6.4,11.4,9.4C362.4,153.2,362.2,153.1,359.4,141.4z"/>
<path fill-rule="evenodd" fill="#FFFFFF" d="M231.6,156.2c0.5,3,1,6,1.5,9.4c-2.6,0.5-4.7,0.9-8,1.5c2.1-4.3,3.7-7.7,5.4-11
	C230.8,156,231.2,156.1,231.6,156.2z"/>
<path fill-rule="evenodd" fill="#FFFFFF" d="M451.4,112.8c-1.8-0.5-3.5-0.9-5.3-1.4c0.3-1.1,0.6-2.2,1-3.3c1.7,0.8,3.4,1.6,5.1,2.4
	C451.9,111.2,451.7,112,451.4,112.8z"/>
<path fill-rule="evenodd" fill="#FFFFFF" d="M299.5,137.8c-7.9,1.7-5.3-4.2-6.4-7C295,132.9,296.9,135,299.5,137.8z"/>
</svg>
